  0
SECTION
  2
HEADER
  9
$EXTMIN
 10
4375353.01
 20
5360867.46
 30
-10.00
  9
$EXTMAX
 10
4375743.80
 20
5361227.21
 30
0.00
  9
$LIMMIN
 10
4375353.01
 20
5360867.46
  9
$LIMMAX
 10
4375743.80
 20
5361227.21
  0
ENDSEC
  0
SECTION
  2
TABLES
  0
TABLE
  2
LTYPE
 70
     7
  0
LTYPE
  2
AUSGEZOGEN
70
    64
  3
_______________
72
    65
73
     0
 40
0.0
  0
LTYPE
  2
GRENZE_GRA
 70
    64
  3
graphische Flst.Grenze ___ ___ ___
 72
    65
 73
     3
 40
9.0
 49
3.5
 49
-2.0
 49
3.5
  0
LTYPE
  2
BAUVOR
 70
    64
  3
gen. Bauvorhaben ___ ___ ___
 72
    65
 73
     3
 40
4.0
 49
1.5
 49
-1.0
 49
1.5
  0
LTYPE
  2
GEBDETAIL
 70
    64
  3
Gebaeudedetail
 72
    65
 73
     3
 40
1.0
 49
0.25
 49
-0.5
 49
0.25
  0
LTYPE
  2
FIRSTLINIE
 70
    64
  3
Firstlinie
 72
    65
 73
     3
 40
3.0
 49
1.0
 49
-1.0
 49
1.0
  0
LTYPE
  2
FUSSWEG
 70
    64
  3
Fussweg
 72
    65
 73
     9
 40
4.54
 49
1.0
 49
-0.5
 49
0.18
 49
-0.5
 49
0.18
 49
-0.5
 49
0.18
 49
-0.5
 49
1.0
  0
LTYPE
  2
ANKER
 70
    64
  3
Ankerlinie unsichtbar
 72
    65
 73
     1
 40
1.0
 49
-1.0
  0
ENDTAB
  0
TABLE
  2
LAYER
 70
   100
  0
LAYER
  2
GRE_FLST
 70
    64
 62
10
  6
AUSGEZOGEN
  0
LAYER
  2
GRE_FLST_NA
 70
    64
 62
11
  6
GRENZE_GRA
  0
LAYER
  2
GEB_HAUPT
 70
    64
 62
50
  6
AUSGEZOGEN
  0
LAYER
  2
GEB_NEB
 70
    64
 62
90
  6
AUSGEZOGEN
  0
LAYER
  2
AANL_MAUER
 70
    64
 62
70
  6
AUSGEZOGEN
  0
LAYER
  2
AANL_TREPPE
 70
    64
 62
80
  6
AUSGEZOGEN
  0
LAYER
  2
GEB_GVOR
 70
    64
 62
60
  6
BAUVOR
  0
LAYER
  2
GRE_STA
 70
    64
 62
40
  6
AUSGEZOGEN
  0
LAYER
  2
GRE_STA_NA
 70
    64
 62
41
  6
GRENZE_GRA
  0
LAYER
  2
GRE_GEME_GEMA
 70
    64
 62
30
  6
AUSGEZOGEN
  0
LAYER
  2
GRE_GEME_GEMA_NA
 70
    64
 62
31
  6
GRENZE_GRA
  0
LAYER
  2
GRE_GEMA
 70
    64
 62
20
  6
AUSGEZOGEN
  0
LAYER
  2
GRE_GEMA_NA
 70
    64
 62
21
  6
GRENZE_GRA
  0
LAYER
  2
GRE_GEME
 70
    64
 62
230
  6
AUSGEZOGEN
  0
LAYER
  2
GRE_GEME_NA
 70
    64
 62
231
  6
GRENZE_GRA
  0
LAYER
  2
GEB_OFFUE
 70
    64
 62
100
  6
AUSGEZOGEN
  0
LAYER
  2
GEB_PASSAGE
 70
    64
 62
102
  6
GEBDETAIL
  0
LAYER
  2
GEB_FIRSTLIN
 70
    64
 62
110
  6
FIRSTLINIE
  0
LAYER
  2
GEB_KIR_KRZ
 70
    64
 62
250
  6
AUSGEZOGEN
  0
LAYER
  2
NUTZ_GRE
 70
    64
 62
92
  6
AUSGEZOGEN
  0
LAYER
  2
NUTZ_UFER
 70
    64
 62
160
  6
AUSGEZOGEN
  0
LAYER
  2
TOPO_ABGR
 70
    64
 62
91
  6
AUSGEZOGEN
  0
LAYER
  2
TOPO_GRUBE
 70
    64
 62
130
  6
AUSGEZOGEN
  0
LAYER
  2
TOPO_WASSER_U
 70
    64
 62
162
  6
GEBDETAIL
  0
LAYER
  2
TOPO_BRUECKE
 70
    64
 62
200
  6
GEBDETAIL
  0
LAYER
  2
TOPO_FUSSW
 70
    64
 62
202
  6
FUSSWEG
  0
LAYER
  2
TOPO_FAEHRE
 70
    64
 62
170
  6
GEBDETAIL
  0
LAYER
  2
RAND_TX
 70
    64
 62
251
  6
AUSGEZOGEN
  0
LAYER
  2
GEB_HNUM
 70
    64
 62
240
  6
AUSGEZOGEN
  0
LAYER
  2
PUNKT_1_NR
 70
    64
 62
200
  6
AUSGEZOGEN
  0
LAYER
  2
FLST_1K_TX
 70
    64
 62
30
  6
AUSGEZOGEN
  0
LAYER
  2
GEB_BEZ
 70
    64
 62
20
  6
AUSGEZOGEN
  0
LAYER
  2
TOPO_1_WS
 70
    64
 62
160
  6
AUSGEZOGEN
  0
LAYER
  2
NUTZ_1_TX
 70
    64
 62
72
  6
AUSGEZOGEN
  0
LAYER
  2
TOPO_1_PARK
 70
    64
 62
82
  6
AUSGEZOGEN
  0
LAYER
  2
TOPO_1_TX
 70
    64
 62
91
  6
AUSGEZOGEN
  0
LAYER
  2
FLST_1G_TX
 70
    64
 62
30
  6
AUSGEZOGEN
  0
LAYER
  2
TOPO_ORTSSTR
 70
    64
 62
40
  6
AUSGEZOGEN
  0
LAYER
  2
FLUR_1_NAM
 70
    64
 62
92
  6
AUSGEZOGEN
  0
LAYER
  2
TOPO_1_BAHNLIN
 70
    64
 62
232
  6
AUSGEZOGEN
  0
LAYER
  2
TOPO_1_UEB_STR
 70
    64
 62
61
  6
AUSGEZOGEN
  0
LAYER
  2
VERW_1_NAM
 70
    64
 62
191
  6
AUSGEZOGEN
  0
LAYER
  2
PUNKT_5_NR
 70
    64
 62
200
  6
AUSGEZOGEN
  0
LAYER
  2
FLST_5K_TX
 70
    64
 62
30
  6
AUSGEZOGEN
  0
LAYER
  2
TOPO_5_WS
 70
    64
 62
160
  6
AUSGEZOGEN
  0
LAYER
  2
NUTZ_5_TX
 70
    64
 62
72
  6
AUSGEZOGEN
  0
LAYER
  2
TOPO_5_PARK
 70
    64
 62
82
  6
AUSGEZOGEN
  0
LAYER
  2
TOPO_5_TX
 70
    64
 62
91
  6
AUSGEZOGEN
  0
LAYER
  2
FLST_5G_TX
 70
    64
 62
30
  6
AUSGEZOGEN
  0
LAYER
  2
FLUR_5_NAM
 70
    64
 62
92
  6
AUSGEZOGEN
  0
LAYER
  2
BAHNLIN5
 70
    64
 62
232
  6
AUSGEZOGEN
  0
LAYER
  2
TOPO_5_UEB_STR
 70
    64
 62
61
  6
AUSGEZOGEN
  0
LAYER
  2
VERW_5_NAM
 70
    64
 62
191
  6
AUSGEZOGEN
  0
LAYER
  2
FLST_1K_NR
 70
    64
 62
30
  6
AUSGEZOGEN
  0
LAYER
  2
FLST_1G_NR
 70
    64
 62
30
  6
AUSGEZOGEN
  0
LAYER
  2
FLST_5K_NR
 70
    64
 62
30
  6
AUSGEZOGEN
  0
LAYER
  2
FLST_5G_NR
 70
    64
 62
30
  6
AUSGEZOGEN
  0
LAYER
  2
FLST_1O_NR
 70
    64
 62
30
  6
AUSGEZOGEN
  0
LAYER
  2
FLST_5O_NR
 70
    64
 62
30
  6
AUSGEZOGEN
  0
LAYER
  2
PKT_G
 70
    64
 62
7
  6
AUSGEZOGEN
  0
LAYER
  2
PKT_D
 70
    64
 62
162
  6
AUSGEZOGEN
  0
LAYER
  2
PKT_DIG
 70
    64
 62
70
  6
AUSGEZOGEN
  0
LAYER
  2
PKT_G_OD
 70
    64
 62
9
  6
AUSGEZOGEN
  0
LAYER
  2
PKT_D_OD
 70
    64
 62
161
  6
AUSGEZOGEN
  0
LAYER
  2
PKT_DIG_OD
 70
    64
 62
71
  6
AUSGEZOGEN
  0
LAYER
  2
FLST_NR_SY
 70
    64
 62
30
  6
AUSGEZOGEN
  0
LAYER
  2
TOPO_SYM
 70
    64
 62
7
  6
AUSGEZOGEN
  0
LAYER
  2
VERW_SYM
 70
    64
 62
6
  6
AUSGEZOGEN
  0
LAYER
  2
NUTZ_SYM
 70
    64
 62
3
  6
AUSGEZOGEN
  0
LAYER
  2
RAND_SYM
 70
    64
 62
251
  6
AUSGEZOGEN
  0
LAYER
  2
MESST_SYM
 70
    64
 62
1
  6
AUSGEZOGEN
  0
LAYER
  2
PKT_NUMMER
 70
    64
 62
255
  6
AUSGEZOGEN
  0
ENDTAB
  0
ENDSEC
  0
SECTION
  2
BLOCKS
  0
BLOCK
  8
NUTZ_SYM
  2
SYPKT
 70
    64
 10
0.0
 20
0.0
 30
0.0
  3
Punkt fuer Nutz.-Symbole (Hilfssymbol)
  0
CIRCLE
  8
NUTZ_SYM
 10
0.0
 20
0.0
 30
0.0
 40
0.11
  0
ENDBLK
  0
BLOCK
  8
PKT_G
  2
SYM000
 70
    64
 10
0.0
 20
0.0
 30
0.0
  3
Grenzpunkt allgemein
  0
CIRCLE
  8
PKT_G
 10
0.0
 20
0.0
 30
0.0
 40
0.61
  0
ENDBLK
  0
BLOCK
  8
PKT_G
  2
SYM001
 70
    64
 10
0.0
 20
0.0
 30
0.0
  3
T-Bodenp.
  0
CIRCLE
  8
PKT_G
 10
0.0
 20
0.0
 30
0.0
 40
0.91
  0
LINE
  8
PKT_G
 10
-1.58
 20
-0.92
 30
0.0
 11
0.0
 21
1.82
 31
0.0
  0
LINE
  8
PKT_G
 10
0.0
 20
1.82
 30
0.0
 11
1.58
 21
-0.92
 31
0.0
  0
LINE
  8
PKT_G
 10
1.58
 20
-0.92
 30
0.0
 11
-1.58
 21
-0.92
 31
0.0
  0
ENDBLK
  0
BLOCK
  8
PKT_G
  2
SYM002
 70
    64
 10
0.0
 20
0.0
 30
0.0
  3
T-Hochp.
  0
CIRCLE
  8
PKT_G
 10
0.0
 20
0.0
 30
0.0
 40
0.91
  0
ENDBLK
  0
BLOCK
  8
PKT_G
  2
SYM003
 70
    64
 10
0.0
 20
0.0
 30
0.0
  3
KFP
  0
CIRCLE
  8
PKT_G
 10
0.0
 20
0.0
 30
0.0
 40
0.91
  0
ENDBLK
  0
BLOCK
  8
PKT_G
  2
SYM004
 70
    64
 10
0.0
 20
0.0
 30
0.0
  3
Pfeilerbolzen
  0
CIRCLE
  8
PKT_G
 10
0.0
 20
0.0
 30
0.0
 40
0.91
  0
CIRCLE
  8
PKT_G
 10
0.0
 20
0.0
 30
0.0
 40
0.41
  0
ENDBLK
  0
BLOCK
  8
PKT_G
  2
SYM005
 70
    64
 10
0.0
 20
0.0
 30
0.0
  3
Mauerbolzen
  0
INSERT
  8
PKT_G
  2
SYM004
 10
0.0
 20
0.0
 30
0.0
  0
ENDBLK
  0
BLOCK
  8
PKT_G
  2
SYM010
 70
    64
 10
0.0
 20
0.0
 30
0.0
  3
Grenzstein
  0
LINE
  8
PKT_G
 10
-0.83
 20
-0.83
 30
0.0
 11
-0.83
 21
0.83
 31
0.0
  0
LINE
  8
PKT_G
 10
-0.83
 20
0.83
 30
0.0
 11
0.83
 21
0.83
 31
0.0
  0
LINE
  8
PKT_G
 10
0.83
 20
0.83
 30
0.0
 11
0.83
 21
-0.83
 31
0.0
  0
LINE
  8
PKT_G
 10
0.83
 20
-0.83
 30
0.0
 11
-0.83
 21
-0.83
 31
0.0
  0
ENDBLK
  0
BLOCK
  8
PKT_G
  2
SYM011
 70
    64
 10
0.0
 20
0.0
 30
0.0
  3
Gz. a. Kunststoff
  0
CIRCLE
  8
PKT_G
 10
0.0
 20
0.0
 30
0.0
 40
0.61
  0
ENDBLK
  0
BLOCK
  8
PKT_G
  2
SYM012
 70
    64
 10
0.0
 20
0.0
 30
0.0
  3
Grenznagel
  0
CIRCLE
  8
PKT_G
 10
0.0
 20
0.0
 30
0.0
 40
0.61
  0
LINE
  8
PKT_G
 10
0.0
 20
0.61
 30
0.0
 11
0.0
 21
1.55
 31
0.0
  0
LINE
  8
PKT_G
 10
-0.61
 20
1.55
 30
0.0
 11
0.61
 21
1.55
 31
0.0
  0
ENDBLK
  0
BLOCK
  8
PKT_G
  2
SYM013
 70
    64
 10
0.0
 20
0.0
 30
0.0
  3
Grenzrohr
  0
CIRCLE
  8
PKT_G
 10
0.0
 20
0.0
 30
0.0
 40
0.61
  0
LINE
  8
PKT_G
 10
0.0
 20
0.61
 30
0.0
 11
0.0
 21
0.3
 31
0.0
  0
LINE
  8
PKT_G
 10
0.61
 20
0.0
 30
0.0
 11
0.3
 21
0.0
 31
0.0
  0
LINE
  8
PKT_G
 10
0.0
 20
-0.61
 30
0.0
 11
0.0
 21
-0.3
 31
0.0
  0
LINE
  8
PKT_G
 10
-0.61
 20
0.0
 30
0.0
 11
-0.3
 21
0.0
 31
0.0
  0
ENDBLK
  0
BLOCK
  8
PKT_G
  2
SYM014
 70
    64
 10
0.0
 20
0.0
 30
0.0
  3
Grenzkreuz
  0
CIRCLE
  8
PKT_G
 10
0.0
 20
0.0
 30
0.0
 40
0.61
  0
LINE
  8
PKT_G
 10
-0.43
 20
-0.43
 30
0.0
 11
-0.85
 21
-0.85
 31
0.0
  0
LINE
  8
PKT_G
 10
0.43
 20
-0.43
 30
0.0
 11
0.85
 21
-0.85
 31
0.0
  0
LINE
  8
PKT_G
 10
0.43
 20
0.43
 30
0.0
 11
0.85
 21
0.85
 31
0.0
  0
LINE
  8
PKT_G
 10
-0.43
 20
0.43
 30
0.0
 11
-0.85
 21
0.85
 31
0.0
  0
ENDBLK
  0
BLOCK
  8
PKT_G
  2
SYM015
 70
    64
 10
0.0
 20
0.0
 30
0.0
  3
Feldstein
  0
CIRCLE
  8
PKT_G
 10
0.0
 20
0.0
 30
0.0
 40
0.61
  0
LINE
  8
PKT_G
 10
-0.35
 20
0.5
 30
0.0
 11
-0.35
 21
1.45
 31
0.0
  0
LINE
  8
PKT_G
 10
0.35
 20
0.5
 30
0.0
 11
0.35
 21
1.45
 31
0.0
  0
ARC
  8
PKT_G
 10
0.0
 20
1.45
 30
0.0
 40
0.35
 50
0.0
 51
180.0
  0
ENDBLK
  0
BLOCK
  8
PKT_G
  2
SYM016
 70
    64
 10
0.0
 20
0.0
 30
0.0
  3
Grenzpflock
  0
CIRCLE
  8
PKT_G
 10
0.0
 20
0.0
 30
0.0
 40
0.61
  0
LINE
  8
PKT_G
 10
0.0
 20
0.61
 30
0.0
 11
0.0
 21
1.7
 31
0.0
  0
ENDBLK
  0
BLOCK
  8
PKT_G
  2
SYM017
 70
    64
 10
0.0
 20
0.0
 30
0.0
  3
Mz. Uferl.
  0
CIRCLE
  8
PKT_G
 10
0.0
 20
0.0
 30
0.0
 40
0.61
  0
ENDBLK
  0
BLOCK
  8
PKT_G
  2
SYM018
 70
    64
 10
0.0
 20
0.0
 30
0.0
  3
Brechpunkt
  0
CIRCLE
  8
PKT_G
 10
0.0
 20
0.0
 30
0.0
 40
0.09
  0
ENDBLK
  0
BLOCK
  8
PKT_G
  2
SYM019
 70
    64
 10
0.0
 20
0.0
 30
0.0
  3
Abm. zurueckgest.
  0
CIRCLE
  8
PKT_G
 10
0.0
 20
0.0
 30
0.0
 40
0.09
  0
ENDBLK
  0
BLOCK
  8
PKT_G
  2
SYM030
 70
    64
 10
0.0
 20
0.0
 30
0.0
  3
Grenzkreuz
  0
CIRCLE
  8
PKT_G
 10
0.0
 20
0.0
 30
0.0
 40
0.61
  0
LINE
  8
PKT_G
 10
-0.43
 20
-0.43
 30
0.0
 11
-0.85
 21
-0.85
 31
0.0
  0
LINE
  8
PKT_G
 10
0.43
 20
-0.43
 30
0.0
 11
0.85
 21
-0.85
 31
0.0
  0
LINE
  8
PKT_G
 10
0.43
 20
0.43
 30
0.0
 11
0.85
 21
0.85
 31
0.0
  0
LINE
  8
PKT_G
 10
-0.43
 20
0.43
 30
0.0
 11
-0.85
 21
0.85
 31
0.0
  0
ENDBLK
  0
BLOCK
  8
PKT_G
  2
SYM031
 70
    64
 10
0.0
 20
0.0
 30
0.0
  3
Feldstein
  0
CIRCLE
  8
PKT_G
 10
0.0
 20
0.0
 30
0.0
 40
0.61
  0
LINE
  8
PKT_G
 10
-0.35
 20
0.5
 30
0.0
 11
-0.35
 21
1.45
 31
0.0
  0
LINE
  8
PKT_G
 10
0.35
 20
0.5
 30
0.0
 11
0.35
 21
1.45
 31
0.0
  0
ARC
  8
PKT_G
 10
0.0
 20
1.45
 30
0.0
 40
0.35
 50
0.0
 51
180.0
  0
ENDBLK
  0
BLOCK
  8
PKT_G
  2
SYM032
 70
    64
 10
0.0
 20
0.0
 30
0.0
  3
Grenzpflock
  0
CIRCLE
  8
PKT_G
 10
0.0
 20
0.0
 30
0.0
 40
0.61
  0
LINE
  8
PKT_G
 10
0.0
 20
0.61
 30
0.0
 11
0.0
 21
1.7
 31
0.0
  0
ENDBLK
  0
BLOCK
  8
PKT_G
  2
SYM036
 70
    64
 10
0.0
 20
0.0
 30
0.0
  3
Grenzbaum (Laub)
  0
CIRCLE
  8
PKT_G
 10
0.0
 20
0.0
 30
0.0
 40
0.61
  0
LINE
  8
PKT_G
 10
0.0
 20
0.61
 30
0.0
 11
0.0
 21
2.0
 31
0.0
  0
ARC
  8
PKT_G
 10
0.0
 20
3.2
 30
0.0
 40
1.2
 50
270.0
 51
223.58
  0
ENDBLK
  0
BLOCK
  8
PKT_G
  2
SYM037
 70
    64
 10
0.0
 20
0.0
 30
0.0
  3
Grenzbaum (Nadel)
  0
CIRCLE
  8
PKT_G
 10
0.0
 20
0.0
 30
0.0
 40
0.61
  0
LINE
  8
PKT_G
 10
0.0
 20
0.61
 30
0.0
 11
0.0
 21
1.9
 31
0.0
  0
LINE
  8
PKT_G
 10
0.0
 20
1.9
 30
0.0
 11
0.9
 21
1.9
 31
0.0
  0
LINE
  8
PKT_G
 10
0.9
 20
1.9
 30
0.0
 11
0.0
 21
4.6
 31
0.0
  0
LINE
  8
PKT_G
 10
0.0
 20
4.6
 30
0.0
 11
-0.9
 21
1.9
 31
0.0
  0
ENDBLK
  0
BLOCK
  8
PKT_D
  2
D_SYM000
 70
    64
 10
0.0
 20
0.0
 30
0.0
  3
Grenzpunkt allgemein
  0
CIRCLE
  8
PKT_D
 10
0.0
 20
0.0
 30
0.0
 40
0.61
  0
ENDBLK
  0
BLOCK
  8
PKT_D
  2
D_SYM001
 70
    64
 10
0.0
 20
0.0
 30
0.0
  3
T-Bodenp.
  0
CIRCLE
  8
PKT_D
 10
0.0
 20
0.0
 30
0.0
 40
0.91
  0
LINE
  8
PKT_D
 10
-1.58
 20
-0.92
 30
0.0
 11
0.0
 21
1.82
 31
0.0
  0
LINE
  8
PKT_D
 10
0.0
 20
1.82
 30
0.0
 11
1.58
 21
-0.92
 31
0.0
  0
LINE
  8
PKT_D
 10
1.58
 20
-0.92
 30
0.0
 11
-1.58
 21
-0.92
 31
0.0
  0
ENDBLK
  0
BLOCK
  8
PKT_D
  2
D_SYM002
 70
    64
 10
0.0
 20
0.0
 30
0.0
  3
T-Hochp.
  0
CIRCLE
  8
PKT_D
 10
0.0
 20
0.0
 30
0.0
 40
0.91
  0
ENDBLK
  0
BLOCK
  8
PKT_D
  2
D_SYM003
 70
    64
 10
0.0
 20
0.0
 30
0.0
  3
KFP
  0
CIRCLE
  8
PKT_D
 10
0.0
 20
0.0
 30
0.0
 40
0.91
  0
ENDBLK
  0
BLOCK
  8
PKT_D
  2
D_SYM004
 70
    64
 10
0.0
 20
0.0
 30
0.0
  3
Pfeilerbolzen
  0
CIRCLE
  8
PKT_D
 10
0.0
 20
0.0
 30
0.0
 40
0.91
  0
CIRCLE
  8
PKT_D
 10
0.0
 20
0.0
 30
0.0
 40
0.41
  0
ENDBLK
  0
BLOCK
  8
PKT_D
  2
D_SYM005
 70
    64
 10
0.0
 20
0.0
 30
0.0
  3
Mauerbolzen
  0
INSERT
  8
PKT_D
  2
D_SYM004
 10
0.0
 20
0.0
 30
0.0
  0
ENDBLK
  0
BLOCK
  8
PKT_D
  2
D_SYM010
 70
    64
 10
0.0
 20
0.0
 30
0.0
  3
Grenzstein
  0
LINE
  8
PKT_D
 10
-0.83
 20
-0.83
 30
0.0
 11
-0.83
 21
0.83
 31
0.0
  0
LINE
  8
PKT_D
 10
-0.83
 20
0.83
 30
0.0
 11
0.83
 21
0.83
 31
0.0
  0
LINE
  8
PKT_D
 10
0.83
 20
0.83
 30
0.0
 11
0.83
 21
-0.83
 31
0.0
  0
LINE
  8
PKT_D
 10
0.83
 20
-0.83
 30
0.0
 11
-0.83
 21
-0.83
 31
0.0
  0
ENDBLK
  0
BLOCK
  8
PKT_D
  2
D_SYM011
 70
    64
 10
0.0
 20
0.0
 30
0.0
  3
Gz. a. Kunststoff
  0
CIRCLE
  8
PKT_D
 10
0.0
 20
0.0
 30
0.0
 40
0.61
  0
ENDBLK
  0
BLOCK
  8
PKT_D
  2
D_SYM012
 70
    64
 10
0.0
 20
0.0
 30
0.0
  3
Grenznagel
  0
CIRCLE
  8
PKT_D
 10
0.0
 20
0.0
 30
0.0
 40
0.61
  0
LINE
  8
PKT_D
 10
0.0
 20
0.61
 30
0.0
 11
0.0
 21
1.55
 31
0.0
  0
LINE
  8
PKT_D
 10
-0.61
 20
1.55
 30
0.0
 11
0.61
 21
1.55
 31
0.0
  0
ENDBLK
  0
BLOCK
  8
PKT_D
  2
D_SYM013
 70
    64
 10
0.0
 20
0.0
 30
0.0
  3
Grenzrohr
  0
CIRCLE
  8
PKT_D
 10
0.0
 20
0.0
 30
0.0
 40
0.61
  0
LINE
  8
PKT_D
 10
0.0
 20
0.61
 30
0.0
 11
0.0
 21
0.3
 31
0.0
  0
LINE
  8
PKT_D
 10
0.61
 20
0.0
 30
0.0
 11
0.3
 21
0.0
 31
0.0
  0
LINE
  8
PKT_D
 10
0.0
 20
-0.61
 30
0.0
 11
0.0
 21
-0.3
 31
0.0
  0
LINE
  8
PKT_D
 10
-0.61
 20
0.0
 30
0.0
 11
-0.3
 21
0.0
 31
0.0
  0
ENDBLK
  0
BLOCK
  8
PKT_D
  2
D_SYM014
 70
    64
 10
0.0
 20
0.0
 30
0.0
  3
Grenzkreuz
  0
CIRCLE
  8
PKT_D
 10
0.0
 20
0.0
 30
0.0
 40
0.61
  0
LINE
  8
PKT_D
 10
-0.43
 20
-0.43
 30
0.0
 11
-0.85
 21
-0.85
 31
0.0
  0
LINE
  8
PKT_D
 10
0.43
 20
-0.43
 30
0.0
 11
0.85
 21
-0.85
 31
0.0
  0
LINE
  8
PKT_D
 10
0.43
 20
0.43
 30
0.0
 11
0.85
 21
0.85
 31
0.0
  0
LINE
  8
PKT_D
 10
-0.43
 20
0.43
 30
0.0
 11
-0.85
 21
0.85
 31
0.0
  0
ENDBLK
  0
BLOCK
  8
PKT_D
  2
D_SYM015
 70
    64
 10
0.0
 20
0.0
 30
0.0
  3
Feldstein
  0
CIRCLE
  8
PKT_D
 10
0.0
 20
0.0
 30
0.0
 40
0.61
  0
LINE
  8
PKT_D
 10
-0.35
 20
0.5
 30
0.0
 11
-0.35
 21
1.45
 31
0.0
  0
LINE
  8
PKT_D
 10
0.35
 20
0.5
 30
0.0
 11
0.35
 21
1.45
 31
0.0
  0
ARC
  8
PKT_D
 10
0.0
 20
1.45
 30
0.0
 40
0.35
 50
0.0
 51
180.0
  0
ENDBLK
  0
BLOCK
  8
PKT_D
  2
D_SYM016
 70
    64
 10
0.0
 20
0.0
 30
0.0
  3
Grenzpflock
  0
CIRCLE
  8
PKT_D
 10
0.0
 20
0.0
 30
0.0
 40
0.61
  0
LINE
  8
PKT_D
 10
0.0
 20
0.61
 30
0.0
 11
0.0
 21
1.7
 31
0.0
  0
ENDBLK
  0
BLOCK
  8
PKT_D
  2
D_SYM017
 70
    64
 10
0.0
 20
0.0
 30
0.0
  3
Mz. Uferl.
  0
CIRCLE
  8
PKT_D
 10
0.0
 20
0.0
 30
0.0
 40
0.61
  0
ENDBLK
  0
BLOCK
  8
PKT_D
  2
D_SYM018
 70
    64
 10
0.0
 20
0.0
 30
0.0
  3
Brechpunkt
  0
CIRCLE
  8
PKT_D
 10
0.0
 20
0.0
 30
0.0
 40
0.09
  0
ENDBLK
  0
BLOCK
  8
PKT_D
  2
D_SYM019
 70
    64
 10
0.0
 20
0.0
 30
0.0
  3
Abm. zurueckgest.
  0
CIRCLE
  8
PKT_D
 10
0.0
 20
0.0
 30
0.0
 40
0.09
  0
ENDBLK
  0
BLOCK
  8
PKT_D
  2
D_SYM030
 70
    64
 10
0.0
 20
0.0
 30
0.0
  3
Grenzkreuz
  0
CIRCLE
  8
PKT_D
 10
0.0
 20
0.0
 30
0.0
 40
0.61
  0
LINE
  8
PKT_D
 10
-0.43
 20
-0.43
 30
0.0
 11
-0.85
 21
-0.85
 31
0.0
  0
LINE
  8
PKT_D
 10
0.43
 20
-0.43
 30
0.0
 11
0.85
 21
-0.85
 31
0.0
  0
LINE
  8
PKT_D
 10
0.43
 20
0.43
 30
0.0
 11
0.85
 21
0.85
 31
0.0
  0
LINE
  8
PKT_D
 10
-0.43
 20
0.43
 30
0.0
 11
-0.85
 21
0.85
 31
0.0
  0
ENDBLK
  0
BLOCK
  8
PKT_D
  2
D_SYM031
 70
    64
 10
0.0
 20
0.0
 30
0.0
  3
Feldstein
  0
CIRCLE
  8
PKT_D
 10
0.0
 20
0.0
 30
0.0
 40
0.61
  0
LINE
  8
PKT_D
 10
-0.35
 20
0.5
 30
0.0
 11
-0.35
 21
1.45
 31
0.0
  0
LINE
  8
PKT_D
 10
0.35
 20
0.5
 30
0.0
 11
0.35
 21
1.45
 31
0.0
  0
ARC
  8
PKT_D
 10
0.0
 20
1.45
 30
0.0
 40
0.35
 50
0.0
 51
180.0
  0
ENDBLK
  0
BLOCK
  8
PKT_D
  2
D_SYM032
 70
    64
 10
0.0
 20
0.0
 30
0.0
  3
Grenzpflock
  0
CIRCLE
  8
PKT_D
 10
0.0
 20
0.0
 30
0.0
 40
0.61
  0
LINE
  8
PKT_D
 10
0.0
 20
0.61
 30
0.0
 11
0.0
 21
1.7
 31
0.0
  0
ENDBLK
  0
BLOCK
  8
PKT_D
  2
D_SYM036
 70
    64
 10
0.0
 20
0.0
 30
0.0
  3
Grenzbaum (Laub)
  0
CIRCLE
  8
PKT_D
 10
0.0
 20
0.0
 30
0.0
 40
0.61
  0
LINE
  8
PKT_D
 10
0.0
 20
0.61
 30
0.0
 11
0.0
 21
2.0
 31
0.0
  0
ARC
  8
PKT_D
 10
0.0
 20
3.2
 30
0.0
 40
1.2
 50
270.0
 51
223.58
  0
ENDBLK
  0
BLOCK
  8
PKT_D
  2
D_SYM037
 70
    64
 10
0.0
 20
0.0
 30
0.0
  3
Grenzbaum (Nadel)
  0
CIRCLE
  8
PKT_D
 10
0.0
 20
0.0
 30
0.0
 40
0.61
  0
LINE
  8
PKT_D
 10
0.0
 20
0.61
 30
0.0
 11
0.0
 21
1.9
 31
0.0
  0
LINE
  8
PKT_D
 10
0.0
 20
1.9
 30
0.0
 11
0.9
 21
1.9
 31
0.0
  0
LINE
  8
PKT_D
 10
0.9
 20
1.9
 30
0.0
 11
0.0
 21
4.6
 31
0.0
  0
LINE
  8
PKT_D
 10
0.0
 20
4.6
 30
0.0
 11
-0.9
 21
1.9
 31
0.0
  0
ENDBLK
  0
BLOCK
  8
PKT_DIG
  2
DIG_SYM000
 70
    64
 10
0.0
 20
0.0
 30
0.0
  3
Grenzpunkt allgemein
  0
CIRCLE
  8
PKT_DIG
 10
0.0
 20
0.0
 30
0.0
 40
0.61
  0
ENDBLK
  0
BLOCK
  8
PKT_DIG
  2
DIG_SYM001
 70
    64
 10
0.0
 20
0.0
 30
0.0
  3
T-Bodenp.
  0
CIRCLE
  8
PKT_DIG
 10
0.0
 20
0.0
 30
0.0
 40
0.91
  0
LINE
  8
PKT_DIG
 10
-1.58
 20
-0.92
 30
0.0
 11
0.0
 21
1.82
 31
0.0
  0
LINE
  8
PKT_DIG
 10
0.0
 20
1.82
 30
0.0
 11
1.58
 21
-0.92
 31
0.0
  0
LINE
  8
PKT_DIG
 10
1.58
 20
-0.92
 30
0.0
 11
-1.58
 21
-0.92
 31
0.0
  0
ENDBLK
  0
BLOCK
  8
PKT_DIG
  2
DIG_SYM002
 70
    64
 10
0.0
 20
0.0
 30
0.0
  3
T-Hochp.
  0
CIRCLE
  8
PKT_DIG
 10
0.0
 20
0.0
 30
0.0
 40
0.91
  0
ENDBLK
  0
BLOCK
  8
PKT_DIG
  2
DIG_SYM003
 70
    64
 10
0.0
 20
0.0
 30
0.0
  3
KFP
  0
CIRCLE
  8
PKT_DIG
 10
0.0
 20
0.0
 30
0.0
 40
0.91
  0
ENDBLK
  0
BLOCK
  8
PKT_DIG
  2
DIG_SYM004
 70
    64
 10
0.0
 20
0.0
 30
0.0
  3
Pfeilerbolzen
  0
CIRCLE
  8
PKT_DIG
 10
0.0
 20
0.0
 30
0.0
 40
0.91
  0
CIRCLE
  8
PKT_DIG
 10
0.0
 20
0.0
 30
0.0
 40
0.41
  0
ENDBLK
  0
BLOCK
  8
PKT_DIG
  2
DIG_SYM005
 70
    64
 10
0.0
 20
0.0
 30
0.0
  3
Mauerbolzen
  0
INSERT
  8
PKT_DIG
  2
DIG_SYM004
 10
0.0
 20
0.0
 30
0.0
  0
ENDBLK
  0
BLOCK
  8
PKT_DIG
  2
DIG_SYM010
 70
    64
 10
0.0
 20
0.0
 30
0.0
  3
Grenzstein
  0
LINE
  8
PKT_DIG
 10
-0.83
 20
-0.83
 30
0.0
 11
-0.83
 21
0.83
 31
0.0
  0
LINE
  8
PKT_DIG
 10
-0.83
 20
0.83
 30
0.0
 11
0.83
 21
0.83
 31
0.0
  0
LINE
  8
PKT_DIG
 10
0.83
 20
0.83
 30
0.0
 11
0.83
 21
-0.83
 31
0.0
  0
LINE
  8
PKT_DIG
 10
0.83
 20
-0.83
 30
0.0
 11
-0.83
 21
-0.83
 31
0.0
  0
ENDBLK
  0
BLOCK
  8
PKT_DIG
  2
DIG_SYM011
 70
    64
 10
0.0
 20
0.0
 30
0.0
  3
Gz. a. Kunststoff
  0
CIRCLE
  8
PKT_DIG
 10
0.0
 20
0.0
 30
0.0
 40
0.61
  0
ENDBLK
  0
BLOCK
  8
PKT_DIG
  2
DIG_SYM012
 70
    64
 10
0.0
 20
0.0
 30
0.0
  3
Grenznagel
  0
CIRCLE
  8
PKT_DIG
 10
0.0
 20
0.0
 30
0.0
 40
0.61
  0
LINE
  8
PKT_DIG
 10
0.0
 20
0.61
 30
0.0
 11
0.0
 21
1.55
 31
0.0
  0
LINE
  8
PKT_DIG
 10
-0.61
 20
1.55
 30
0.0
 11
0.61
 21
1.55
 31
0.0
  0
ENDBLK
  0
BLOCK
  8
PKT_DIG
  2
DIG_SYM013
 70
    64
 10
0.0
 20
0.0
 30
0.0
  3
Grenzrohr
  0
CIRCLE
  8
PKT_DIG
 10
0.0
 20
0.0
 30
0.0
 40
0.61
  0
LINE
  8
PKT_DIG
 10
0.0
 20
0.61
 30
0.0
 11
0.0
 21
0.3
 31
0.0
  0
LINE
  8
PKT_DIG
 10
0.61
 20
0.0
 30
0.0
 11
0.3
 21
0.0
 31
0.0
  0
LINE
  8
PKT_DIG
 10
0.0
 20
-0.61
 30
0.0
 11
0.0
 21
-0.3
 31
0.0
  0
LINE
  8
PKT_DIG
 10
-0.61
 20
0.0
 30
0.0
 11
-0.3
 21
0.0
 31
0.0
  0
ENDBLK
  0
BLOCK
  8
PKT_DIG
  2
DIG_SYM014
 70
    64
 10
0.0
 20
0.0
 30
0.0
  3
Grenzkreuz
  0
CIRCLE
  8
PKT_DIG
 10
0.0
 20
0.0
 30
0.0
 40
0.61
  0
LINE
  8
PKT_DIG
 10
-0.43
 20
-0.43
 30
0.0
 11
-0.85
 21
-0.85
 31
0.0
  0
LINE
  8
PKT_DIG
 10
0.43
 20
-0.43
 30
0.0
 11
0.85
 21
-0.85
 31
0.0
  0
LINE
  8
PKT_DIG
 10
0.43
 20
0.43
 30
0.0
 11
0.85
 21
0.85
 31
0.0
  0
LINE
  8
PKT_DIG
 10
-0.43
 20
0.43
 30
0.0
 11
-0.85
 21
0.85
 31
0.0
  0
ENDBLK
  0
BLOCK
  8
PKT_DIG
  2
DIG_SYM015
 70
    64
 10
0.0
 20
0.0
 30
0.0
  3
Feldstein
  0
CIRCLE
  8
PKT_DIG
 10
0.0
 20
0.0
 30
0.0
 40
0.61
  0
LINE
  8
PKT_DIG
 10
-0.35
 20
0.5
 30
0.0
 11
-0.35
 21
1.45
 31
0.0
  0
LINE
  8
PKT_DIG
 10
0.35
 20
0.5
 30
0.0
 11
0.35
 21
1.45
 31
0.0
  0
ARC
  8
PKT_DIG
 10
0.0
 20
1.45
 30
0.0
 40
0.35
 50
0.0
 51
180.0
  0
ENDBLK
  0
BLOCK
  8
PKT_DIG
  2
DIG_SYM016
 70
    64
 10
0.0
 20
0.0
 30
0.0
  3
Grenzpflock
  0
CIRCLE
  8
PKT_DIG
 10
0.0
 20
0.0
 30
0.0
 40
0.61
  0
LINE
  8
PKT_DIG
 10
0.0
 20
0.61
 30
0.0
 11
0.0
 21
1.7
 31
0.0
  0
ENDBLK
  0
BLOCK
  8
PKT_DIG
  2
DIG_SYM017
 70
    64
 10
0.0
 20
0.0
 30
0.0
  3
Mz. Uferl.
  0
CIRCLE
  8
PKT_DIG
 10
0.0
 20
0.0
 30
0.0
 40
0.61
  0
ENDBLK
  0
BLOCK
  8
PKT_DIG
  2
DIG_SYM018
 70
    64
 10
0.0
 20
0.0
 30
0.0
  3
Brechpunkt
  0
CIRCLE
  8
PKT_DIG
 10
0.0
 20
0.0
 30
0.0
 40
0.09
  0
ENDBLK
  0
BLOCK
  8
PKT_DIG
  2
DIG_SYM019
 70
    64
 10
0.0
 20
0.0
 30
0.0
  3
Abm. zurueckgest.
  0
CIRCLE
  8
PKT_DIG
 10
0.0
 20
0.0
 30
0.0
 40
0.09
  0
ENDBLK
  0
BLOCK
  8
PKT_DIG
  2
DIG_SYM030
 70
    64
 10
0.0
 20
0.0
 30
0.0
  3
Grenzkreuz
  0
CIRCLE
  8
PKT_DIG
 10
0.0
 20
0.0
 30
0.0
 40
0.61
  0
LINE
  8
PKT_DIG
 10
-0.43
 20
-0.43
 30
0.0
 11
-0.85
 21
-0.85
 31
0.0
  0
LINE
  8
PKT_DIG
 10
0.43
 20
-0.43
 30
0.0
 11
0.85
 21
-0.85
 31
0.0
  0
LINE
  8
PKT_DIG
 10
0.43
 20
0.43
 30
0.0
 11
0.85
 21
0.85
 31
0.0
  0
LINE
  8
PKT_DIG
 10
-0.43
 20
0.43
 30
0.0
 11
-0.85
 21
0.85
 31
0.0
  0
ENDBLK
  0
BLOCK
  8
PKT_DIG
  2
DIG_SYM031
 70
    64
 10
0.0
 20
0.0
 30
0.0
  3
Feldstein
  0
CIRCLE
  8
PKT_DIG
 10
0.0
 20
0.0
 30
0.0
 40
0.61
  0
LINE
  8
PKT_DIG
 10
-0.35
 20
0.5
 30
0.0
 11
-0.35
 21
1.45
 31
0.0
  0
LINE
  8
PKT_DIG
 10
0.35
 20
0.5
 30
0.0
 11
0.35
 21
1.45
 31
0.0
  0
ARC
  8
PKT_DIG
 10
0.0
 20
1.45
 30
0.0
 40
0.35
 50
0.0
 51
180.0
  0
ENDBLK
  0
BLOCK
  8
PKT_DIG
  2
DIG_SYM032
 70
    64
 10
0.0
 20
0.0
 30
0.0
  3
Grenzpflock
  0
CIRCLE
  8
PKT_DIG
 10
0.0
 20
0.0
 30
0.0
 40
0.61
  0
LINE
  8
PKT_DIG
 10
0.0
 20
0.61
 30
0.0
 11
0.0
 21
1.7
 31
0.0
  0
ENDBLK
  0
BLOCK
  8
PKT_DIG
  2
DIG_SYM036
 70
    64
 10
0.0
 20
0.0
 30
0.0
  3
Grenzbaum (Laub)
  0
CIRCLE
  8
PKT_DIG
 10
0.0
 20
0.0
 30
0.0
 40
0.61
  0
LINE
  8
PKT_DIG
 10
0.0
 20
0.61
 30
0.0
 11
0.0
 21
2.0
 31
0.0
  0
ARC
  8
PKT_DIG
 10
0.0
 20
3.2
 30
0.0
 40
1.2
 50
270.0
 51
223.58
  0
ENDBLK
  0
BLOCK
  8
PKT_DIG
  2
DIG_SYM037
 70
    64
 10
0.0
 20
0.0
 30
0.0
  3
Grenzbaum (Nadel)
  0
CIRCLE
  8
PKT_DIG
 10
0.0
 20
0.0
 30
0.0
 40
0.61
  0
LINE
  8
PKT_DIG
 10
0.0
 20
0.61
 30
0.0
 11
0.0
 21
1.9
 31
0.0
  0
LINE
  8
PKT_DIG
 10
0.0
 20
1.9
 30
0.0
 11
0.9
 21
1.9
 31
0.0
  0
LINE
  8
PKT_DIG
 10
0.9
 20
1.9
 30
0.0
 11
0.0
 21
4.6
 31
0.0
  0
LINE
  8
PKT_DIG
 10
0.0
 20
4.6
 30
0.0
 11
-0.9
 21
1.9
 31
0.0
  0
ENDBLK
  0
BLOCK
  8
PKT_G_OD
  2
SYM_OD000
 70
    64
 10
0.0
 20
0.0
 30
0.0
  3
Grenzpunkt allgemein
  0
CIRCLE
  8
PKT_G_OD
 10
0.0
 20
0.0
 30
0.0
 40
0.61
  0
ENDBLK
  0
BLOCK
  8
PKT_G_OD
  2
SYM_OD001
 70
    64
 10
0.0
 20
0.0
 30
0.0
  3
T-Bodenp.
  0
CIRCLE
  8
PKT_G_OD
 10
0.0
 20
0.0
 30
0.0
 40
0.91
  0
LINE
  8
PKT_G_OD
 10
-1.58
 20
-0.92
 30
0.0
 11
0.0
 21
1.82
 31
0.0
  0
LINE
  8
PKT_G_OD
 10
0.0
 20
1.82
 30
0.0
 11
1.58
 21
-0.92
 31
0.0
  0
LINE
  8
PKT_G_OD
 10
1.58
 20
-0.92
 30
0.0
 11
-1.58
 21
-0.92
 31
0.0
  0
ENDBLK
  0
BLOCK
  8
PKT_G_OD
  2
SYM_OD002
 70
    64
 10
0.0
 20
0.0
 30
0.0
  3
T-Hochp.
  0
CIRCLE
  8
PKT_G_OD
 10
0.0
 20
0.0
 30
0.0
 40
0.91
  0
ENDBLK
  0
BLOCK
  8
PKT_G_OD
  2
SYM_OD003
 70
    64
 10
0.0
 20
0.0
 30
0.0
  3
KFP
  0
CIRCLE
  8
PKT_G_OD
 10
0.0
 20
0.0
 30
0.0
 40
0.91
  0
ENDBLK
  0
BLOCK
  8
PKT_G_OD
  2
SYM_OD004
 70
    64
 10
0.0
 20
0.0
 30
0.0
  3
Pfeilerbolzen
  0
CIRCLE
  8
PKT_G_OD
 10
0.0
 20
0.0
 30
0.0
 40
0.91
  0
CIRCLE
  8
PKT_G_OD
 10
0.0
 20
0.0
 30
0.0
 40
0.41
  0
ENDBLK
  0
BLOCK
  8
PKT_G_OD
  2
SYM_OD005
 70
    64
 10
0.0
 20
0.0
 30
0.0
  3
Mauerbolzen
  0
INSERT
  8
PKT_G_OD
  2
SYM_OD004
 10
0.0
 20
0.0
 30
0.0
  0
ENDBLK
  0
BLOCK
  8
PKT_G_OD
  2
SYM_OD010
 70
    64
 10
0.0
 20
0.0
 30
0.0
  3
Grenzstein
  0
LINE
  8
PKT_G_OD
 10
-0.83
 20
-0.83
 30
0.0
 11
-0.83
 21
0.83
 31
0.0
  0
LINE
  8
PKT_G_OD
 10
-0.83
 20
0.83
 30
0.0
 11
0.83
 21
0.83
 31
0.0
  0
LINE
  8
PKT_G_OD
 10
0.83
 20
0.83
 30
0.0
 11
0.83
 21
-0.83
 31
0.0
  0
LINE
  8
PKT_G_OD
 10
0.83
 20
-0.83
 30
0.0
 11
-0.83
 21
-0.83
 31
0.0
  0
ENDBLK
  0
BLOCK
  8
PKT_G_OD
  2
SYM_OD011
 70
    64
 10
0.0
 20
0.0
 30
0.0
  3
Gz. a. Kunststoff
  0
CIRCLE
  8
PKT_G_OD
 10
0.0
 20
0.0
 30
0.0
 40
0.61
  0
ENDBLK
  0
BLOCK
  8
PKT_G_OD
  2
SYM_OD012
 70
    64
 10
0.0
 20
0.0
 30
0.0
  3
Grenznagel
  0
CIRCLE
  8
PKT_G_OD
 10
0.0
 20
0.0
 30
0.0
 40
0.61
  0
LINE
  8
PKT_G_OD
 10
0.0
 20
0.61
 30
0.0
 11
0.0
 21
1.55
 31
0.0
  0
LINE
  8
PKT_G_OD
 10
-0.61
 20
1.55
 30
0.0
 11
0.61
 21
1.55
 31
0.0
  0
ENDBLK
  0
BLOCK
  8
PKT_G_OD
  2
SYM_OD013
 70
    64
 10
0.0
 20
0.0
 30
0.0
  3
Grenzrohr
  0
CIRCLE
  8
PKT_G_OD
 10
0.0
 20
0.0
 30
0.0
 40
0.61
  0
LINE
  8
PKT_G_OD
 10
0.0
 20
0.61
 30
0.0
 11
0.0
 21
0.3
 31
0.0
  0
LINE
  8
PKT_G_OD
 10
0.61
 20
0.0
 30
0.0
 11
0.3
 21
0.0
 31
0.0
  0
LINE
  8
PKT_G_OD
 10
0.0
 20
-0.61
 30
0.0
 11
0.0
 21
-0.3
 31
0.0
  0
LINE
  8
PKT_G_OD
 10
-0.61
 20
0.0
 30
0.0
 11
-0.3
 21
0.0
 31
0.0
  0
ENDBLK
  0
BLOCK
  8
PKT_G_OD
  2
SYM_OD014
 70
    64
 10
0.0
 20
0.0
 30
0.0
  3
Grenzkreuz
  0
CIRCLE
  8
PKT_G_OD
 10
0.0
 20
0.0
 30
0.0
 40
0.61
  0
LINE
  8
PKT_G_OD
 10
-0.43
 20
-0.43
 30
0.0
 11
-0.85
 21
-0.85
 31
0.0
  0
LINE
  8
PKT_G_OD
 10
0.43
 20
-0.43
 30
0.0
 11
0.85
 21
-0.85
 31
0.0
  0
LINE
  8
PKT_G_OD
 10
0.43
 20
0.43
 30
0.0
 11
0.85
 21
0.85
 31
0.0
  0
LINE
  8
PKT_G_OD
 10
-0.43
 20
0.43
 30
0.0
 11
-0.85
 21
0.85
 31
0.0
  0
ENDBLK
  0
BLOCK
  8
PKT_G_OD
  2
SYM_OD015
 70
    64
 10
0.0
 20
0.0
 30
0.0
  3
Feldstein
  0
CIRCLE
  8
PKT_G_OD
 10
0.0
 20
0.0
 30
0.0
 40
0.61
  0
LINE
  8
PKT_G_OD
 10
-0.35
 20
0.5
 30
0.0
 11
-0.35
 21
1.45
 31
0.0
  0
LINE
  8
PKT_G_OD
 10
0.35
 20
0.5
 30
0.0
 11
0.35
 21
1.45
 31
0.0
  0
ARC
  8
PKT_G_OD
 10
0.0
 20
1.45
 30
0.0
 40
0.35
 50
0.0
 51
180.0
  0
ENDBLK
  0
BLOCK
  8
PKT_G_OD
  2
SYM_OD016
 70
    64
 10
0.0
 20
0.0
 30
0.0
  3
Grenzpflock
  0
CIRCLE
  8
PKT_G_OD
 10
0.0
 20
0.0
 30
0.0
 40
0.61
  0
LINE
  8
PKT_G_OD
 10
0.0
 20
0.61
 30
0.0
 11
0.0
 21
1.7
 31
0.0
  0
ENDBLK
  0
BLOCK
  8
PKT_G_OD
  2
SYM_OD017
 70
    64
 10
0.0
 20
0.0
 30
0.0
  3
Mz. Uferl.
  0
CIRCLE
  8
PKT_G_OD
 10
0.0
 20
0.0
 30
0.0
 40
0.61
  0
ENDBLK
  0
BLOCK
  8
PKT_G_OD
  2
SYM_OD018
 70
    64
 10
0.0
 20
0.0
 30
0.0
  3
Brechpunkt
  0
CIRCLE
  8
PKT_G_OD
 10
0.0
 20
0.0
 30
0.0
 40
0.09
  0
ENDBLK
  0
BLOCK
  8
PKT_G_OD
  2
SYM_OD019
 70
    64
 10
0.0
 20
0.0
 30
0.0
  3
Abm. zurueckgest.
  0
CIRCLE
  8
PKT_G_OD
 10
0.0
 20
0.0
 30
0.0
 40
0.09
  0
ENDBLK
  0
BLOCK
  8
PKT_G_OD
  2
SYM_OD030
 70
    64
 10
0.0
 20
0.0
 30
0.0
  3
Grenzkreuz
  0
CIRCLE
  8
PKT_G_OD
 10
0.0
 20
0.0
 30
0.0
 40
0.61
  0
LINE
  8
PKT_G_OD
 10
-0.43
 20
-0.43
 30
0.0
 11
-0.85
 21
-0.85
 31
0.0
  0
LINE
  8
PKT_G_OD
 10
0.43
 20
-0.43
 30
0.0
 11
0.85
 21
-0.85
 31
0.0
  0
LINE
  8
PKT_G_OD
 10
0.43
 20
0.43
 30
0.0
 11
0.85
 21
0.85
 31
0.0
  0
LINE
  8
PKT_G_OD
 10
-0.43
 20
0.43
 30
0.0
 11
-0.85
 21
0.85
 31
0.0
  0
ENDBLK
  0
BLOCK
  8
PKT_G_OD
  2
SYM_OD031
 70
    64
 10
0.0
 20
0.0
 30
0.0
  3
Feldstein
  0
CIRCLE
  8
PKT_G_OD
 10
0.0
 20
0.0
 30
0.0
 40
0.61
  0
LINE
  8
PKT_G_OD
 10
-0.35
 20
0.5
 30
0.0
 11
-0.35
 21
1.45
 31
0.0
  0
LINE
  8
PKT_G_OD
 10
0.35
 20
0.5
 30
0.0
 11
0.35
 21
1.45
 31
0.0
  0
ARC
  8
PKT_G_OD
 10
0.0
 20
1.45
 30
0.0
 40
0.35
 50
0.0
 51
180.0
  0
ENDBLK
  0
BLOCK
  8
PKT_G_OD
  2
SYM_OD032
 70
    64
 10
0.0
 20
0.0
 30
0.0
  3
Grenzpflock
  0
CIRCLE
  8
PKT_G_OD
 10
0.0
 20
0.0
 30
0.0
 40
0.61
  0
LINE
  8
PKT_G_OD
 10
0.0
 20
0.61
 30
0.0
 11
0.0
 21
1.7
 31
0.0
  0
ENDBLK
  0
BLOCK
  8
PKT_G_OD
  2
SYM_OD036
 70
    64
 10
0.0
 20
0.0
 30
0.0
  3
Grenzbaum (Laub)
  0
CIRCLE
  8
PKT_G_OD
 10
0.0
 20
0.0
 30
0.0
 40
0.61
  0
LINE
  8
PKT_G_OD
 10
0.0
 20
0.61
 30
0.0
 11
0.0
 21
2.0
 31
0.0
  0
ARC
  8
PKT_G_OD
 10
0.0
 20
3.2
 30
0.0
 40
1.2
 50
270.0
 51
223.58
  0
ENDBLK
  0
BLOCK
  8
PKT_G_OD
  2
SYM_OD037
 70
    64
 10
0.0
 20
0.0
 30
0.0
  3
Grenzbaum (Nadel)
  0
CIRCLE
  8
PKT_G_OD
 10
0.0
 20
0.0
 30
0.0
 40
0.61
  0
LINE
  8
PKT_G_OD
 10
0.0
 20
0.61
 30
0.0
 11
0.0
 21
1.9
 31
0.0
  0
LINE
  8
PKT_G_OD
 10
0.0
 20
1.9
 30
0.0
 11
0.0
 21
1.9
 31
0.0
  0
LINE
  8
PKT_G_OD
 10
0.9
 20
1.9
 30
0.0
 11
0.0
 21
4.6
 31
0.0
  0
LINE
  8
PKT_G_OD
 10
0.0
 20
4.6
 30
0.0
 11
-0.9
 21
1.9
 31
0.0
  0
ENDBLK
  0
BLOCK
  8
PKT_D_OD
  2
D_SYM_OD000
 70
    64
 10
0.0
 20
0.0
 30
0.0
  3
Grenzpunkt allgemein
  0
CIRCLE
  8
PKT_D_OD
 10
0.0
 20
0.0
 30
0.0
 40
0.61
  0
ENDBLK
  0
BLOCK
  8
PKT_D_OD
  2
D_SYM_OD001
 70
    64
 10
0.0
 20
0.0
 30
0.0
  3
T-Bodenp.
  0
CIRCLE
  8
PKT_D_OD
 10
0.0
 20
0.0
 30
0.0
 40
0.91
  0
LINE
  8
PKT_D_OD
 10
-1.58
 20
-0.92
 30
0.0
 11
0.0
 21
1.82
 31
0.0
  0
LINE
  8
PKT_D_OD
 10
0.0
 20
1.82
 30
0.0
 11
1.58
 21
-0.92
 31
0.0
  0
LINE
  8
PKT_D_OD
 10
1.58
 20
-0.92
 30
0.0
 11
-1.58
 21
-0.92
 31
0.0
  0
ENDBLK
  0
BLOCK
  8
PKT_D_OD
  2
D_SYM_OD002
 70
    64
 10
0.0
 20
0.0
 30
0.0
  3
T-Hochp.
  0
CIRCLE
  8
PKT_D_OD
 10
0.0
 20
0.0
 30
0.0
 40
0.91
  0
ENDBLK
  0
BLOCK
  8
PKT_D_OD
  2
D_SYM_OD003
 70
    64
 10
0.0
 20
0.0
 30
0.0
  3
KFP
  0
CIRCLE
  8
PKT_D_OD
 10
0.0
 20
0.0
 30
0.0
 40
0.91
  0
ENDBLK
  0
BLOCK
  8
PKT_D_OD
  2
D_SYM_OD005
 70
    64
 10
0.0
 20
0.0
 30
0.0
  3
Mauerbolzen
  0
INSERT
  8
PKT_D_OD
  2
D_SYM_OD004
 10
0.0
 20
0.0
 30
0.0
  0
ENDBLK
  0
BLOCK
  8
PKT_D_OD
  2
D_SYM_OD004
 70
    64
 10
0.0
 20
0.0
 30
0.0
  3
Pfeilerbolzen
  0
CIRCLE
  8
PKT_D_OD
 10
0.0
 20
0.0
 30
0.0
 40
0.91
  0
CIRCLE
  8
PKT_D_OD
 10
0.0
 20
0.0
 30
0.0
 40
0.41
  0
ENDBLK
  0
BLOCK
  8
PKT_D_OD
  2
D_SYM_OD010
 70
    64
 10
0.0
 20
0.0
 30
0.0
  3
Grenzstein
  0
LINE
  8
PKT_D_OD
 10
-0.83
 20
-0.83
 30
0.0
 11
-0.83
 21
0.83
 31
0.0
  0
LINE
  8
PKT_D_OD
 10
-0.83
 20
0.83
 30
0.0
 11
0.83
 21
0.83
 31
0.0
  0
LINE
  8
PKT_D_OD
 10
0.83
 20
0.83
 30
0.0
 11
0.83
 21
-0.83
 31
0.0
  0
LINE
  8
PKT_D_OD
 10
0.83
 20
-0.83
 30
0.0
 11
-0.83
 21
-0.83
 31
0.0
  0
ENDBLK
  0
BLOCK
  8
PKT_D_OD
  2
D_SYM_OD011
 70
    64
 10
0.0
 20
0.0
 30
0.0
  3
Gz. a. Kunststoff
  0
CIRCLE
  8
PKT_D_OD
 10
0.0
 20
0.0
 30
0.0
 40
0.61
  0
ENDBLK
  0
BLOCK
  8
PKT_D_OD
  2
D_SYM_OD012
 70
    64
 10
0.0
 20
0.0
 30
0.0
  3
Grenznagel
  0
CIRCLE
  8
PKT_D_OD
 10
0.0
 20
0.0
 30
0.0
 40
0.61
  0
LINE
  8
PKT_D_OD
 10
0.0
 20
0.61
 30
0.0
 11
0.0
 21
1.55
 31
0.0
  0
LINE
  8
PKT_D_OD
 10
-0.61
 20
1.55
 30
0.0
 11
0.61
 21
1.55
 31
0.0
  0
ENDBLK
  0
BLOCK
  8
PKT_D_OD
  2
D_SYM_OD013
 70
    64
 10
0.0
 20
0.0
 30
0.0
  3
Grenzrohr
  0
CIRCLE
  8
PKT_D_OD
 10
0.0
 20
0.0
 30
0.0
 40
0.61
  0
LINE
  8
PKT_D_OD
 10
0.0
 20
0.61
 30
0.0
 11
0.0
 21
0.3
 31
0.0
  0
LINE
  8
PKT_D_OD
 10
0.61
 20
0.0
 30
0.0
 11
0.3
 21
0.0
 31
0.0
  0
LINE
  8
PKT_D_OD
 10
0.0
 20
-0.61
 30
0.0
 11
0.0
 21
-0.3
 31
0.0
  0
LINE
  8
PKT_D_OD
 10
-0.61
 20
0.0
 30
0.0
 11
-0.3
 21
0.0
 31
0.0
  0
ENDBLK
  0
BLOCK
  8
PKT_D_OD
  2
D_SYM_OD014
 70
    64
 10
0.0
 20
0.0
 30
0.0
  3
Grenzkreuz
  0
CIRCLE
  8
PKT_D_OD
 10
0.0
 20
0.0
 30
0.0
 40
0.61
  0
LINE
  8
PKT_D_OD
 10
-0.43
 20
-0.43
 30
0.0
 11
-0.85
 21
-0.85
 31
0.0
  0
LINE
  8
PKT_D_OD
 10
0.43
 20
-0.43
 30
0.0
 11
0.85
 21
-0.85
 31
0.0
  0
LINE
  8
PKT_D_OD
 10
0.43
 20
0.43
 30
0.0
 11
0.85
 21
0.85
 31
0.0
  0
LINE
  8
PKT_D_OD
 10
-0.43
 20
0.43
 30
0.0
 11
-0.85
 21
0.85
 31
0.0
  0
ENDBLK
  0
BLOCK
  8
PKT_D_OD
  2
D_SYM_OD015
 70
    64
 10
0.0
 20
0.0
 30
0.0
  3
Feldstein
  0
CIRCLE
  8
PKT_D_OD
 10
0.0
 20
0.0
 30
0.0
 40
0.61
  0
LINE
  8
PKT_D_OD
 10
-0.35
 20
0.5
 30
0.0
 11
-0.35
 21
1.45
 31
0.0
  0
LINE
  8
PKT_D_OD
 10
0.35
 20
0.5
 30
0.0
 11
0.35
 21
1.45
 31
0.0
  0
ARC
  8
PKT_D_OD
 10
0.0
 20
1.45
 30
0.0
 40
0.35
 50
0.0
 51
180.0
  0
ENDBLK
  0
BLOCK
  8
PKT_D_OD
  2
D_SYM_OD016
 70
    64
 10
0.0
 20
0.0
 30
0.0
  3
Grenzpflock
  0
CIRCLE
  8
PKT_D_OD
 10
0.0
 20
0.0
 30
0.0
 40
0.61
  0
LINE
  8
PKT_D_OD
 10
0.0
 20
0.61
 30
0.0
 11
0.0
 21
1.7
 31
0.0
  0
ENDBLK
  0
BLOCK
  8
PKT_D_OD
  2
D_SYM_OD017
 70
    64
 10
0.0
 20
0.0
 30
0.0
  3
Mz. Uferl.
  0
CIRCLE
  8
PKT_D_OD
 10
0.0
 20
0.0
 30
0.0
 40
0.61
  0
ENDBLK
  0
BLOCK
  8
PKT_D_OD
  2
D_SYM_OD018
 70
    64
 10
0.0
 20
0.0
 30
0.0
  3
Brechpunkt
  0
CIRCLE
  8
PKT_D_OD
 10
0.0
 20
0.0
 30
0.0
 40
0.09
  0
ENDBLK
  0
BLOCK
  8
PKT_D_OD
  2
D_SYM_OD019
 70
    64
 10
0.0
 20
0.0
 30
0.0
  3
Abm. zurueckgest.
  0
CIRCLE
  8
PKT_D_OD
 10
0.0
 20
0.0
 30
0.0
 40
0.09
  0
ENDBLK
  0
BLOCK
  8
PKT_D_OD
  2
D_SYM_OD030
 70
    64
 10
0.0
 20
0.0
 30
0.0
  3
Grenzkreuz
  0
CIRCLE
  8
PKT_D_OD
 10
0.0
 20
0.0
 30
0.0
 40
0.61
  0
LINE
  8
PKT_D_OD
 10
-0.43
 20
-0.43
 30
0.0
 11
-0.85
 21
-0.85
 31
0.0
  0
LINE
  8
PKT_D_OD
 10
0.43
 20
-0.43
 30
0.0
 11
0.85
 21
-0.85
 31
0.0
  0
LINE
  8
PKT_D_OD
 10
0.43
 20
0.43
 30
0.0
 11
0.85
 21
0.85
 31
0.0
  0
LINE
  8
PKT_D_OD
 10
-0.43
 20
0.43
 30
0.0
 11
-0.85
 21
0.85
 31
0.0
  0
ENDBLK
  0
BLOCK
  8
PKT_D_OD
  2
D_SYM_OD031
 70
    64
 10
0.0
 20
0.0
 30
0.0
  3
Feldstein
  0
CIRCLE
  8
PKT_D_OD
 10
0.0
 20
0.0
 30
0.0
 40
0.61
  0
LINE
  8
PKT_D_OD
 10
-0.35
 20
0.5
 30
0.0
 11
-0.35
 21
1.45
 31
0.0
  0
LINE
  8
PKT_D_OD
 10
0.35
 20
0.5
 30
0.0
 11
0.35
 21
1.45
 31
0.0
  0
ARC
  8
PKT_D_OD
 10
0.0
 20
1.45
 30
0.0
 40
0.35
 50
0.0
 51
180.0
  0
ENDBLK
  0
BLOCK
  8
PKT_D_OD
  2
D_SYM_OD032
 70
    64
 10
0.0
 20
0.0
 30
0.0
  3
Grenzpflock
  0
CIRCLE
  8
PKT_D_OD
 10
0.0
 20
0.0
 30
0.0
 40
0.61
  0
LINE
  8
PKT_D_OD
 10
0.0
 20
0.61
 30
0.0
 11
0.0
 21
1.7
 31
0.0
  0
ENDBLK
  0
BLOCK
  8
PKT_D_OD
  2
D_SYM_OD036
 70
    64
 10
0.0
 20
0.0
 30
0.0
  3
Grenzbaum (Laub)
  0
CIRCLE
  8
PKT_D_OD
 10
0.0
 20
0.0
 30
0.0
 40
0.61
  0
LINE
  8
PKT_D_OD
 10
0.0
 20
0.61
 30
0.0
 11
0.0
 21
2.0
 31
0.0
  0
ARC
  8
PKT_D_OD
 10
0.0
 20
3.2
 30
0.0
 40
1.2
 50
270.0
 51
223.58
  0
ENDBLK
  0
BLOCK
  8
PKT_D_OD
  2
D_SYM_OD037
 70
    64
 10
0.0
 20
0.0
 30
0.0
  3
Grenzbaum (Nadel)
  0
CIRCLE
  8
PKT_D_OD
 10
0.0
 20
0.0
 30
0.0
 40
0.61
  0
LINE
  8
PKT_D_OD
 10
0.0
 20
0.61
 30
0.0
 11
0.0
 21
1.9
 31
0.0
  0
LINE
  8
PKT_D_OD
 10
0.0
 20
1.9
 30
0.0
 11
0.9
 21
1.9
 31
0.0
  0
LINE
  8
PKT_D_OD
 10
0.9
 20
1.9
 30
0.0
 11
0.0
 21
4.6
 31
0.0
  0
LINE
  8
PKT_D_OD
 10
0.0
 20
4.6
 30
0.0
 11
-0.9
 21
1.9
 31
0.0
  0
ENDBLK
  0
BLOCK
  8
PKT_DIG_OD
  2
DIG_SYM_OD000
 70
    64
 10
0.0
 20
0.0
 30
0.0
  3
Grenzpunkt allgemein
  0
CIRCLE
  8
PKT_DIG_OD
 10
0.0
 20
0.0
 30
0.0
 40
0.61
  0
ENDBLK
  0
BLOCK
  8
PKT_DIG_OD
  2
DIG_SYM_OD001
 70
    64
 10
0.0
 20
0.0
 30
0.0
  3
T-Bodenp.
  0
CIRCLE
  8
PKT_DIG_OD
 10
0.0
 20
0.0
 30
0.0
 40
0.91
  0
LINE
  8
PKT_DIG_OD
 10
-1.58
 20
-0.92
 30
0.0
 11
0.0
 21
1.82
 31
0.0
  0
LINE
  8
PKT_DIG_OD
 10
0.0
 20
1.82
 30
0.0
 11
1.58
 21
-0.92
 31
0.0
  0
LINE
  8
PKT_DIG_OD
 10
1.58
 20
-0.92
 30
0.0
 11
-1.58
 21
-0.92
 31
0.0
  0
ENDBLK
  0
BLOCK
  8
PKT_DIG_OD
  2
DIG_SYM_OD002
 70
    64
 10
0.0
 20
0.0
 30
0.0
  3
T-Hochp.
  0
CIRCLE
  8
PKT_DIG_OD
 10
0.0
 20
0.0
 30
0.0
 40
0.91
  0
ENDBLK
  0
BLOCK
  8
PKT_DIG_OD
  2
DIG_SYM_OD003
 70
    64
 10
0.0
 20
0.0
 30
0.0
  3
KFP
  0
CIRCLE
  8
PKT_DIG_OD
 10
0.0
 20
0.0
 30
0.0
 40
0.91
  0
ENDBLK
  0
BLOCK
  8
PKT_DIG_OD
  2
DIG_SYM_OD004
 70
    64
 10
0.0
 20
0.0
 30
0.0
  3
Pfeilerbolzen
  0
CIRCLE
  8
PKT_DIG_OD
 10
0.0
 20
0.0
 30
0.0
 40
0.91
  0
CIRCLE
  8
PKT_DIG_OD
 10
0.0
 20
0.0
 30
0.0
 40
0.41
  0
ENDBLK
  0
BLOCK
  8
PKT_DIG_OD
  2
DIG_SYM_OD005
 70
    64
 10
0.0
 20
0.0
 30
0.0
  3
Mauerbolzen
  0
INSERT
  8
PKT_DIG_OD
  2
DIG_SYM_OD004
 10
0.0
 20
0.0
 30
0.0
  0
ENDBLK
  0
BLOCK
  8
PKT_DIG_OD
  2
DIG_SYM_OD010
 70
    64
 10
0.0
 20
0.0
 30
0.0
  3
Grenzstein
  0
LINE
  8
PKT_DIG_OD
 10
-0.83
 20
-0.83
 30
0.0
 11
-0.83
 21
0.83
 31
0.0
  0
LINE
  8
PKT_DIG_OD
 10
-0.83
 20
0.83
 30
0.0
 11
0.83
 21
0.83
 31
0.0
  0
LINE
  8
PKT_DIG_OD
 10
0.83
 20
0.83
 30
0.0
 11
0.83
 21
-0.83
 31
0.0
  0
LINE
  8
PKT_DIG_OD
 10
0.83
 20
-0.83
 30
0.0
 11
-0.83
 21
-0.83
 31
0.0
  0
ENDBLK
  0
BLOCK
  8
PKT_DIG_OD
  2
DIG_SYM_OD011
 70
    64
 10
0.0
 20
0.0
 30
0.0
  3
Gz. a. Kunststoff
  0
CIRCLE
  8
PKT_DIG_OD
 10
0.0
 20
0.0
 30
0.0
 40
0.61
  0
ENDBLK
  0
BLOCK
  8
PKT_DIG_OD
  2
DIG_SYM_OD012
 70
    64
 10
0.0
 20
0.0
 30
0.0
  3
Grenznagel
  0
CIRCLE
  8
PKT_DIG_OD
 10
0.0
 20
0.0
 30
0.0
 40
0.61
  0
LINE
  8
PKT_DIG_OD
 10
0.0
 20
0.61
 30
0.0
 11
0.0
 21
1.55
 31
0.0
  0
LINE
  8
PKT_DIG_OD
 10
-0.61
 20
1.55
 30
0.0
 11
0.61
 21
1.55
 31
0.0
  0
ENDBLK
  0
BLOCK
  8
PKT_DIG_OD
  2
DIG_SYM_OD013
 70
    64
 10
0.0
 20
0.0
 30
0.0
  3
Grenzrohr
  0
CIRCLE
  8
PKT_DIG_OD
 10
0.0
 20
0.0
 30
0.0
 40
0.61
  0
LINE
  8
PKT_DIG_OD
 10
0.0
 20
0.61
 30
0.0
 11
0.0
 21
0.3
 31
0.0
  0
LINE
  8
PKT_DIG_OD
 10
0.61
 20
0.0
 30
0.0
 11
0.3
 21
0.0
 31
0.0
  0
LINE
  8
PKT_DIG_OD
 10
0.0
 20
-0.61
 30
0.0
 11
0.0
 21
-0.3
 31
0.0
  0
LINE
  8
PKT_DIG_OD
 10
-0.61
 20
0.0
 30
0.0
 11
-0.3
 21
0.0
 31
0.0
  0
ENDBLK
  0
BLOCK
  8
PKT_DIG_OD
  2
DIG_SYM_OD014
 70
    64
 10
0.0
 20
0.0
 30
0.0
  3
Grenzkreuz
  0
CIRCLE
  8
PKT_DIG_OD
 10
0.0
 20
0.0
 30
0.0
 40
0.61
  0
LINE
  8
PKT_DIG_OD
 10
-0.43
 20
-0.43
 30
0.0
 11
-0.85
 21
-0.85
 31
0.0
  0
LINE
  8
PKT_DIG_OD
 10
0.43
 20
-0.43
 30
0.0
 11
0.85
 21
-0.85
 31
0.0
  0
LINE
  8
PKT_DIG_OD
 10
0.43
 20
0.43
 30
0.0
 11
0.85
 21
0.85
 31
0.0
  0
LINE
  8
PKT_DIG_OD
 10
-0.43
 20
0.43
 30
0.0
 11
-0.85
 21
0.85
 31
0.0
  0
ENDBLK
  0
BLOCK
  8
PKT_DIG_OD
  2
DIG_SYM_OD015
 70
    64
 10
0.0
 20
0.0
 30
0.0
  3
Feldstein
  0
CIRCLE
  8
PKT_DIG_OD
 10
0.0
 20
0.0
 30
0.0
 40
0.61
  0
LINE
  8
PKT_DIG_OD
 10
-0.35
 20
0.5
 30
0.0
 11
-0.35
 21
1.45
 31
0.0
  0
LINE
  8
PKT_DIG_OD
 10
0.35
 20
0.5
 30
0.0
 11
0.35
 21
1.45
 31
0.0
  0
ARC
  8
PKT_DIG_OD
 10
0.0
 20
1.45
 30
0.0
 40
0.35
 50
0.0
 51
180.0
  0
ENDBLK
  0
BLOCK
  8
PKT_DIG_OD
  2
DIG_SYM_OD016
 70
    64
 10
0.0
 20
0.0
 30
0.0
  3
Grenzpflock
  0
CIRCLE
  8
PKT_DIG_OD
 10
0.0
 20
0.0
 30
0.0
 40
0.61
  0
LINE
  8
PKT_DIG_OD
 10
0.0
 20
0.61
 30
0.0
 11
0.0
 21
1.7
 31
0.0
  0
ENDBLK
  0
BLOCK
  8
PKT_DIG_OD
  2
DIG_SYM_OD017
 70
    64
 10
0.0
 20
0.0
 30
0.0
  3
Mz. Uferl.
  0
CIRCLE
  8
PKT_DIG_OD
 10
0.0
 20
0.0
 30
0.0
 40
0.61
  0
ENDBLK
  0
BLOCK
  8
PKT_DIG_OD
  2
DIG_SYM_OD018
 70
    64
 10
0.0
 20
0.0
 30
0.0
  3
Brechpunkt
  0
CIRCLE
  8
PKT_DIG_OD
 10
0.0
 20
0.0
 30
0.0
 40
0.09
  0
ENDBLK
  0
BLOCK
  8
PKT_DIG_OD
  2
DIG_SYM_OD019
 70
    64
 10
0.0
 20
0.0
 30
0.0
  3
Abm. zurueckgest.
  0
CIRCLE
  8
PKT_DIG_OD
 10
0.0
 20
0.0
 30
0.0
 40
0.09
  0
ENDBLK
  0
BLOCK
  8
PKT_DIG_OD
  2
DIG_SYM_OD030
 70
    64
 10
0.0
 20
0.0
 30
0.0
  3
Grenzkreuz
  0
CIRCLE
  8
PKT_DIG_OD
 10
0.0
 20
0.0
 30
0.0
 40
0.61
  0
LINE
  8
PKT_DIG_OD
 10
-0.43
 20
-0.43
 30
0.0
 11
-0.85
 21
-0.85
 31
0.0
  0
LINE
  8
PKT_DIG_OD
 10
0.43
 20
-0.43
 30
0.0
 11
0.85
 21
-0.85
 31
0.0
  0
LINE
  8
PKT_DIG_OD
 10
0.43
 20
0.43
 30
0.0
 11
0.85
 21
0.85
 31
0.0
  0
LINE
  8
PKT_DIG_OD
 10
-0.43
 20
0.43
 30
0.0
 11
-0.85
 21
0.85
 31
0.0
  0
ENDBLK
  0
BLOCK
  8
PKT_DIG_OD
  2
DIG_SYM_OD031
 70
    64
 10
0.0
 20
0.0
 30
0.0
  3
Feldstein
  0
CIRCLE
  8
PKT_DIG_OD
 10
0.0
 20
0.0
 30
0.0
 40
0.61
  0
LINE
  8
PKT_DIG_OD
 10
-0.35
 20
0.5
 30
0.0
 11
-0.35
 21
1.45
 31
0.0
  0
LINE
  8
PKT_DIG_OD
 10
0.35
 20
0.5
 30
0.0
 11
0.35
 21
1.45
 31
0.0
  0
ARC
  8
PKT_DIG_OD
 10
0.0
 20
1.45
 30
0.0
 40
0.35
 50
0.0
 51
180.0
  0
ENDBLK
  0
BLOCK
  8
PKT_DIG_OD
  2
DIG_SYM_OD032
 70
    64
 10
0.0
 20
0.0
 30
0.0
  3
Grenzpflock
  0
CIRCLE
  8
PKT_DIG_OD
 10
0.0
 20
0.0
 30
0.0
 40
0.61
  0
LINE
  8
PKT_DIG_OD
 10
0.0
 20
0.61
 30
0.0
 11
0.0
 21
1.7
 31
0.0
  0
ENDBLK
  0
BLOCK
  8
PKT_DIG_OD
  2
DIG_SYM_OD036
 70
    64
 10
0.0
 20
0.0
 30
0.0
  3
Grenzbaum (Laub)
  0
CIRCLE
  8
PKT_DIG_OD
 10
0.0
 20
0.0
 30
0.0
 40
0.61
  0
LINE
  8
PKT_DIG_OD
 10
0.0
 20
0.61
 30
0.0
 11
0.0
 21
2.0
 31
0.0
  0
ARC
  8
PKT_DIG_OD
 10
0.0
 20
3.2
 30
0.0
 40
1.2
 50
270.0
 51
223.58
  0
ENDBLK
  0
BLOCK
  8
PKT_DIG_OD
  2
DIG_SYM_OD037
 70
    64
 10
0.0
 20
0.0
 30
0.0
  3
Grenzbaum (Nadel)
  0
CIRCLE
  8
PKT_DIG_OD
 10
0.0
 20
0.0
 30
0.0
 40
0.61
  0
LINE
  8
PKT_DIG_OD
 10
0.0
 20
0.61
 30
0.0
 11
0.0
 21
1.9
 31
0.0
  0
LINE
  8
PKT_DIG_OD
 10
0.0
 20
1.9
 30
0.0
 11
0.9
 21
1.9
 31
0.0
  0
LINE
  8
PKT_DIG_OD
 10
0.9
 20
1.9
 30
0.0
 11
0.0
 21
4.6
 31
0.0
  0
LINE
  8
PKT_DIG_OD
 10
0.0
 20
4.6
 30
0.0
 11
-0.9
 21
1.9
 31
0.0
  0
ENDBLK
  0
BLOCK
  8
MESST_SYM
  2
SYM040
 70
    64
 10
0.0
 20
0.0
 30
0.0
  3
Meßtischstandpunkt
  0
CIRCLE
  8
MESST_SYM
 10
0.0
 20
0.0
 30
0.0
 40
0.61
  0
LINE
  8
MESST_SYM
 10
0.0
 20
0.61
 30
0.0
 11
0.0
 21
5.0
 31
0.0
  0
POLYLINE
  8
MESST_SYM
 66
    1
 10
0.0
 20
0.0
 30
0.0
  0
VERTEX
  8
MESST_SYM
 10
0.0
 20
5.0
 30
0.0
  0
VERTEX
  8
MESST_SYM
 10
0.2
 20
4.26
 30
0.0
  0
VERTEX
  8
MESST_SYM
 10
0.46
 20
4.09
 30
0.0
  0
VERTEX
  8
MESST_SYM
 10
1.16
 20
4.09
 30
0.0
  0
VERTEX
  8
MESST_SYM
 10
1.48
 20
3.94
 30
0.0
  0
VERTEX
  8
MESST_SYM
 10
1.9
 20
3.6
 30
0.0
  0
SEQEND
  0
ENDBLK
  0
BLOCK
  8
MESST_SYM
  2
SYM041
 70
    64
 10
0.0
 20
0.0
 30
0.0
  3
Meßtischpolygonpunkt
  0
CIRCLE
  8
MESST_SYM
 10
0.0
 20
0.0
 30
0.0
 40
0.61
  0
LINE
  8
MESST_SYM
 10
0.0
 20
0.61
 30
0.0
 11
0.0
 21
3.1
 31
0.0
  0
LINE
  8
MESST_SYM
 10
0.0
 20
3.1
 30
0.0
 11
0.63
 21
2.18
 31
0.0
  0
LINE
  8
MESST_SYM
 10
0.0
 20
3.1
 30
0.0
 11
-0.63
 21
2.18
 31
0.0
  0
ENDBLK
  0
BLOCK
  8
FLST_NR_SYM
  2
SYM050
 70
    64
 10
0.0
 20
0.0
 30
0.0
  3
Zugehoerigkeitshaken normal
  0
LINE
  8
FLST_NR_SYM
 10
0.0
 20
0.0
 30
0.0
 11
0.0
 21
0.93
 31
0.0
  0
LINE
  8
FLST_NR_SYM
 10
0.0
 20
0.93
 30
0.0
 11
0.46
 21
0.58
 31
0.0
  0
ENDBLK
  0
BLOCK
  8
FLST_NR_SYM
  2
SYM051
 70
    64
 10
0.0
 20
0.0
 30
0.0
  3
Zugehoerigkeitshaken klein
  0
LINE
  8
FLST_NR_SYM
 10
0.0
 20
0.0
 30
0.0
 11
0.0
 21
0.6
 31
0.0
  0
LINE
  8
FLST_NR_SYM
 10
0.0
 20
0.6
 30
0.0
 11
0.36
 21
0.42
 31
0.0
  0
ENDBLK
  0
BLOCK
  8
FLST_NR_SYM
  2
SYM052
 70
    64
 10
0.0
 20
0.0
 30
0.0
  3
Zugehoerigkeitshaken gross
  0
LINE
  8
FLST_NR_SYM
 10
0.0
 20
0.0
 30
0.0
 11
0.0
 21
1.96
 31
0.0
  0
LINE
  8
FLST_NR_SYM
 10
0.0
 20
1.96
 30
0.0
 11
0.76
 21
1.56
 31
0.0
  0
ENDBLK
  0
BLOCK
  8
FLST_NR_SYM
  2
SYM060
 70
    64
 10
0.0
 20
0.0
 30
0.0
  3
Zuordnungspfeil
  0
LINE
  8
FLST_NR_SYM
 10
-2.6
 20
0.0
 30
0.0
 11
0.0
 21
0.0
 31
0.0
  0
LINE
  8
FLST_NR_SYM
 10
-0.8
 20
-0.45
 30
0.0
 11
0.0
 21
0.0
 31
0.0
  0
LINE
  8
FLST_NR_SYM
 10
-0.8
 20
0.45
 30
0.0
 11
0.0
 21
0.0
 31
0.0
  0
ENDBLK
  0
BLOCK
  8
TOPO_SYM
  2
SYM063
 70
    64
 10
0.0
 20
0.0
 30
0.0
  3
Treppenpfeil
  0
LINE
  8
TOPO_SYM
 10
-3.2
 20
0.0
 30
0.0
 11
0.0
 21
0.0
 31
0.0
  0
LINE
  8
TOPO_SYM
 10
-1.1
 20
-0.55
 30
0.0
 11
0.0
 21
0.0
 31
0.0
  0
LINE
  8
TOPO_SYM
 10
-1.1
 20
0.55
 30
0.0
 11
0.0
 21
0.0
 31
0.0
  0
ENDBLK
  0
BLOCK
  8
VERW_SYM
  2
SYM070
 70
    64
 10
0.0
 20
0.0
 30
0.0
  3
Staatsgrenze 3er
  0
INSERT
  8
VERW_SYM
  2
SYM072
 10
-7.0
 20
0.0
 30
0.0
  0
INSERT
  8
VERW_SYM
  2
SYM072
 10
0.0
 20
0.0
 30
0.0
  0
INSERT
  8
VERW_SYM
  2
SYM072
 10
7.0
 20
0.0
 30
0.0
  0
ENDBLK
  0
BLOCK
  8
VERW_SYM
  2
SYM071
 70
    64
 10
0.0
 20
0.0
 30
0.0
  3
Staatsgrenze 2er
  0
INSERT
  8
VERW_SYM
  2
SYM072
 10
-3.5
 20
0.0
 30
0.0
  0
INSERT
  8
VERW_SYM
  2
SYM072
 10
3.5
 20
0.0
 30
0.0
  0
ENDBLK
  0
BLOCK
  8
VERW_SYM
  2
SYM072
 70
    64
 10
0.0
 20
0.0
 30
0.0
  3
Staatsgrenze 1er
  0
LINE
  8
VERW_SYM
 10
-2.91
 20
0.0
 30
0.0
 11
2.91
 21
0.0
 31
0.0
  0
LINE
  8
VERW_SYM
 10
-2.91
 20
0.75
 30
0.0
 11
-2.91
 21
-0.75
 31
0.0
  0
LINE
  8
VERW_SYM
 10
2.91
 20
0.75
 30
0.0
 11
2.91
 21
-0.75
 31
0.0
  0
ENDBLK
  0
BLOCK
  8
VERW_SYM
  2
SYM073
 70
    64
 10
0.0
 20
0.0
 30
0.0
  3
Gemeinde- u. Gemarkungsgrenze 3er
  0
INSERT
  8
VERW_SYM
  2
SYM075
 10
-9.5
 20
0.0
 30
0.0
  0
INSERT
  8
VERW_SYM
  2
SYM075
 10
0.0
 20
0.0
 30
0.0
  0
INSERT
  8
VERW_SYM
  2
SYM075
 10
9.5
 20
0.0
 30
0.0
  0
ENDBLK
  0
BLOCK
  8
VERW_SYM
  2
SYM074
 70
    64
 10
0.0
 20
0.0
 30
0.0
  3
Gemeinde- u. Gemarkungsgrenze 2er
  0
INSERT
  8
VERW_SYM
  2
SYM075
 10
4.75
 20
0.0
 30
0.0
  0
INSERT
  8
VERW_SYM
  2
SYM075
 10
-4.75
 20
0.0
 30
0.0
  0
ENDBLK
  0
BLOCK
  8
VERW_SYM
  2
SYM075
 70
    64
 10
0.0
 20
0.0
 30
0.0
  3
Gemeinde- u. Gemarkungsgrenze 1er
  0
LINE
  8
VERW_SYM
 10
-4.0
 20
0.0
 30
0.0
 11
2.0
 21
0.0
 31
0.0
  0
LINE
  8
VERW_SYM
 10
3.5
 20
0.0
 30
0.0
 11
4.0
 21
0.0
 31
0.0
  0
ENDBLK
  0
BLOCK
  8
VERW_SYM
  2
SYM076
 70
    64
 10
0.0
 20
0.0
 30
0.0
  3
Gemarkungsgrenze 3er
  0
INSERT
  8
VERW_SYM
  2
SYM078
 10
-11.5
 20
0.0
 30
0.0
  0
INSERT
  8
VERW_SYM
  2
SYM078
 10
0.0
 20
0.0
 30
0.0
  0
INSERT
  8
VERW_SYM
  2
SYM078
 10
11.5
 20
0.0
 30
0.0
  0
ENDBLK
  0
BLOCK
  8
VERW_SYM
  2
SYM077
 70
    64
 10
0.0
 20
0.0
 30
0.0
  3
Gemarkungsgrenze 2er
  0
INSERT
  8
VERW_SYM
  2
SYM078
 10
-5.75
 20
0.0
 30
0.0
  0
INSERT
  8
VERW_SYM
  2
SYM078
 10
5.75
 20
0.0
 30
0.0
  0
ENDBLK
  0
BLOCK
  8
VERW_SYM
  2
SYM078
 70
    64
 10
0.0
 20
0.0
 30
0.0
  3
Gemarkungsgrenze 1er
  0
LINE
  8
VERW_SYM
 10
-5.0
 20
0.0
 30
0.0
 11
1.0
 21
0.0
 31
0.0
  0
LINE
  8
VERW_SYM
 10
2.5
 20
0.0
 30
0.0
 11
3.0
 21
0.0
 31
0.0
  0
LINE
  8
VERW_SYM
 10
4.5
 20
0.0
 30
0.0
 11
5.0
 21
0.0
 31
0.0
  0
ENDBLK
  0
BLOCK
  8
VERW_SYM
  2
SYM080
 70
    64
 10
0.0
 20
0.0
 30
0.0
  3
Gemeindegrenze 3er
  0
INSERT
  8
VERW_SYM
  2
SYM082
 10
-8.5
 20
0.0
 30
0.0
  0
INSERT
  8
VERW_SYM
  2
SYM082
 10
0.0
 20
0.0
 30
0.0
  0
INSERT
  8
VERW_SYM
  2
SYM082
 10
8.5
 20
0.0
 30
0.0
  0
ENDBLK
  0
BLOCK
  8
VERW_SYM
  2
SYM081
 70
    64
 10
0.0
 20
0.0
 30
0.0
  3
Gemeindegrenze 2er
  0
INSERT
  8
VERW_SYM
  2
SYM082
 10
-4.25
 20
0.0
 30
0.0
  0
INSERT
  8
VERW_SYM
  2
SYM082
 10
4.25
 20
0.0
 30
0.0
  0
ENDBLK
  0
BLOCK
  8
VERW_SYM
  2
SYM082
 70
    64
 10
0.0
 20
0.0
 30
0.0
  3
Gemeindegrenze 1er
  0
LINE
  8
VERW_SYM
 10
-3.75
 20
0.0
 30
0.0
 11
2.25
 21
0.0
 31
0.0
  0
LINE
  8
VERW_SYM
 10
3.5
 20
0.75
 30
0.0
 11
3.5
 21
-0.75
 31
0.0
  0
ENDBLK
  0
BLOCK
  8
GEB_GVOR
  2
SYM090
 70
    64
 10
0.0
 20
0.0
 30
0.0
  3
Grundriß für ein genehmigtes Bauvorhaben (4m x 2m)
  0
LINE
  8
GEB_GVOR
 10
0.0
 20
0.0
 30
0.0
 11
0.0
 21
4.0
 31
0.0
  0
LINE
  8
GEB_GVOR
 10
0.0
 20
4.0
 30
0.0
 11
2.0
 21
4.0
 31
0.0
  0
LINE
  8
GEB_GVOR
 10
2.0
 20
4.0
 30
0.0
 11
2.0
 21
0.0
 31
0.0
  0
LINE
  8
GEB_GVOR
 10
2.0
 20
0.0
 30
0.0
 11
0.0
 21
0.0
 31
0.0
  0
ENDBLK
  0
BLOCK
  8
GEB_GVOR
  2
SYM091
 70
    64
 10
0.0
 20
0.0
 30
0.0
  3
Grundriß für ein genehmigtes Bauvorhaben (10m x 10m)
  0
LINE
  8
GEB_GVOR
 10
0.0
 20
0.0
 30
0.0
 11
0.0
 21
10.0
 31
0.0
  0
LINE
  8
GEB_GVOR
 10
0.0
 20
10.0
 30
0.0
 11
10.0
 21
10.0
 31
0.0
  0
LINE
  8
GEB_GVOR
 10
10.0
 20
10.0
 30
0.0
 11
10.0
 21
0.0
 31
0.0
  0
LINE
  8
GEB_GVOR
 10
10.0
 20
0.0
 30
0.0
 11
0.0
 21
0.0
 31
0.0
  0
ENDBLK
  0
BLOCK
  8
GEB_GVOR
  2
SYM092
 70
    64
 10
0.0
 20
0.0
 30
0.0
  3
Grundriß für ein genehmigtes Bauvorhaben (10m x 15m)
  0
LINE
  8
GEB_GVOR
 10
0.0
 20
0.0
 30
0.0
 11
0.0
 21
10.0
 31
0.0
  0
LINE
  8
GEB_GVOR
 10
0.0
 20
10.0
 30
0.0
 11
15.0
 21
10.0
 31
0.0
  0
LINE
  8
GEB_GVOR
 10
15.0
 20
10.0
 30
0.0
 11
15.0
 21
0.0
 31
0.0
  0
LINE
  8
GEB_GVOR
 10
15.0
 20
0.0
 30
0.0
 11
0.0
 21
0.0
 31
0.0
  0
ENDBLK
  0
BLOCK
  8
NUTZ_SYM
  2
SYM100
 70
    64
 10
0.0
 20
0.0
 30
0.0
  3
Acker (Hopfengarten) 4er
  0
INSERT
  8
NUTZ_SYM
  2
SYM101
 10
0.0
 20
2.9
 30
0.0
  0
INSERT
  8
NUTZ_SYM
  2
SYM101
 10
0.0
 20
-3.4
 30
0.0
  0
INSERT
  8
NUTZ_SYM
  2
SYM101
 10
-4.8
 20
0.0
 30
0.0
  0
INSERT
  8
NUTZ_SYM
  2
SYM101
 10
4.8
 20
0.0
 30
0.0
  0
ENDBLK
  0
BLOCK
  8
NUTZ_SYM
  2
SYM101
 70
    64
 10
0.0
 20
0.0
 30
0.0
  3
Acker (Hopfengarten) 1er
  0
LINE
  8
NUTZ_SYM
 10
-0.25
 20
-2.0
 30
0.0
 11
-0.95
 21
-2.0
 31
0.0
  0
LINE
  8
NUTZ_SYM
 10
-0.95
 20
-2.0
 30
0.0
 11
0.5
 21
2.0
 31
0.0
  0
LINE
  8
NUTZ_SYM
 10
-0.5
 20
2.0
 30
0.0
 11
0.95
 21
-2.0
 31
0.0
  0
LINE
  8
NUTZ_SYM
 10
0.95
 20
-2.0
 30
0.0
 11
1.85
 21
-2.0
 31
0.0
  0
ENDBLK
  0
BLOCK
  8
NUTZ_SYM
  2
SYM110
 70
    64
 10
0.0
 20
0.0
 30
0.0
  3
Grünland-Acker 7er
  0
INSERT
  8
NUTZ_SYM
  2
SYM112
 10
0.0
 20
0.0
 30
0.0
  0
INSERT
  8
NUTZ_SYM
  2
SYM112
 10
7.7
 20
0.0
 30
0.0
  0
INSERT
  8
NUTZ_SYM
  2
SYM112
 10
-7.7
 20
0.0
 30
0.0
  0
INSERT
  8
NUTZ_SYM
  2
SYM112
 10
3.85
 20
3.8
 30
0.0
  0
INSERT
  8
NUTZ_SYM
  2
SYM112
 10
3.85
 20
-3.8
 30
0.0
  0
INSERT
  8
NUTZ_SYM
  2
SYM112
 10
-3.85
 20
3.8
 30
0.0
  0
INSERT
  8
NUTZ_SYM
  2
SYM112
 10
-3.85
 20
-3.8
 30
0.0
  0
ENDBLK
  0
BLOCK
  8
NUTZ_SYM
  2
SYM111
 70
    64
 10
0.0
 20
0.0
 30
0.0
  3
Grünland-Acker 3er
  0
INSERT
  8
NUTZ_SYM
  2
SYM112
 10
0.0
 20
1.9
 30
0.0
  0
INSERT
  8
NUTZ_SYM
  2
SYM112
 10
3.85
 20
-1.9
 30
0.0
  0
INSERT
  8
NUTZ_SYM
  2
SYM112
 10
-3.85
 20
-1.9
 30
0.0
  0
ENDBLK
  0
BLOCK
  8
NUTZ_SYM
  2
SYM112
 70
    64
 10
0.0
 20
0.0
 30
0.0
  3
Grünland-Acker 1er
  0
INSERT
  8
NUTZ_SYM
  2
SYPKT
 10
-1.15
 20
0.0
 30
0.0
  0
INSERT
  8
NUTZ_SYM
  2
SYPKT
 10
1.15
 20
0.0
 30
0.0
  0
ENDBLK
  0
BLOCK
  8
NUTZ_SYM
  2
SYM120
 70
    64
 10
0.0
 20
0.0
 30
0.0
  3
Acker/Grünland 5er
  0
INSERT
  8
NUTZ_SYM
  2
SYM122
 10
0.0
 20
1.0
 30
0.0
  0
INSERT
  8
NUTZ_SYM
  2
SYM122
 10
3.6
 20
-1.4
 30
0.0
  0
INSERT
  8
NUTZ_SYM
  2
SYM122
 10
7.2
 20
1.0
 30
0.0
  0
INSERT
  8
NUTZ_SYM
  2
SYM122
 10
-3.6
 20
-1.4
 30
0.0
  0
INSERT
  8
NUTZ_SYM
  2
SYM122
 10
-7.2
 20
1.0
 30
0.0
  0
ENDBLK
  0
BLOCK
  8
NUTZ_SYM
  2
SYM121
 70
    64
 10
0.0
 20
0.0
 30
0.0
  3
Acker/Grünland 3er
  0
INSERT
  8
NUTZ_SYM
  2
SYM122
 10
0.0
 20
2.4
 30
0.0
  0
INSERT
  8
NUTZ_SYM
  2
SYM122
 10
3.6
 20
0.0
 30
0.0
  0
INSERT
  8
NUTZ_SYM
  2
SYM122
 10
-3.6
 20
0.0
 30
0.0
  0
ENDBLK
  0
BLOCK
  8
NUTZ_SYM
  2
SYM122
 70
    64
 10
0.0
 20
0.0
 30
0.0
  3
Acker/Grünland 1er
  0
ARC
  8
NUTZ_SYM
 10
0.0
 20
0.0
 30
0.0
 40
1.1
 50
313.07
 51
226.90
  0
ENDBLK
  0
BLOCK
  8
NUTZ_SYM
  2
SYM130
 70
    64
 10
0.0
 20
0.0
 30
0.0
  3
Gartenland 4er
  0
INSERT
  8
NUTZ_SYM
  2
SYM131
 10
0.0
 20
3.38
 30
0.0
  0
INSERT
  8
NUTZ_SYM
  2
SYM131
 10
0.0
 20
-3.38
 30
0.0
  0
INSERT
  8
NUTZ_SYM
  2
SYM131
 10
5.2
 20
0.0
 30
0.0
  0
INSERT
  8
NUTZ_SYM
  2
SYM131
 10
-5.2
 20
0.0
 30
0.0
  0
ENDBLK
  0
BLOCK
  8
NUTZ_SYM
  2
SYM131
 70
    64
 10
0.0
 20
0.0
 30
0.0
  3
Gartenland 1er
  0
INSERT
  8
NUTZ_SYM
  2
SYPKT
 10
0.0
 20
0.73
 30
0.0
  0
INSERT
  8
NUTZ_SYM
  2
SYPKT
 10
-0.8
 20
-0.73
 30
0.0
  0
INSERT
  8
NUTZ_SYM
  2
SYPKT
 10
0.8
 20
-0.73
 30
0.0
  0
ENDBLK
  0
BLOCK
  8
NUTZ_SYM
  2
SYM150
 70
    64
 10
0.0
 20
0.0
 30
0.0
  3
Torfstich
  0
LINE
  8
NUTZ_SYM
 10
-1.65
 20
0.0
 30
0.0
 11
-1.65
 21
-1.3
 31
0.0
  0
LINE
  8
NUTZ_SYM
 10
-1.65
 20
-1.3
 30
0.0
 11
4.95
 21
-1.3
 31
0.0
  0
LINE
  8
NUTZ_SYM
 10
4.95
 20
-1.3
 30
0.0
 11
4.95
 21
0.0
 31
0.0
  0
LINE
  8
NUTZ_SYM
 10
4.95
 20
0.0
 30
0.0
 11
-4.95
 21
0.0
 31
0.0
  0
LINE
  8
NUTZ_SYM
 10
-4.95
 20
0.0
 30
0.0
 11
-4.95
 21
1.3
 31
0.0
  0
LINE
  8
NUTZ_SYM
 10
-4.95
 20
1.3
 30
0.0
 11
1.65
 21
1.3
 31
0.0
  0
LINE
  8
NUTZ_SYM
 10
1.65
 20
1.3
 30
0.0
 11
1.65
 21
0.0
 31
0.0
  0
ENDBLK
  0
BLOCK
  8
NUTZ_SYM
  2
SYM160
 70
    64
 10
0.0
 20
0.0
 30
0.0
  3
Grünanlage, Park 6er
  0
INSERT
  8
NUTZ_SYM
  2
SYM222
 10
0.0
 20
0.0
 30
0.0
  0
INSERT
  8
NUTZ_SYM
  2
SYM222
 10
-5.0
 20
5.0
 30
0.0
  0
INSERT
  8
NUTZ_SYM
  2
SYM212
 10
9.2
 20
-0.85
 30
0.0
  0
INSERT
  8
NUTZ_SYM
  2
SYM212
 10
3.0
 20
4.15
 30
0.0
  0
INSERT
  8
NUTZ_SYM
  2
SYM212
 10
0.5
 20
-5.85
 30
0.0
  0
INSERT
  8
NUTZ_SYM
  2
SYM212
 10
-8.8
 20
-0.85
 30
0.0
  0
INSERT
  8
NUTZ_SYM
  2
SYM112
 10
0.15
 20
3.15
 30
0.0
  0
INSERT
  8
NUTZ_SYM
  2
SYM112
 10
5.35
 20
-1.85
 30
0.0
  0
INSERT
  8
NUTZ_SYM
  2
SYM112
 10
-3.65
 20
-1.85
 30
0.0
  0
INSERT
  8
NUTZ_SYM
  2
SYM112
 10
-3.65
 20
-6.85
 30
0.0
  0
INSERT
  8
NUTZ_SYM
  2
SYM112
 10
5.35
 20
-6.85
 30
0.0
  0
ENDBLK
  0
BLOCK
  8
NUTZ_SYM
  2
SYM161
 70
    64
 10
0.0
 20
0.0
 30
0.0
  3
Grünanlage, Park 3er
  0
INSERT
  8
NUTZ_SYM
  2
SYM222
 10
-5.35
 20
-1.15
 30
0.0
  0
INSERT
  8
NUTZ_SYM
  2
SYM212
 10
-1.15
 20
3.0
 30
0.0
  0
INSERT
  8
NUTZ_SYM
  2
SYM212
 10
3.85
 20
-2.0
 30
0.0
  0
INSERT
  8
NUTZ_SYM
  2
SYM112
 10
0.0
 20
-3.0
 30
0.0
  0
ENDBLK
  0
BLOCK
  8
NUTZ_SYM
  2
SYM162
 70
    64
 10
0.0
 20
0.0
 30
0.0
  3
Grünanlage, Park 1er (Laubbaum)
  0
INSERT
  8
NUTZ_SYM
  2
SYM112
 10
1.17
 20
-1.0
 30
0.0
  0
INSERT
  8
NUTZ_SYM
  2
SYM212
 10
-3.5
 20
0.0
 30
0.0
  0
ENDBLK
  0
BLOCK
  8
NUTZ_SYM
  2
SYM163
 70
    64
 10
0.0
 20
0.0
 30
0.0
  3
Grünanlage, Park 1er (Nadelbaum)
  0
INSERT
  8
NUTZ_SYM
  2
SYM112
 10
1.17
 20
-1.85
 30
0.0
  0
INSERT
  8
NUTZ_SYM
  2
SYM222
 10
-4.0
 20
0.0
 30
0.0
  0
ENDBLK
  0
BLOCK
  8
NUTZ_SYM
  2
SYM170
 70
    64
 10
0.0
 20
0.0
 30
0.0
  3
Weigarten 4er
  0
INSERT
  8
NUTZ_SYM
  2
SYM171
 10
0.0
 20
3.3
 30
0.0
  0
INSERT
  8
NUTZ_SYM
  2
SYM171
 10
0.0
 20
-3.3
 30
0.0
  0
INSERT
  8
NUTZ_SYM
  2
SYM171
 10
-7.7
 20
0.0
 30
0.0
  0
INSERT
  8
NUTZ_SYM
  2
SYM171
 10
7.7
 20
0.0
 30
0.0
  0
ENDBLK
  0
BLOCK
  8
NUTZ_SYM
  2
SYM171
 70
    64
 10
0.0
 20
0.0
 30
0.0
  3
Weigarten 1er
  0
LINE
  8
NUTZ_SYM
 10
0.0
 20
-1.95
 30
0.0
 11
0.0
 21
1.95
 31
0.0
  0
LINE
  8
NUTZ_SYM
 10
0.0
 20
-1.95
 30
0.0
 11
1.2
 21
-1.95
 31
0.0
  0
LINE
  8
NUTZ_SYM
 10
-0.1
 20
-0.4
 30
0.0
 11
0.0
 21
-0.35
 31
0.0
  0
LINE
  8
NUTZ_SYM
 10
-0.1
 20
-1.95
 30
0.0
 11
-0.2
 21
-1.94
 31
0.0
  0
POLYLINE
  8
NUTZ_SYM
 66
    1
 10
0.0
 20
0.0
 30
0.0
  0
VERTEX
  8
NUTZ_SYM
 10
-0.2
 20
-1.94
 30
0.0
  0
VERTEX
  8
NUTZ_SYM
 10
-0.3
 20
-1.92
 30
0.0
  0
VERTEX
  8
NUTZ_SYM
 10
-0.4
 20
-1.9
 30
0.0
  0
VERTEX
  8
NUTZ_SYM
 10
-0.47
 20
-1.87
 30
0.0
  0
VERTEX
  8
NUTZ_SYM
 10
-0.54
 20
-1.84
 30
0.0
  0
VERTEX
  8
NUTZ_SYM
 10
-0.6
 20
-1.8
 30
0.0
  0
VERTEX
  8
NUTZ_SYM
 10
-0.66
 20
-1.76
 30
0.0
  0
VERTEX
  8
NUTZ_SYM
 10
-0.72
 20
-1.71
 30
0.0
  0
VERTEX
  8
NUTZ_SYM
 10
-0.77
 20
-1.65
 30
0.0
  0
VERTEX
  8
NUTZ_SYM
 10
-0.8
 20
-1.61
 30
0.0
  0
VERTEX
  8
NUTZ_SYM
 10
-0.82
 20
-1.58
 30
0.0
  0
VERTEX
  8
NUTZ_SYM
 10
-0.84
 20
-1.54
 30
0.0
  0
VERTEX
  8
NUTZ_SYM
 10
-0.86
 20
-1.5
 30
0.0
  0
VERTEX
  8
NUTZ_SYM
 10
-0.87
 20
-1.45
 30
0.0
  0
VERTEX
  8
NUTZ_SYM
 10
-0.89
 20
-1.41
 30
0.0
  0
VERTEX
  8
NUTZ_SYM
 10
-0.89
 20
-1.37
 30
0.0
  0
VERTEX
  8
NUTZ_SYM
 10
-0.9
 20
-1.33
 30
0.0
  0
VERTEX
  8
NUTZ_SYM
 10
-0.91
 20
-1.28
 30
0.0
  0
VERTEX
  8
NUTZ_SYM
 10
-0.91
 20
-1.24
 30
0.0
  0
VERTEX
  8
NUTZ_SYM
 10
-0.91
 20
-1.19
 30
0.0
  0
VERTEX
  8
NUTZ_SYM
 10
-0.9
 20
-1.15
 30
0.0
  0
VERTEX
  8
NUTZ_SYM
 10
-0.89
 20
-1.1
 30
0.0
  0
VERTEX
  8
NUTZ_SYM
 10
-0.87
 20
-1.04
 30
0.0
  0
VERTEX
  8
NUTZ_SYM
 10
-0.85
 20
-0.99
 30
0.0
  0
VERTEX
  8
NUTZ_SYM
 10
-0.83
 20
-0.94
 30
0.0
  0
VERTEX
  8
NUTZ_SYM
 10
-0.79
 20
-0.87
 30
0.0
  0
VERTEX
  8
NUTZ_SYM
 10
-0.77
 20
-0.85
 30
0.0
  0
VERTEX
  8
NUTZ_SYM
 10
-0.72
 20
-0.79
 30
0.0
  0
VERTEX
  8
NUTZ_SYM
 10
-0.66
 20
-0.73
 30
0.0
  0
VERTEX
  8
NUTZ_SYM
 10
-0.57
 20
-0.66
 30
0.0
  0
VERTEX
  8
NUTZ_SYM
 10
-0.47
 20
-0.59
 30
0.0
  0
VERTEX
  8
NUTZ_SYM
 10
-0.4
 20
-0.55
 30
0.0
  0
VERTEX
  8
NUTZ_SYM
 10
-0.30
 20
-0.5
 30
0.0
  0
VERTEX
  8
NUTZ_SYM
 10
-0.2
 20
-0.45
 30
0.0
  0
VERTEX
  8
NUTZ_SYM
 10
-0.1
 20
-0.4
 30
0.0
  0
SEQEND
  0
LINE
  8
NUTZ_SYM
 10
0.0
 20
-1.95
 30
0.0
 11
-0.1
 21
-1.95
 31
0.0
  0
POLYLINE
  8
NUTZ_SYM
 66
    1
 10
0.0
 20
0.0
 30
0.0
  0
VERTEX
  8
NUTZ_SYM
 10
0.0
 20
-0.35
 30
0.0
  0
VERTEX
  8
NUTZ_SYM
 10
0.1
 20
-0.31
 30
0.0
  0
VERTEX
  8
NUTZ_SYM
 10
0.2
 20
-0.26
 30
0.0
  0
VERTEX
  8
NUTZ_SYM
 10
0.3
 20
-0.21
 30
0.0
  0
VERTEX
  8
NUTZ_SYM
 10
0.4
 20
-0.15
 30
0.0
  0
VERTEX
  8
NUTZ_SYM
 10
0.47
 20
-0.1
 30
0.0
  0
VERTEX
  8
NUTZ_SYM
 10
0.54
 20
-0.03
 30
0.0
  0
VERTEX
  8
NUTZ_SYM
 10
0.61
 20
0.03
 30
0.0
  0
SEQEND
  0
POLYLINE
  8
NUTZ_SYM
 66
    1
 10
0.0
 20
0.0
 30
0.0
  0
VERTEX
  8
NUTZ_SYM
 10
-0.09
 20
0.89
 30
0.0
  0
VERTEX
  8
NUTZ_SYM
 10
-0.18
 20
0.94
 30
0.0
  0
VERTEX
  8
NUTZ_SYM
 10
-0.27
 20
0.99
 30
0.0
  0
VERTEX
  8
NUTZ_SYM
 10
-0.35
 20
1.05
 30
0.0
  0
VERTEX
  8
NUTZ_SYM
 10
-0.41
 20
1.11
 30
0.0
  0
VERTEX
  8
NUTZ_SYM
 10
-0.47
 20
1.17
 30
0.0
  0
VERTEX
  8
NUTZ_SYM
 10
-0.52
 20
1.24
 30
0.0
  0
VERTEX
  8
NUTZ_SYM
 10
-0.55
 20
1.27
 30
0.0
  0
VERTEX
  8
NUTZ_SYM
 10
-0.56
 20
1.31
 30
0.0
  0
VERTEX
  8
NUTZ_SYM
 10
-0.58
 20
1.34
 30
0.0
  0
VERTEX
  8
NUTZ_SYM
 10
-0.59
 20
1.38
 30
0.0
  0
VERTEX
  8
NUTZ_SYM
 10
-0.60
 20
1.41
 30
0.0
  0
VERTEX
  8
NUTZ_SYM
 10
-0.60
 20
1.45
 30
0.0
  0
VERTEX
  8
NUTZ_SYM
 10
-0.60
 20
1.49
 30
0.0
  0
VERTEX
  8
NUTZ_SYM
 10
-0.59
 20
1.52
 30
0.0
  0
VERTEX
  8
NUTZ_SYM
 10
-0.58
 20
1.55
 30
0.0
  0
VERTEX
  8
NUTZ_SYM
 10
-0.56
 20
1.59
 30
0.0
  0
VERTEX
  8
NUTZ_SYM
 10
-0.54
 20
1.62
 30
0.0
  0
VERTEX
  8
NUTZ_SYM
 10
-0.5
 20
1.69
 30
0.0
  0
VERTEX
  8
NUTZ_SYM
 10
-0.44
 20
1.75
 30
0.0
  0
VERTEX
  8
NUTZ_SYM
 10
-0.38
 20
1.82
 30
0.0
  0
VERTEX
  8
NUTZ_SYM
 10
-0.35
 20
1.85
 30
0.0
  0
SEQEND
  0
LINE
  8
NUTZ_SYM
 10
0.1
 20
0.81
 30
0.0
 11
0.0
 21
0.85
 31
0.0
  0
LINE
  8
NUTZ_SYM
 10
0.0
 20
0.85
 30
0.0
 11
-0.09
 21
0.89
 31
0.0
  0
POLYLINE
  8
NUTZ_SYM
 66
    1
 10
0.0
 20
0.0
 30
0.0
  0
VERTEX
  8
NUTZ_SYM
 10
0.61
 20
0.03
 30
0.0
  0
VERTEX
  8
NUTZ_SYM
 10
0.63
 20
0.07
 30
0.0
  0
VERTEX
  8
NUTZ_SYM
 10
0.66
 20
0.1
 30
0.0
  0
VERTEX
  8
NUTZ_SYM
 10
0.67
 20
0.14
 30
0.0
  0
VERTEX
  8
NUTZ_SYM
 10
0.69
 20
0.18
 30
0.0
  0
VERTEX
  8
NUTZ_SYM
 10
0.7
 20
0.21
 30
0.0
  0
VERTEX
  8
NUTZ_SYM
 10
0.7
 20
0.25
 30
0.0
  0
VERTEX
  8
NUTZ_SYM
 10
0.7
 20
0.29
 30
0.0
  0
VERTEX
  8
NUTZ_SYM
 10
0.69
 20
0.32
 30
0.0
  0
VERTEX
  8
NUTZ_SYM
 10
0.67
 20
0.36
 30
0.0
  0
VERTEX
  8
NUTZ_SYM
 10
0.66
 20
0.4
 30
0.0
  0
VERTEX
  8
NUTZ_SYM
 10
0.63
 20
0.43
 30
0.0
  0
VERTEX
  8
NUTZ_SYM
 10
0.61
 20
0.47
 30
0.0
  0
VERTEX
  8
NUTZ_SYM
 10
0.54
 20
0.53
 30
0.0
  0
VERTEX
  8
NUTZ_SYM
 10
0.47
 20
0.6
 30
0.0
  0
VERTEX
  8
NUTZ_SYM
 10
0.4
 20
0.65
 30
0.0
  0
VERTEX
  8
NUTZ_SYM
 10
0.3
 20
0.71
 30
0.0
  0
VERTEX
  8
NUTZ_SYM
 10
0.2
 20
0.76
 30
0.0
  0
VERTEX
  8
NUTZ_SYM
 10
0.1
 20
0.81
 30
0.0
  0
SEQEND
  0
ENDBLK
  0
BLOCK
  8
NUTZ_SYM
  2
SYM180
 70
    64
 10
0.0
 20
0.0
 30
0.0
  3
Moor, Sumpffläche 4er
  0
INSERT
  8
NUTZ_SYM
  2
SYM181
 10
0.0
 20
3.7
 30
0.0
  0
INSERT
  8
NUTZ_SYM
  2
SYM181
 10
0.0
 20
-5.5
 30
0.0
  0
INSERT
  8
NUTZ_SYM
  2
SYM181
 10
7.7
 20
-0.6
 30
0.0
  0
INSERT
  8
NUTZ_SYM
  2
SYM181
 10
-7.7
 20
-0.6
 30
0.0
  0
ENDBLK
  0
BLOCK
  8
NUTZ_SYM
  2
SYM181
 70
    64
 10
0.0
 20
0.0
 30
0.0
  3
Moor, Sumpffläche 1er
  0
LINE
  8
NUTZ_SYM
 10
-0.3
 20
0.0
 30
0.0
 11
1.3
 21
0.0
 31
0.0
  0
LINE
  8
NUTZ_SYM
 10
-1.2
 20
-0.5
 30
0.0
 11
0.4
 21
-0.5
 31
0.0
  0
LINE
  8
NUTZ_SYM
 10
0.0
 20
0.6
 30
0.0
 11
0.0
 21
1.8
 31
0.0
  0
LINE
  8
NUTZ_SYM
 10
-0.5
 20
0.6
 30
0.0
 11
-0.8
 21
1.6
 31
0.0
  0
LINE
  8
NUTZ_SYM
 10
0.5
 20
0.6
 30
0.0
 11
0.8
 21
1.6
 31
0.0
  0
ENDBLK
  0
BLOCK
  8
NUTZ_SYM
  2
SYM190
 70
    64
 10
0.0
 20
0.0
 30
0.0
  3
Heide 4er
  0
INSERT
  8
NUTZ_SYM
  2
SYM191
 10
7.7
 20
-0.6
 30
0.0
  0
INSERT
  8
NUTZ_SYM
  2
SYM191
 10
-7.7
 20
-0.6
 30
0.0
  0
INSERT
  8
NUTZ_SYM
  2
SYM191
 10
0.0
 20
3.7
 30
0.0
  0
INSERT
  8
NUTZ_SYM
  2
SYM191
 10
0.0
 20
-4.3
 30
0.0
  0
ENDBLK
  0
BLOCK
  8
NUTZ_SYM
  2
SYM191
 70
    64
 10
0.0
 20
0.0
 30
0.0
  3
Heide 1er
  0
LINE
  8
NUTZ_SYM
 10
0.0
 20
0.0
 30
0.0
 11
0.0
 21
1.2
 31
0.0
  0
LINE
  8
NUTZ_SYM
 10
-0.5
 20
0.0
 30
0.0
 11
-0.8
 21
1.0
 31
0.0
  0
LINE
  8
NUTZ_SYM
 10
0.5
 20
0.0
 30
0.0
 11
0.8
 21
1.0
 31
0.0
  0
INSERT
  8
NUTZ_SYM
  2
SYPKT
 10
-0.3
 20
-0.7
 30
0.0
  0
INSERT
  8
NUTZ_SYM
  2
SYPKT
 10
0.4
 20
-0.7
 30
0.0
  0
INSERT
  8
NUTZ_SYM
  2
SYPKT
 10
1.1
 20
-0.7
 30
0.0
  0
ENDBLK
  0
BLOCK
  8
NUTZ_SYM
  2
SYM200
 70
    64
 10
0.0
 20
0.0
 30
0.0
  3
Mischwald 7er
  0
INSERT
  8
NUTZ_SYM
  2
SYM222
 10
0.0
 20
0.0
 30
0.0
  0
INSERT
  8
NUTZ_SYM
  2
SYM222
 10
7.0
 20
0.0
 30
0.0
  0
INSERT
  8
NUTZ_SYM
  2
SYM222
 10
-7.0
 20
0.0
 30
0.0
  0
INSERT
  8
NUTZ_SYM
  2
SYM212
 10
3.75
 20
4.15
 30
0.0
  0
INSERT
  8
NUTZ_SYM
  2
SYM212
 10
-3.25
 20
4.15
 30
0.0
  0
INSERT
  8
NUTZ_SYM
  2
SYM212
 10
3.75
 20
-4.85
 30
0.0
  0
INSERT
  8
NUTZ_SYM
  2
SYM212
 10
-3.25
 20
-4.85
 30
0.0
  0
ENDBLK
  0
BLOCK
  8
NUTZ_SYM
  2
SYM201
 70
    64
 10
0.0
 20
0.0
 30
0.0
  3
Mischwald 3er
  0
INSERT
  8
NUTZ_SYM
  2
SYM222
 10
0.0
 20
2.0
 30
0.0
  0
INSERT
  8
NUTZ_SYM
  2
SYM212
 10
3.75
 20
-3.0
 30
0.0
  0
INSERT
  8
NUTZ_SYM
  2
SYM212
 10
-3.75
 20
-3.0
 30
0.0
  0
ENDBLK
  0
BLOCK
  8
NUTZ_SYM
  2
SYM210
 70
    64
 10
0.0
 20
0.0
 30
0.0
  3
Laubwald 7er
  0
INSERT
  8
NUTZ_SYM
  2
SYM212
 10
0.0
 20
0.0
 30
0.0
  0
INSERT
  8
NUTZ_SYM
  2
SYM212
 10
7.0
 20
0.0
 30
0.0
  0
INSERT
  8
NUTZ_SYM
  2
SYM212
 10
-7.0
 20
0.0
 30
0.0
  0
INSERT
  8
NUTZ_SYM
  2
SYM212
 10
3.5
 20
4.5
 30
0.0
  0
INSERT
  8
NUTZ_SYM
  2
SYM212
 10
3.5
 20
-4.5
 30
0.0
  0
INSERT
  8
NUTZ_SYM
  2
SYM212
 10
-3.5
 20
4.5
 30
0.0
  0
INSERT
  8
NUTZ_SYM
  2
SYM212
 10
-3.5
 20
-4.5
 30
0.0
  0
ENDBLK
  0
BLOCK
  8
NUTZ_SYM
  2
SYM211
 70
    64
 10
0.0
 20
0.0
 30
0.0
  3
Laubwald 3er
  0
INSERT
  8
NUTZ_SYM
  2
SYM212
 10
0.0
 20
2.12
 30
0.0
  0
INSERT
  8
NUTZ_SYM
  2
SYM212
 10
3.5
 20
-2.37
 30
0.0
  0
INSERT
  8
NUTZ_SYM
  2
SYM212
 10
-3.5
 20
-2.37
 30
0.0
  0
ENDBLK
  0
BLOCK
  8
NUTZ_SYM
  2
SYM212
 70
    64
 10
0.0
 20
0.0
 30
0.0
  3
Laubwald 1er
  0
ARC
  8
NUTZ_SYM
 10
0.0
 20
0.0
 30
0.0
 40
1.2
 50
303.56
 51
236.47
  0
LINE
  8
NUTZ_SYM
 10
0.663
 20
-1.0
 30
0.0
 11
2.1
 21
-1.0
 31
0.0
  0
ENDBLK
  0
BLOCK
  8
NUTZ_SYM
  2
SYM220
 70
    64
 10
0.0
 20
0.0
 30
0.0
  3
Nadelwald 7er
  0
INSERT
  8
NUTZ_SYM
  2
SYM222
 10
0.0
 20
0.0
 30
0.0
  0
INSERT
  8
NUTZ_SYM
  2
SYM222
 10
7.0
 20
0.0
 30
0.0
  0
INSERT
  8
NUTZ_SYM
  2
SYM222
 10
-7.0
 20
0.0
 30
0.0
  0
INSERT
  8
NUTZ_SYM
  2
SYM222
 10
3.5
 20
5.0
 30
0.0
  0
INSERT
  8
NUTZ_SYM
  2
SYM222
 10
3.5
 20
-5.0
 30
0.0
  0
INSERT
  8
NUTZ_SYM
  2
SYM222
 10
-3.5
 20
5.0
 30
0.0
  0
INSERT
  8
NUTZ_SYM
  2
SYM222
 10
-3.5
 20
-5.0
 30
0.0
  0
ENDBLK
  0
BLOCK
  8
NUTZ_SYM
  2
SYM221
 70
    64
 10
0.0
 20
0.0
 30
0.0
  3
Nadelwald 3er
  0
INSERT
  8
NUTZ_SYM
  2
SYM222
 10
0.0
 20
2.5
 30
0.0
  0
INSERT
  8
NUTZ_SYM
  2
SYM222
 10
3.5
 20
-2.5
 30
0.0
  0
INSERT
  8
NUTZ_SYM
  2
SYM222
 10
-3.5
 20
-2.5
 30
0.0
  0
ENDBLK
  0
BLOCK
  8
NUTZ_SYM
  2
SYM222
 70
    64
 10
0.0
 20
0.0
 30
0.0
  3
Nadelwald 1er
  0
POLYLINE
  8
NUTZ_SYM
 66
    1
 10
0.0
 20
0.0
 30
0.0
  0
VERTEX
  8
NUTZ_SYM
 10
2.5
 20
-1.85
 30
0.0
  0
VERTEX
  8
NUTZ_SYM
 10
1.1
 20
-1.85
 30
0.0
  0
VERTEX
  8
NUTZ_SYM
 10
0.0
 20
1.85
 30
0.0
  0
VERTEX
  8
NUTZ_SYM
 10
-1.1
 20
-1.85
 30
0.0
  0
SEQEND
  0
ENDBLK
  0
BLOCK
  8
NUTZ_SYM
  2
SYM230
 70
    64
 10
0.0
 20
0.0
 30
0.0
  3
Gebüsch 3er
  0
INSERT
  8
NUTZ_SYM
  2
SYM122
 10
0.0
 20
0.0
 30
0.0
  0
INSERT
  8
NUTZ_SYM
  2
SYM122
 10
7.2
 20
0.0
 30
0.0
  0
INSERT
  8
NUTZ_SYM
  2
SYM122
 10
-7.2
 20
0.0
 30
0.0
  0
INSERT
  8
NUTZ_SYM
  2
SYM112
 10
3.6
 20
-0.7
 30
0.0
  0
INSERT
  8
NUTZ_SYM
  2
SYM112
 10
-3.6
 20
-0.7
 30
0.0
  0
ENDBLK
  0
BLOCK
  8
NUTZ_SYM
  2
SYM231
 70
    64
 10
0.0
 20
0.0
 30
0.0
  3
Gebüsch 1er
  0
INSERT
  8
NUTZ_SYM
  2
SYM122
 10
0.0
 20
0.0
 30
0.0
  0
INSERT
  8
NUTZ_SYM
  2
SYM112
 10
3.6
 20
-0.7
 30
0.0
  0
ENDBLK
  0
BLOCK
  8
NUTZ_SYM
  2
SYM240
 70
    64
 10
0.0
 20
0.0
 30
0.0
  3
Fließpfeil (normal)
  0
LINE
  8
NUTZ_SYM
 10
-3.2
 20
0.0
 30
0.0
 11
0.0
 21
0.0
 31
0.0
  0
LINE
  8
NUTZ_SYM
 10
-1.1
 20
-0.55
 30
0.0
 11
0.0
 21
0.0
 31
0.0
  0
LINE
  8
NUTZ_SYM
 10
0.0
 20
0.0
 30
0.0
 11
-1.1
 21
0.55
 31
0.0
  0
ENDBLK
  0
BLOCK
  8
NUTZ_SYM
  2
SYM241
 70
    64
 10
0.0
 20
0.0
 30
0.0
  3
Fließpfeil (klein)
  0
LINE
  8
NUTZ_SYM
 10
-2.6
 20
0.0
 30
0.0
 11
0.0
 21
0.0
 31
0.0
  0
LINE
  8
NUTZ_SYM
 10
-0.8
 20
-0.45
 30
0.0
 11
0.0
 21
0.0
 31
0.0
  0
LINE
  8
NUTZ_SYM
 10
0.0
 20
0.0
 30
0.0
 11
-0.8
 21
0.45
 31
0.0
  0
ENDBLK
  0
BLOCK
  8
NUTZ_SYM
  2
SYM242
 70
    64
 10
0.0
 20
0.0
 30
0.0
  3
Fließpfeil (groß)
  0
LINE
  8
NUTZ_SYM
 10
-6.2
 20
0.0
 30
0.0
 11
0.0
 21
0.0
 31
0.0
  0
LINE
  8
NUTZ_SYM
 10
-1.9
 20
-0.75
 30
0.0
 11
0.0
 21
0.0
 31
0.0
  0
LINE
  8
NUTZ_SYM
 10
0.0
 20
0.0
 30
0.0
 11
-1.9
 21
0.75
 31
0.0
  0
ENDBLK
  0
BLOCK
  8
NUTZ_SYM
  2
SYM250
 70
    64
 10
0.0
 20
0.0
 30
0.0
  3
Wasserfläche 4er
  0
INSERT
  8
NUTZ_SYM
  2
SYM251
 10
0.0
 20
2.8
 30
0.0
  0
INSERT
  8
NUTZ_SYM
  2
SYM251
 10
0.0
 20
-2.8
 30
0.0
  0
INSERT
  8
NUTZ_SYM
  2
SYM251
 10
4.9
 20
0.0
 30
0.0
  0
INSERT
  8
NUTZ_SYM
  2
SYM251
 10
-4.9
 20
0.0
 30
0.0
  0
ENDBLK
  0
BLOCK
  8
NUTZ_SYM
  2
SYM251
 70
    64
 10
0.0
 20
0.0
 30
0.0
  3
Wasserfläche 1er
  0
ARC
  8
NUTZ_SYM
 10
-1.25
 20
-1.002
 30
0.0
 40
1.602
 50
38.73
 51
141.29
  0
ARC
  8
NUTZ_SYM
 10
1.25
 20
1.002
 30
0.0
 40
1.602
 50
218.71
 51
321.27
  0
ENDBLK
  0
BLOCK
  8
NUTZ_SYM
  2
SYM260
 70
    64
 10
0.0
 20
0.0
 30
0.0
  3
Friedhof 4er
  0
INSERT
  8
NUTZ_SYM
  2
SYM261
 10
0.0
 20
1.25
 30
0.0
  0
INSERT
  8
NUTZ_SYM
  2
SYM261
 10
8.0
 20
-1.95
 30
0.0
  0
INSERT
  8
NUTZ_SYM
  2
SYM261
 10
0.0
 20
-4.75
 30
0.0
  0
INSERT
  8
NUTZ_SYM
  2
SYM261
 10
-8.0
 20
-1.95
 30
0.0
  0
ENDBLK
  0
BLOCK
  8
NUTZ_SYM
  2
SYM261
 70
    64
 10
0.0
 20
0.0
 30
0.0
  3
Friedhof 1er
  0
LINE
  8
NUTZ_SYM
 10
0.8
 20
0.0
 30
0.0
 11
0.0
 21
0.0
 31
0.0
  0
LINE
  8
NUTZ_SYM
 10
0.0
 20
0.0
 30
0.0
 11
0.0
 21
3.5
 31
0.0
  0
LINE
  8
NUTZ_SYM
 10
-1.0
 20
2.3
 30
0.0
 11
1.0
 21
2.3
 31
0.0
  0
ENDBLK
  0
BLOCK
  8
NUTZ_SYM
  2
SYM270
 70
    64
 10
0.0
 20
0.0
 30
0.0
  3
Unland 4er
  0
INSERT
  8
NUTZ_SYM
  2
SYM271
 10
8.0
 20
0.0
 30
0.0
  0
INSERT
  8
NUTZ_SYM
  2
SYM271
 10
-8.0
 20
0.0
 30
0.0
  0
INSERT
  8
NUTZ_SYM
  2
SYM271
 10
0.0
 20
4.5
 30
0.0
  0
INSERT
  8
NUTZ_SYM
  2
SYM271
 10
0.0
 20
-4.5
 30
0.0
  0
ENDBLK
  0
BLOCK
  8
NUTZ_SYM
  2
SYM271
 70
    64
 10
0.0
 20
0.0
 30
0.0
  3
Unland 1er
  0
LINE
  8
NUTZ_SYM
 10
-1.0
 20
-0.75
 30
0.0
 11
2.0
 21
-0.75
 31
0.0
  0
INSERT
  8
NUTZ_SYM
  2
SYPKT
 10
0.0
 20
0.75
 30
0.0
  0
INSERT
  8
NUTZ_SYM
  2
SYPKT
 10
-2.0
 20
0.75
 30
0.0
  0
ENDBLK
  0
BLOCK
  8
TOPO_SYM
  2
SYM290
 70
    64
 10
0.0
 20
0.0
 30
0.0
  3
Böschungsschraffen
  0
LINE
  8
TOPO_SYM
 10
0.0
 20
0.0
 30
0.0
 11
0.0
 21
3.75
 31
0.0
  0
LINE
  8
TOPO_SYM
 10
-2.5
 20
0.0
 30
0.0
 11
-2.5
 21
7.5
 31
0.0
  0
LINE
  8
TOPO_SYM
 10
-5.0
 20
0.0
 30
0.0
 11
-5.0
 21
3.75
 31
0.0
  0
LINE
  8
TOPO_SYM
 10
5.0
 20
0.0
 30
0.0
 11
5.0
 21
3.75
 31
0.0
  0
LINE
  8
TOPO_SYM
 10
2.5
 20
0.0
 30
0.0
 11
2.5
 21
7.5
 31
0.0
  0
ENDBLK
  0
BLOCK
  8
TOPO_SYM
  2
SYM291
 70
    64
 10
0.0
 20
0.0
 30
0.0
  3
Böschungsschraffen
  0
LINE
  8
TOPO_SYM
 10
0.0
 20
0.0
 30
0.0
 11
0.0
 21
7.5
 31
0.0
  0
LINE
  8
TOPO_SYM
 10
-2.5
 20
0.0
 30
0.0
 11
-2.5
 21
3.75
 31
0.0
  0
LINE
  8
TOPO_SYM
 10
2.5
 20
0.0
 30
0.0
 11
2.5
 21
3.75
 31
0.0
  0
ENDBLK
  0
BLOCK
  8
TOPO_SYM
  2
SYM292
 70
    64
 10
0.0
 20
0.0
 30
0.0
  3
Böschungsschraffen
  0
LINE
  8
TOPO_SYM
 10
0.0
 20
0.0
 30
0.0
 11
0.0
 21
2.0
 31
0.0
  0
LINE
  8
TOPO_SYM
 10
-2.5
 20
0.0
 30
0.0
 11
-2.5
 21
4.0
 31
0.0
  0
LINE
  8
TOPO_SYM
 10
-5.0
 20
0.0
 30
0.0
 11
-5.0
 21
2.0
 31
0.0
  0
LINE
  8
TOPO_SYM
 10
5.0
 20
0.0
 30
0.0
 11
5.0
 21
2.0
 31
0.0
  0
LINE
  8
TOPO_SYM
 10
2.5
 20
0.0
 30
0.0
 11
2.5
 21
4.0
 31
0.0
  0
ENDBLK
  0
BLOCK
  8
TOPO_SYM
  2
SYM293
 70
    64
 10
0.0
 20
0.0
 30
0.0
  3
Böschungsschraffen
  0
LINE
  8
TOPO_SYM
 10
0.0
 20
0.0
 30
0.0
 11
0.0
 21
4.0
 31
0.0
  0
LINE
  8
TOPO_SYM
 10
-2.5
 20
0.0
 30
0.0
 11
-2.5
 21
2.0
 31
0.0
  0
LINE
  8
TOPO_SYM
 10
2.5
 20
0.0
 30
0.0
 11
2.5
 21
2.0
 31
0.0
  0
ENDBLK
  0
BLOCK
  8
TOPO_SYM
  2
SYM294
 70
    64
 10
0.0
 20
0.0
 30
0.0
  3
Böschungsschraffen
  0
LINE
  8
TOPO_SYM
 10
0.0
 20
0.0
 30
0.0
 11
0.0
 21
1.0
 31
0.0
  0
LINE
  8
TOPO_SYM
 10
-2.5
 20
0.0
 30
0.0
 11
-2.5
 21
0.5
 31
0.0
  0
LINE
  8
TOPO_SYM
 10
2.5
 20
0.0
 30
0.0
 11
2.5
 21
0.5
 31
0.0
  0
ENDBLK
  0
BLOCK
  8
TOPO_SYM
  2
SYM300
 70
    64
 10
0.0
 20
0.0
 30
0.0
  3
Fähre
  0
LINE
  8
TOPO_SYM
  6
AUSGEZOGEN
 10
-2.0
 20
0.7
 30
0.0
 11
2.0
 21
1.2
 31
0.0
  0
LINE
  8
TOPO_SYM
  6
AUSGEZOGEN
 10
2.0
 20
1.2
 30
0.0
 11
2.0
 21
-1.2
 31
0.0
  0
LINE
  8
TOPO_SYM
  6
AUSGEZOGEN
 10
2.0
 20
-1.2
 30
0.0
 11
-2.0
 21
-0.7
 31
0.0
  0
LINE
  8
TOPO_SYM
  6
AUSGEZOGEN
 10
-2.0
 20
-0.7
 30
0.0
 11
-2.0
 21
0.7
 31
0.0
  0
ENDBLK
  0
BLOCK
  8
TOPO_SYM
  2
SYM301
 70
    64
 10
0.0
 20
0.0
 30
0.0
  3
Kilometerstein
  0
CIRCLE
  8
TOPO_SYM
 10
0.0
 20
0.0
 30
0.0
 40
0.1
  0
LINE
  8
TOPO_SYM
 10
-1.287
 20
0.0
 30
0.0
 11
0.0
 21
1.287
 31
0.0
  0
LINE
  8
TOPO_SYM
 10
0.0
 20
1.287
 30
0.0
 11
1.287
 21
0.0
 31
0.0
  0
LINE
  8
TOPO_SYM
 10
1.287
 20
0.0
 30
0.0
 11
0.0
 21
-1.287
 31
0.0
  0
LINE
  8
TOPO_SYM
 10
0.0
 20
-1.287
 30
0.0
 11
-1.287
 21
0.0
 31
0.0
  0
ENDBLK
  0
BLOCK
  8
TOPO_SYM
  2
SYM302
 70
    64
 10
0.0
 20
0.0
 30
0.0
  3
Feldkreuz
  0
CIRCLE
  8
TOPO_SYM
 10
0.0
 20
0.0
 30
0.0
 40
0.61
  0
LINE
  8
TOPO_SYM
 10
0.0
 20
0.61
 30
0.0
 11
0.0
 21
3.9
 31
0.0
  0
LINE
  8
TOPO_SYM
 10
-1.0
 20
2.9
 30
0.0
 11
1.0
 21
2.9
 31
0.0
  0
ENDBLK
  0
BLOCK
  8
TOPO_SYM
  2
SYM303
 70
    64
 10
0.0
 20
0.0
 30
0.0
  3
Aufgemessener Laubbaum
  0
CIRCLE
  8
TOPO_SYM
 10
0.0
 20
0.0
 30
0.0
 40
0.61
  0
LINE
  8
TOPO_SYM
 10
0.0
 20
0.61
 30
0.0
 11
0.0
 21
2.0
 31
0.0
  0
ARC
  8
TOPO_SYM
 10
0.0
 20
3.2
 30
0.0
 40
1.2
 50
270.0
 51
223.58
  0
ENDBLK
  0
BLOCK
  8
TOPO_SYM
  2
SYM304
 70
    64
 10
0.0
 20
0.0
 30
0.0
  3
Aufgemessener Nadelbaum
  0
CIRCLE
  8
TOPO_SYM
 10
0.0
 20
0.0
 30
0.0
 40
0.61
  0
LINE
  8
TOPO_SYM
 10
0.0
 20
0.61
 30
0.0
 11
0.0
 21
1.9
 31
0.0
  0
LINE
  8
TOPO_SYM
 10
0.0
 20
1.9
 30
0.0
 11
0.9
 21
1.9
 31
0.0
  0
LINE
  8
TOPO_SYM
 10
0.9
 20
1.9
 30
0.0
 11
0.0
 21
4.6
 31
0.0
  0
LINE
  8
TOPO_SYM
 10
0.0
 20
4.6
 30
0.0
 11
-0.9
 21
1.9
 31
0.0
  0
ENDBLK
  0
BLOCK
  8
TOPO_SYM
  2
SYM305
 70
    64
 10
0.0
 20
0.0
 30
0.0
  3
Denkmal
  0
LINE
  8
TOPO_SYM
 10
1.1
 20
1.1
 30
0.0
 11
1.1
 21
-1.1
 31
0.0
  0
LINE
  8
TOPO_SYM
 10
1.1
 20
-1.1
 30
0.0
 11
-1.1
 21
-1.1
 31
0.0
  0
LINE
  8
TOPO_SYM
 10
-1.1
 20
-1.1
 30
0.0
 11
-1.1
 21
1.1
 31
0.0
  0
LINE
  8
TOPO_SYM
 10
-1.1
 20
1.1
 30
0.0
 11
1.1
 21
1.1
 31
0.0
  0
ENDBLK
  0
BLOCK
  8
TOPO_SYM
  2
SYM306
 70
    64
 10
0.0
 20
0.0
 30
0.0
  3
Pumpbrunnen
  0
CIRCLE
  8
TOPO_SYM
 10
0.0
 20
0.0
 30
0.0
 40
0.61
  0
ARC
  8
TOPO_SYM
 10
0.6
 20
2.6
 30
0.0
 40
0.6
 50
0.0
 51
180.0
  0
LINE
  8
TOPO_SYM
 10
0.0
 20
0.61
 30
0.0
 11
0.0
 21
2.6
 31
0.0
  0
LINE
  8
TOPO_SYM
 10
1.23
 20
2.3
 30
0.0
 11
1.25
 21
2.0
 31
0.0
  0
LINE
  8
TOPO_SYM
 10
1.26
 20
1.8
 30
0.0
 11
1.29
 21
1.5
 31
0.0
  0
ENDBLK
  0
BLOCK
  8
TOPO_SYM
  2
SYM307
 70
    64
 10
0.0
 20
0.0
 30
0.0
  3
Springbrunnen
  0
CIRCLE
  8
TOPO_SYM
 10
0.0
 20
0.0
 30
0.0
 40
0.61
  0
LINE
  8
TOPO_SYM
 10
0.0
 20
0.61
 30
0.0
 11
0.0
 21
3.4
 31
0.0
  0
LINE
  8
TOPO_SYM
 10
0.5
 20
3.85
 30
0.0
 11
0.9
 21
3.94
 31
0.0
  0
LINE
  8
TOPO_SYM
 10
1.2
 20
3.9
 30
0.0
 11
1.5
 21
3.6
 31
0.0
  0
LINE
  8
TOPO_SYM
 10
1.65
 20
3.3
 30
0.0
 11
1.69
 21
2.9
 31
0.0
  0
LINE
  8
TOPO_SYM
 10
1.65
 20
2.6
 30
0.0
 11
1.5
 21
2.3
 31
0.0
  0
LINE
  8
TOPO_SYM
 10
0.0
 20
3.4
 30
0.0
 11
0.3
 21
3.7
 31
0.0
  0
LINE
  8
TOPO_SYM
 10
-0.5
 20
3.85
 30
0.0
 11
-0.9
 21
3.94
 31
0.0
  0
LINE
  8
TOPO_SYM
 10
-1.2
 20
3.9
 30
0.0
 11
-1.5
 21
3.6
 31
0.0
  0
LINE
  8
TOPO_SYM
 10
-1.65
 20
3.3
 30
0.0
 11
-1.69
 21
2.9
 31
0.0
  0
LINE
  8
TOPO_SYM
 10
-1.65
 20
2.6
 30
0.0
 11
-1.5
 21
2.3
 31
0.0
  0
LINE
  8
TOPO_SYM
 10
0.0
 20
3.4
 30
0.0
 11
-0.3
 21
3.7
 31
0.0
  0
ENDBLK
  0
BLOCK
  8
TOPO_SYM
  2
SYM308
 70
    64
 10
0.0
 20
0.0
 30
0.0
  3
Quelle
  0
ARC
  8
TOPO_SYM
 10
0.0
 20
0.0
 30
0.0
 40
0.61
 50
317.14
 51
222.55
  0
ENDBLK
  0
BLOCK
  8
TOPO_SYM
  2
SYM309
 70
    64
 10
0.0
 20
0.0
 30
0.0
  3
Hochspannungsmast
  0
CIRCLE
  8
TOPO_SYM
 10
0.0
 20
0.0
 30
0.0
 40
0.61
  0
LINE
  8
TOPO_SYM
 10
0.0
 20
0.61
 30
0.0
 11
0.0
 21
4.0
 31
0.0
  0
LINE
  8
TOPO_SYM
 10
1.2
 20
3.7
 30
0.0
 11
1.9
 21
4.0
 31
0.0
  0
LINE
  8
TOPO_SYM
 10
1.9
 20
4.0
 30
0.0
 11
1.2
 21
4.3
 31
0.0
  0
LINE
  8
TOPO_SYM
 10
-1.2
 20
3.7
 30
0.0
 11
-1.9
 21
4.0
 31
0.0
  0
LINE
  8
TOPO_SYM
 10
-1.9
 20
4.0
 30
0.0
 11
-1.2
 21
4.3
 31
0.0
  0
LINE
  8
TOPO_SYM
 10
-1.9
 20
4.0
 30
0.0
 11
1.9
 21
4.0
 31
0.0
  0
ENDBLK
  0
BLOCK
  8
TOPO_SYM
  2
SYM310
 70
    64
 10
0.0
 20
0.0
 30
0.0
  3
Funkmast
  0
CIRCLE
  8
TOPO_SYM
 10
0.0
 20
0.0
 30
0.0
 40
0.61
  0
LINE
  8
TOPO_SYM
 10
0.0
 20
0.61
 30
0.0
 11
0.0
 21
5.0
 31
0.0
  0
LINE
  8
TOPO_SYM
 10
0.0
 20
4.0
 30
0.0
 11
1.5
 21
3.0
 31
0.0
  0
LINE
  8
TOPO_SYM
 10
1.5
 20
3.0
 30
0.0
 11
0.9
 21
2.4
 31
0.0
  0
LINE
  8
TOPO_SYM
 10
0.9
 20
2.4
 30
0.0
 11
2.3
 21
1.4
 31
0.0
  0
LINE
  8
TOPO_SYM
 10
2.3
 20
1.4
 30
0.0
 11
1.9
 21
2.15
 31
0.0
  0
LINE
  8
TOPO_SYM
 10
2.3
 20
1.4
 30
0.0
 11
1.5
 21
1.55
 31
0.0
  0
LINE
  8
TOPO_SYM
 10
0.0
 20
4.0
 30
0.0
 11
-1.5
 21
3.0
 31
0.0
  0
LINE
  8
TOPO_SYM
 10
-1.5
 20
3.0
 30
0.0
 11
-0.9
 21
2.4
 31
0.0
  0
LINE
  8
TOPO_SYM
 10
-0.9
 20
2.4
 30
0.0
 11
-2.3
 21
1.4
 31
0.0
  0
LINE
  8
TOPO_SYM
 10
-2.3
 20
1.4
 30
0.0
 11
-1.9
 21
2.15
 31
0.0
  0
LINE
  8
TOPO_SYM
 10
-2.3
 20
1.4
 30
0.0
 11
-1.5
 21
1.55
 31
0.0
  0
ENDBLK
  0
BLOCK
  8
TOPO_SYM
  2
SYM311
 70
    64
 10
0.0
 20
0.0
 30
0.0
  3
Seilbahnmast
  0
CIRCLE
  8
TOPO_SYM
 10
0.0
 20
0.0
 30
0.0
 40
0.61
  0
LINE
  8
TOPO_SYM
 10
0.0
 20
0.61
 30
0.0
 11
0.0
 21
5.1
 31
0.0
  0
LINE
  8
TOPO_SYM
 10
-2.0
 20
3.1
 30
0.0
 11
-2.0
 21
4.1
 31
0.0
  0
LINE
  8
TOPO_SYM
 10
-2.0
 20
4.1
 30
0.0
 11
2.0
 21
4.1
 31
0.0
  0
LINE
  8
TOPO_SYM
 10
2.0
 20
4.1
 30
0.0
 11
2.0
 21
3.1
 31
0.0
  0
ENDBLK
  0
BLOCK
  8
TOPO_SYM
  2
SYM312
 70
    64
 10
0.0
 20
0.0
 30
0.0
  3
Wegweiser
  0
CIRCLE
  8
TOPO_SYM
 10
0.0
 20
0.0
 30
0.0
 40
0.61
  0
LINE
  8
TOPO_SYM
 10
0.0
 20
0.61
 30
0.0
 11
0.0
 21
3.5
 31
0.0
  0
LINE
  8
TOPO_SYM
 10
1.0
 20
3.5
 30
0.0
 11
1.0
 21
5.0
 31
0.0
  0
LINE
  8
TOPO_SYM
 10
1.0
 20
5.0
 30
0.0
 11
-1.0
 21
5.0
 31
0.0
  0
LINE
  8
TOPO_SYM
 10
-1.0
 20
5.0
 30
0.0
 11
-1.0
 21
3.5
 31
0.0
  0
LINE
  8
TOPO_SYM
 10
-1.0
 20
3.5
 30
0.0
 11
1.0
 21
3.5
 31
0.0
  0
ENDBLK
  0
BLOCK
  8
TOPO_SYM
  2
SYM313
 70
    64
 10
0.0
 20
0.0
 30
0.0
  3
Oberflurhydrant
  0
CIRCLE
  8
TOPO_SYM
 10
0.0
 20
0.0
 30
0.0
 40
0.61
  0
LINE
  8
TOPO_SYM
 10
0.0
 20
0.61
 30
0.0
 11
0.0
 21
3.7
 31
0.0
  0
LINE
  8
TOPO_SYM
 10
-0.5
 20
3.7
 30
0.0
 11
0.5
 21
3.7
 31
0.0
  0
LINE
  8
TOPO_SYM
 10
0.0
 20
2.7
 30
0.0
 11
1.7
 21
2.2
 31
0.0
  0
LINE
  8
TOPO_SYM
 10
1.58
 20
1.7
 30
0.0
 11
1.8
 21
2.6
 31
0.0
  0
LINE
  8
TOPO_SYM
 10
0.0
 20
2.7
 30
0.0
 11
-1.7
 21
2.2
 31
0.0
  0
LINE
  8
TOPO_SYM
 10
-1.58
 20
1.7
 30
0.0
 11
-1.8
 21
2.6
 31
0.0
  0
ENDBLK
  0
BLOCK
  8
TOPO_SYM
  2
SYM314
 70
    64
 10
0.0
 20
0.0
 30
0.0
  3
Unterflurhydrant
  0
ARC
  8
TOPO_SYM
 10
-1.4
 20
0.0
 30
0.0
 40
0.55
 50
90.0
 51
270.0
  0
ARC
  8
TOPO_SYM
 10
1.4
 20
0.0
 30
0.0
 40
0.55
 50
270.0
 51
90.0
  0
LINE
  8
TOPO_SYM
 10
-1.4
 20
0.55
 30
0.0
 11
1.4
 21
0.55
 31
0.0
  0
LINE
  8
TOPO_SYM
 10
-1.4
 20
-0.55
 30
0.0
 11
1.4
 21
-0.55
 31
0.0
  0
LINE
  8
TOPO_SYM
 10
-0.7
 20
0.0
 30
0.0
 11
0.7
 21
0.0
 31
0.0
  0
ENDBLK
  0
BLOCK
  8
TOPO_SYM
  2
SYM315
 70
    64
 10
0.0
 20
0.0
 30
0.0
  3
Schieber
  0
CIRCLE
  8
TOPO_SYM
 10
0.0
 20
0.0
 30
0.0
 40
0.61
  0
LINE
  8
TOPO_SYM
 10
0.0
 20
-0.61
 30
0.0
 11
0.0
 21
-1.8
 31
0.0
  0
LINE
  8
TOPO_SYM
 10
0.0
 20
0.61
 30
0.0
 11
0.0
 21
2.3
 31
0.0
  0
LINE
  8
TOPO_SYM
 10
0.0
 20
2.3
 30
0.0
 11
0.5
 21
1.3
 31
0.0
  0
LINE
  8
TOPO_SYM
 10
0.0
 20
2.3
 30
0.0
 11
-0.5
 21
1.3
 31
0.0
  0
ENDBLK
  0
BLOCK
  8
TOPO_SYM
  2
SYM316
 70
    64
 10
0.0
 20
0.0
 30
0.0
  3
Tankstelle
  0
CIRCLE
  8
TOPO_SYM
 10
0.0
 20
0.0
 30
0.0
 40
0.61
  0
CIRCLE
  8
TOPO_SYM
 10
0.0
 20
4.0
 30
0.0
 40
0.61
  0
LINE
  8
TOPO_SYM
 10
0.61
 20
3.39
 30
0.0
 11
-0.61
 21
3.39
 31
0.0
  0
LINE
  8
TOPO_SYM
 10
0.61
 20
3.39
 30
0.0
 11
0.61
 21
0.0
 31
0.0
  0
LINE
  8
TOPO_SYM
 10
-0.61
 20
3.39
 30
0.0
 11
-0.61
 21
0.0
 31
0.0
  0
ENDBLK
  0
BLOCK
  8
TOPO_SYM
  2
SYM317
 70
    64
 10
0.0
 20
0.0
 30
0.0
  3
Straßenlampe
  0
CIRCLE
  8
TOPO_SYM
 10
0.0
 20
0.0
 30
0.0
 40
0.61
  0
ARC
  8
TOPO_SYM
 10
0.7
 20
4.0
 30
0.0
 40
0.7
 50
0.0
 51
180.0
  0
ARC
  8
TOPO_SYM
 10
1.4
 20
4.0
 30
0.0
 40
0.7
 50
180.0
 51
0.0
  0
LINE
  8
TOPO_SYM
 10
0.0
 20
0.61
 30
0.0
 11
0.0
 21
4.0
 31
0.0
  0
LINE
  8
TOPO_SYM
 10
0.5
 20
4.0
 30
0.0
 11
2.3
 21
4.0
 31
0.0
  0
ENDBLK
  0
BLOCK
  8
TOPO_SYM
  2
SYM318
 70
    64
 10
0.0
 20
0.0
 30
0.0
  3
Beleuchtungshochmast
  0
CIRCLE
  8
TOPO_SYM
 10
0.0
 20
0.0
 30
0.0
 40
0.61
  0
CIRCLE
  8
TOPO_SYM
 10
0.0
 20
5.1
 30
0.0
 40
0.07
  0
LINE
  8
TOPO_SYM
 10
0.0
 20
0.61
 30
0.0
 11
0.0
 21
4.5
 31
0.0
  0
LINE
  8
TOPO_SYM
 10
0.6
 20
5.1
 30
0.0
 11
2.0
 21
5.1
 31
0.0
  0
LINE
  8
TOPO_SYM
 10
1.7
 20
6.2
 30
0.0
 11
0.5
 21
5.43
 31
0.0
  0
LINE
  8
TOPO_SYM
 10
1.7
 20
4.0
 30
0.0
 11
0.51
 21
4.77
 31
0.0
  0
LINE
  8
TOPO_SYM
 10
-0.6
 20
5.1
 30
0.0
 11
-2.0
 21
5.1
 31
0.0
  0
LINE
  8
TOPO_SYM
 10
-1.7
 20
6.2
 30
0.0
 11
-0.5
 21
5.43
 31
0.0
  0
LINE
  8
TOPO_SYM
 10
-1.7
 20
4.0
 30
0.0
 11
-0.51
 21
4.77
 31
0.0
  0
ENDBLK
  0
BLOCK
  8
TOPO_SYM
  2
SYM319
 70
    64
 10
0.0
 20
0.0
 30
0.0
  3
Mast für elektrische Bahn
  0
CIRCLE
  8
TOPO_SYM
 10
0.0
 20
0.0
 30
0.0
 40
0.61
  0
LINE
  8
TOPO_SYM
 10
0.0
 20
0.61
 30
0.0
 11
0.0
 21
5.0
 31
0.0
  0
LINE
  8
TOPO_SYM
 10
-0.3
 20
4.0
 30
0.0
 11
2.0
 21
4.0
 31
0.0
  0
ENDBLK
  0
BLOCK
  8
TOPO_SYM
  2
SYM320
 70
    64
 10
0.0
 20
0.0
 30
0.0
  3
Windmotor
  0
CIRCLE
  8
TOPO_SYM
 10
0.0
 20
0.0
 30
0.0
 40
0.61
  0
CIRCLE
  8
TOPO_SYM
 10
0.0
 20
4.0
 30
0.0
 40
0.86
  0
LINE
  8
TOPO_SYM
 10
0.0
 20
0.61
 30
0.0
 11
0.0
 21
3.14
 31
0.0
  0
LINE
  8
TOPO_SYM
 10
0.0
 20
4.86
 30
0.0
 11
0.0
 21
5.61
 31
0.0
  0
LINE
  8
TOPO_SYM
 10
0.62
 20
3.38
 30
0.0
 11
1.15
 21
2.85
 31
0.0
  0
LINE
  8
TOPO_SYM
 10
0.86
 20
4.0
 30
0.0
 11
1.61
 21
4.0
 31
0.0
  0
LINE
  8
TOPO_SYM
 10
0.62
 20
4.62
 30
0.0
 11
1.15
 21
5.15
 31
0.0
  0
LINE
  8
TOPO_SYM
 10
-0.62
 20
3.38
 30
0.0
 11
-1.15
 21
2.85
 31
0.0
  0
LINE
  8
TOPO_SYM
 10
-0.86
 20
4.0
 30
0.0
 11
-1.61
 21
4.0
 31
0.0
  0
LINE
  8
TOPO_SYM
 10
-0.62
 20
4.62
 30
0.0
 11
-1.15
 21
5.15
 31
0.0
  0
ENDBLK
  0
BLOCK
  8
TOPO_SYM
  2
SYM321
 70
    64
 10
0.0
 20
0.0
 30
0.0
  3
Fahnenmast
  0
CIRCLE
  8
TOPO_SYM
 10
0.0
 20
0.0
 30
0.0
 40
0.61
  0
LINE
  8
TOPO_SYM
 10
0.0
 20
0.61
 30
0.0
 11
0.0
 21
4.85
 31
0.0
  0
POLYLINE
  8
TOPO_SYM
 66
    1
 10
0.0
 20
0.0
 30
0.0
  0
VERTEX
  8
TOPO_SYM
 10
0.0
 20
4.55
 30
0.0
  0
VERTEX
  8
TOPO_SYM
 10
-0.14
 20
4.44
 30
0.0
  0
VERTEX
  8
TOPO_SYM
 10
-0.28
 20
4.33
 30
0.0
  0
VERTEX
  8
TOPO_SYM
 10
-0.40
 20
4.22
 30
0.0
  0
VERTEX
  8
TOPO_SYM
 10
-0.52
 20
4.1
 30
0.0
  0
VERTEX
  8
TOPO_SYM
 10
-0.62
 20
3.98
 30
0.0
  0
VERTEX
  8
TOPO_SYM
 10
-0.67
 20
3.91
 30
0.0
  0
VERTEX
  8
TOPO_SYM
 10
-0.71
 20
3.85
 30
0.0
  0
VERTEX
  8
TOPO_SYM
 10
-0.74
 20
3.78
 30
0.0
  0
VERTEX
  8
TOPO_SYM
 10
-0.79
 20
3.64
 30
0.0
  0
VERTEX
  8
TOPO_SYM
 10
-0.83
 20
3.49
 30
0.0
  0
VERTEX
  8
TOPO_SYM
 10
-0.87
 20
3.26
 30
0.0
  0
VERTEX
  8
TOPO_SYM
 10
-0.9
 20
3.03
 30
0.0
  0
VERTEX
  8
TOPO_SYM
 10
-0.91
 20
2.95
 30
0.0
  0
VERTEX
  8
TOPO_SYM
 10
-0.87
 20
3.05
 30
0.0
  0
VERTEX
  8
TOPO_SYM
 10
-0.80
 20
3.21
 30
0.0
  0
VERTEX
  8
TOPO_SYM
 10
-0.73
 20
3.37
 30
0.0
  0
VERTEX
  8
TOPO_SYM
 10
-0.67
 20
3.46
 30
0.0
  0
VERTEX
  8
TOPO_SYM
 10
-0.61
 20
3.55
 30
0.0
  0
VERTEX
  8
TOPO_SYM
 10
-0.52
 20
3.63
 30
0.0
  0
VERTEX
  8
TOPO_SYM
 10
-0.43
 20
3.7
 30
0.0
  0
VERTEX
  8
TOPO_SYM
 10
-0.33
 20
3.77
 30
0.0
  0
VERTEX
  8
TOPO_SYM
 10
-0.23
 20
3.83
 30
0.0
  0
VERTEX
  8
TOPO_SYM
 10
-0.12
 20
3.89
 30
0.0
  0
VERTEX
  8
TOPO_SYM
 10
0.0
 20
3.95
 30
0.0
  0
SEQEND
  0
ENDBLK
  0
BLOCK
  8
TOPO_SYM
  2
SYM322
 70
    64
 10
0.0
 20
0.0
 30
0.0
  3
Brückenwaage
  0
POLYLINE
  8
TOPO_SYM
 66
    1
 10
0.0
 20
0.0
 30
0.0
 70
    1
  0
VERTEX
  8
TOPO_SYM
 10
-3.6
 20
-1.6
 30
0.0
  0
VERTEX
  8
TOPO_SYM
 10
-3.6
 20
1.6
 30
0.0
  0
VERTEX
  8
TOPO_SYM
 10
3.6
 20
1.6
 30
0.0
  0
VERTEX
  8
TOPO_SYM
 10
3.6
 20
-1.6
 30
0.0
  0
SEQEND
  0
POLYLINE
  8
TOPO_SYM
 66
    1
 10
0.0
 20
0.0
 30
0.0
  0
VERTEX
  8
TOPO_SYM
 10
1.4
 20
1.0
 30
0.0
  0
VERTEX
  8
TOPO_SYM
 10
0.7
 20
-1.2
 30
0.0
  0
VERTEX
  8
TOPO_SYM
 10
0.0
 20
1.0
 30
0.0
  0
VERTEX
  8
TOPO_SYM
 10
-0.7
 20
-1.2
 30
0.0
  0
VERTEX
  8
TOPO_SYM
 10
-1.4
 20
1.0
 30
0.0
  0
SEQEND
  0
ENDBLK
  0
BLOCK
  8
TOPO_SYM
  2
SYM323
 70
    64
 10
0.0
 20
0.0
 30
0.0
  3
Litfaßsäule
  0
CIRCLE
  8
TOPO_SYM
 10
0.0
 20
0.0
 30
0.0
 40
1.61
  0
LINE
  8
TOPO_SYM
 10
-1.6
 20
0.29
 30
0.0
 11
0.29
 21
1.6
 31
0.0
  0
LINE
  8
TOPO_SYM
 10
-0.39
 20
-1.58
 30
0.0
 11
1.56
 21
0.37
 31
0.0
  0
ENDBLK
  0
BLOCK
  8
TOPO_SYM
  2
SYM324
 70
    64
 10
0.0
 20
0.0
 30
0.0
  3
Verkehrsampel
  0
CIRCLE
  8
TOPO_SYM
 10
0.0
 20
0.0
 30
0.0
 40
0.61
  0
CIRCLE
  8
TOPO_SYM
 10
0.0
 20
3.53
 30
0.0
 40
0.86
  0
CIRCLE
  8
TOPO_SYM
 10
0.0
 20
5.25
 30
0.0
 40
0.86
  0
LINE
  8
TOPO_SYM
 10
0.0
 20
0.61
 30
0.0
 11
0.0
 21
2.67
 31
0.0
  0
ENDBLK
  0
BLOCK
  8
TOPO_SYM
  2
SYM325
 70
    64
 10
0.0
 20
0.0
 30
0.0
  3
Fernsprechhäuschen
  0
POLYLINE
  8
TOPO_SYM
 66
    1
 10
0.0
 20
0.0
 30
0.0
 70
    1
  0
VERTEX
  8
TOPO_SYM
 10
-1.91
 20
-1.41
 30
0.0
  0
VERTEX
  8
TOPO_SYM
 10
-1.91
 20
1.41
 30
0.0
  0
VERTEX
  8
TOPO_SYM
 10
1.91
 20
1.41
 30
0.0
  0
VERTEX
  8
TOPO_SYM
 10
1.91
 20
-1.41
 30
0.0
  0
SEQEND
  0
POLYLINE
  8
TOPO_SYM
 66
    1
 10
0.0
 20
0.0
 30
0.0
  0
VERTEX
  8
TOPO_SYM
 10
-1.4
 20
-0.8
 30
0.0
  0
VERTEX
  8
TOPO_SYM
 10
-1.4
 20
0.8
 30
0.0
  0
VERTEX
  8
TOPO_SYM
 10
1.4
 20
-0.8
 30
0.0
  0
VERTEX
  8
TOPO_SYM
 10
1.4
 20
0.8
 30
0.0
  0
SEQEND
  0
ENDBLK
  0
BLOCK
  8
TOPO_SYM
  2
SYM326
 70
    64
 10
0.0
 20
0.0
 30
0.0
  3
Feuermelder
  0
POLYLINE
  8
TOPO_SYM
 66
    1
 10
0.0
 20
0.0
 30
0.0
 70
    1
  0
VERTEX
  8
TOPO_SYM
 10
-1.91
 20
-1.46
 30
0.0
  0
VERTEX
  8
TOPO_SYM
 10
-1.91
 20
1.46
 30
0.0
  0
VERTEX
  8
TOPO_SYM
 10
1.91
 20
1.46
 30
0.0
  0
VERTEX
  8
TOPO_SYM
 10
1.91
 20
-1.46
 30
0.0
  0
SEQEND
  0
LINE
  8
TOPO_SYM
 10
-0.55
 20
0.8
 30
0.0
 11
0.55
 21
0.8
 31
0.0
  0
LINE
  8
TOPO_SYM
 10
-0.55
 20
-0.8
 30
0.0
 11
0.55
 21
-0.8
 31
0.0
  0
LINE
  8
TOPO_SYM
 10
0.0
 20
0.8
 30
0.0
 11
0.0
 21
1.46
 31
0.0
  0
ARC
  8
TOPO_SYM
 10
0.55
 20
0.0
 30
0.0
 40
0.8
 50
270.0
 51
90.0
  0
ARC
  8
TOPO_SYM
 10
-0.55
 20
0.0
 30
0.0
 40
0.8
 50
90.0
 51
270.0
  0
ENDBLK
  0
BLOCK
  8
TOPO_SYM
  2
SYM327
 70
    64
 10
0.0
 20
0.0
 30
0.0
  3
Polizeirufsäule
  0
LINE
  8
TOPO_SYM
 10
0.0
 20
0.0
 30
0.0
 11
0.0
 21
5.2
 31
0.0
  0
LINE
  8
TOPO_SYM
 10
-1.0
 20
0.0
 30
0.0
 11
1.0
 21
0.0
 31
0.0
  0
LINE
  8
TOPO_SYM
 10
-1.1
 20
4.0
 30
0.0
 11
0.0
 21
4.0
 31
0.0
  0
LINE
  8
TOPO_SYM
 10
-1.1
 20
4.8
 30
0.0
 11
0.0
 21
4.8
 31
0.0
  0
POLYLINE
  8
TOPO_SYM
 66
    1
 10
0.0
 20
0.0
 30
0.0
 70
    1
  0
VERTEX
  8
TOPO_SYM
 10
-1.1
 20
4.0
 30
0.0
  0
VERTEX
  8
TOPO_SYM
 10
-1.17
 20
3.99
 30
0.0
  0
VERTEX
  8
TOPO_SYM
 10
-1.24
 20
3.99
 30
0.0
  0
VERTEX
  8
TOPO_SYM
 10
-1.29
 20
3.98
 30
0.0
  0
VERTEX
  8
TOPO_SYM
 10
-1.35
 20
3.97
 30
0.0
  0
VERTEX
  8
TOPO_SYM
 10
-1.4
 20
3.95
 30
0.0
  0
VERTEX
  8
TOPO_SYM
 10
-1.47
 20
3.92
 30
0.0
  0
VERTEX
  8
TOPO_SYM
 10
-1.51
 20
3.9
 30
0.0
  0
VERTEX
  8
TOPO_SYM
 10
-1.53
 20
3.89
 30
0.0
  0
VERTEX
  8
TOPO_SYM
 10
-1.55
 20
3.88
 30
0.0
  0
VERTEX
  8
TOPO_SYM
 10
-1.57
 20
3.86
 30
0.0
  0
VERTEX
  8
TOPO_SYM
 10
-1.58
 20
3.85
 30
0.0
  0
VERTEX
  8
TOPO_SYM
 10
-1.59
 20
3.83
 30
0.0
  0
VERTEX
  8
TOPO_SYM
 10
-1.6
 20
3.82
 30
0.0
  0
VERTEX
  8
TOPO_SYM
 10
-1.6
 20
3.8
 30
0.0
  0
VERTEX
  8
TOPO_SYM
 10
-1.6
 20
3.78
 30
0.0
  0
VERTEX
  8
TOPO_SYM
 10
-1.59
 20
3.76
 30
0.0
  0
VERTEX
  8
TOPO_SYM
 10
-1.58
 20
3.73
 30
0.0
  0
VERTEX
  8
TOPO_SYM
 10
-1.57
 20
3.71
 30
0.0
  0
VERTEX
  8
TOPO_SYM
 10
-1.55
 20
3.69
 30
0.0
  0
VERTEX
  8
TOPO_SYM
 10
-1.54
 20
3.67
 30
0.0
  0
VERTEX
  8
TOPO_SYM
 10
-1.51
 20
3.65
 30
0.0
  0
VERTEX
  8
TOPO_SYM
 10
-1.49
 20
3.64
 30
0.0
  0
VERTEX
  8
TOPO_SYM
 10
-1.47
 20
3.62
 30
0.0
  0
VERTEX
  8
TOPO_SYM
 10
-1.45
 20
3.61
 30
0.0
  0
VERTEX
  8
TOPO_SYM
 10
-1.42
 20
3.6
 30
0.0
  0
VERTEX
  8
TOPO_SYM
 10
-1.4
 20
3.6
 30
0.0
  0
VERTEX
  8
TOPO_SYM
 10
-1.38
 20
3.6
 30
0.0
  0
VERTEX
  8
TOPO_SYM
 10
-1.36
 20
3.61
 30
0.0
  0
VERTEX
  8
TOPO_SYM
 10
-1.34
 20
3.61
 30
0.0
  0
VERTEX
  8
TOPO_SYM
 10
-1.32
 20
3.63
 30
0.0
  0
VERTEX
  8
TOPO_SYM
 10
-1.3
 20
3.64
 30
0.0
  0
VERTEX
  8
TOPO_SYM
 10
-1.29
 20
3.66
 30
0.0
  0
VERTEX
  8
TOPO_SYM
 10
-1.26
 20
3.7
 30
0.0
  0
VERTEX
  8
TOPO_SYM
 10
-1.23
 20
3.75
 30
0.0
  0
VERTEX
  8
TOPO_SYM
 10
-1.2
 20
3.8
 30
0.0
  0
SEQEND
  0
POLYLINE
  8
TOPO_SYM
 66
    1
 10
0.0
 20
0.0
 30
0.0
 70
    1
  0
VERTEX
  8
TOPO_SYM
 10
-1.1
 20
4.8
 30
0.0
  0
VERTEX
  8
TOPO_SYM
 10
-1.17
 20
4.79
 30
0.0
  0
VERTEX
  8
TOPO_SYM
 10
-1.24
 20
4.79
 30
0.0
  0
VERTEX
  8
TOPO_SYM
 10
-1.29
 20
4.78
 30
0.0
  0
VERTEX
  8
TOPO_SYM
 10
-1.35
 20
4.77
 30
0.0
  0
VERTEX
  8
TOPO_SYM
 10
-1.4
 20
4.75
 30
0.0
  0
VERTEX
  8
TOPO_SYM
 10
-1.47
 20
4.72
 30
0.0
  0
VERTEX
  8
TOPO_SYM
 10
-1.51
 20
4.7
 30
0.0
  0
VERTEX
  8
TOPO_SYM
 10
-1.53
 20
4.69
 30
0.0
  0
VERTEX
  8
TOPO_SYM
 10
-1.55
 20
4.68
 30
0.0
  0
VERTEX
  8
TOPO_SYM
 10
-1.57
 20
4.66
 30
0.0
  0
VERTEX
  8
TOPO_SYM
 10
-1.58
 20
4.65
 30
0.0
  0
VERTEX
  8
TOPO_SYM
 10
-1.59
 20
4.63
 30
0.0
  0
VERTEX
  8
TOPO_SYM
 10
-1.6
 20
4.62
 30
0.0
  0
VERTEX
  8
TOPO_SYM
 10
-1.6
 20
4.6
 30
0.0
  0
VERTEX
  8
TOPO_SYM
 10
-1.6
 20
4.58
 30
0.0
  0
VERTEX
  8
TOPO_SYM
 10
-1.59
 20
4.56
 30
0.0
  0
VERTEX
  8
TOPO_SYM
 10
-1.58
 20
4.53
 30
0.0
  0
VERTEX
  8
TOPO_SYM
 10
-1.57
 20
4.51
 30
0.0
  0
VERTEX
  8
TOPO_SYM
 10
-1.55
 20
4.49
 30
0.0
  0
VERTEX
  8
TOPO_SYM
 10
-1.54
 20
4.47
 30
0.0
  0
VERTEX
  8
TOPO_SYM
 10
-1.51
 20
4.45
 30
0.0
  0
VERTEX
  8
TOPO_SYM
 10
-1.49
 20
4.44
 30
0.0
  0
VERTEX
  8
TOPO_SYM
 10
-1.47
 20
4.42
 30
0.0
  0
VERTEX
  8
TOPO_SYM
 10
-1.45
 20
4.41
 30
0.0
  0
VERTEX
  8
TOPO_SYM
 10
-1.42
 20
4.4
 30
0.0
  0
VERTEX
  8
TOPO_SYM
 10
-1.4
 20
4.4
 30
0.0
  0
VERTEX
  8
TOPO_SYM
 10
-1.38
 20
4.4
 30
0.0
  0
VERTEX
  8
TOPO_SYM
 10
-1.36
 20
4.41
 30
0.0
  0
VERTEX
  8
TOPO_SYM
 10
-1.34
 20
4.41
 30
0.0
  0
VERTEX
  8
TOPO_SYM
 10
-1.32
 20
4.43
 30
0.0
  0
VERTEX
  8
TOPO_SYM
 10
-1.3
 20
4.44
 30
0.0
  0
VERTEX
  8
TOPO_SYM
 10
-1.29
 20
4.46
 30
0.0
  0
VERTEX
  8
TOPO_SYM
 10
-1.26
 20
4.5
 30
0.0
  0
VERTEX
  8
TOPO_SYM
 10
-1.23
 20
4.55
 30
0.0
  0
VERTEX
  8
TOPO_SYM
 10
-1.20
 20
4.6
 30
0.0
  0
SEQEND
  0
ENDBLK
  0
BLOCK
  8
TOPO_SYM
  2
SYM350
 70
    64
 10
0.0
 20
0.0
 30
0.0
  3
Einstiegschacht
  0
CIRCLE
  8
TOPO_SYM
 10
0.0
 20
0.0
 30
0.0
 40
1.26
  0
LINE
  8
TOPO_SYM
 10
-0.89
 20
0.89
 30
0.0
 11
0.89
 21
-0.89
 31
0.0
  0
LINE
  8
TOPO_SYM
 10
0.89
 20
0.89
 30
0.0
 11
-0.89
 21
-0.89
 31
0.0
  0
ENDBLK
  0
BLOCK
  8
TOPO_SYM
  2
SYM351
 70
    64
 10
0.0
 20
0.0
 30
0.0
  3
Einstiegschacht für Wasserleitung
  0
INSERT
  8
TOPO_SYM
  2
SYM350
 10
0.0
 20
0.0
 30
0.0
  0
ENDBLK
  0
BLOCK
  8
TOPO_SYM
  2
SYM352
 70
    64
 10
0.0
 20
0.0
 30
0.0
  3
Einstiegschacht für Abwasserleitung
  0
INSERT
  8
TOPO_SYM
  2
SYM350
 10
0.0
 20
0.0
 30
0.0
  0
ENDBLK
  0
BLOCK
  8
TOPO_SYM
  2
SYM353
 70
    64
 10
0.0
 20
0.0
 30
0.0
  3
Einstiegschacht für Fernheizung
  0
INSERT
  8
TOPO_SYM
  2
SYM350
 10
0.0
 20
0.0
 30
0.0
  0
ENDBLK
  0
BLOCK
  8
TOPO_SYM
  2
SYM354
 70
    64
 10
0.0
 20
0.0
 30
0.0
  3
Einstiegschacht für Fernmeldeleitung
  0
INSERT
  8
TOPO_SYM
  2
SYM350
 10
0.0
 20
0.0
 30
0.0
  0
ENDBLK
  0
BLOCK
  8
TOPO_SYM
  2
SYM355
 70
    64
 10
0.0
 20
0.0
 30
0.0
  3
Einstiegschacht für Elektrizitätsleitung
  0
INSERT
  8
TOPO_SYM
  2
SYM350
 10
0.0
 20
0.0
 30
0.0
  0
ENDBLK
  0
BLOCK
  8
RAND_SYM
  2
SYM390
 70
    64
 10
0.0
 20
0.0
 30
0.0
  3
Maßstabsleiste
  0
LINE
  8
RAND_SYM
 10
0.0
 20
5.5
 30
0.0
 11
100.0
 21
5.5
 31
0.0
  0
LINE
  8
RAND_SYM
 10
100.0
 20
5.5
 30
0.0
 11
100.0
 21
6.5
 31
0.0
  0
LINE
  8
RAND_SYM
 10
100.0
 20
6.5
 30
0.0
 11
0.0
 21
6.5
 31
0.0
  0
LINE
  8
RAND_SYM
 10
0.0
 20
6.5
 30
0.0
 11
0.0
 21
5.5
 31
0.0
  0
LINE
  8
RAND_SYM
 10
1.0
 20
5.5
 30
0.0
 11
1.0
 21
6.5
 31
0.0
  0
LINE
  8
RAND_SYM
 10
2.0
 20
5.5
 30
0.0
 11
2.0
 21
6.5
 31
0.0
  0
LINE
  8
RAND_SYM
 10
3.0
 20
5.5
 30
0.0
 11
3.0
 21
6.5
 31
0.0
  0
LINE
  8
RAND_SYM
 10
4.0
 20
5.5
 30
0.0
 11
4.0
 21
6.5
 31
0.0
  0
LINE
  8
RAND_SYM
 10
5.0
 20
5.5
 30
0.0
 11
5.0
 21
6.5
 31
0.0
  0
LINE
  8
RAND_SYM
 10
6.0
 20
5.5
 30
0.0
 11
6.0
 21
6.5
 31
0.0
  0
LINE
  8
RAND_SYM
 10
7.0
 20
5.5
 30
0.0
 11
7.0
 21
6.5
 31
0.0
  0
LINE
  8
RAND_SYM
 10
8.0
 20
5.5
 30
0.0
 11
8.0
 21
6.5
 31
0.0
  0
LINE
  8
RAND_SYM
 10
9.0
 20
5.5
 30
0.0
 11
9.0
 21
6.5
 31
0.0
  0
LINE
  8
RAND_SYM
 10
10.0
 20
5.5
 30
0.0
 11
10.0
 21
6.5
 31
0.0
  0
LINE
  8
RAND_SYM
 10
20.0
 20
5.5
 30
0.0
 11
20.0
 21
6.5
 31
0.0
  0
LINE
  8
RAND_SYM
 10
30.0
 20
5.5
 30
0.0
 11
30.0
 21
6.5
 31
0.0
  0
LINE
  8
RAND_SYM
 10
40.0
 20
5.5
 30
0.0
 11
40.0
 21
6.5
 31
0.0
  0
LINE
  8
RAND_SYM
 10
50.0
 20
5.5
 30
0.0
 11
50.0
 21
6.5
 31
0.0
  0
LINE
  8
RAND_SYM
 10
60.0
 20
5.5
 30
0.0
 11
60.0
 21
6.5
 31
0.0
  0
LINE
  8
RAND_SYM
 10
70.0
 20
5.5
 30
0.0
 11
70.0
 21
6.5
 31
0.0
  0
LINE
  8
RAND_SYM
 10
80.0
 20
5.5
 30
0.0
 11
80.0
 21
6.5
 31
0.0
  0
LINE
  8
RAND_SYM
 10
90.0
 20
5.5
 30
0.0
 11
90.0
 21
6.5
 31
0.0
  0
TEXT
  8
RAND_SYM
 10
50.0
 20
0.0
 30
0.0
 11
50.0
 21
0.0
 31
0.0
 40
2.5
  1
Maßstab = 1 : 1000
 41
0.66
 72
    1
  0
TEXT
  8
RAND_SYM
 10
0.0
 20
8.0
 30
0.0
 11
0.0
 21
8.0
 31
0.0
 40
1.8
  1
10
 41
0.66
 72
    1
  0
TEXT
  8
RAND_SYM
 10
10.0
 20
8.0
 30
0.0
 11
10.0
 21
8.0
 31
0.0
 40
1.8
  1
0
 41
0.66
 72
    1
  0
TEXT
  8
RAND_SYM
 10
20.0
 20
8.0
 30
0.0
 11
20.0
 21
8.0
 31
0.0
 40
1.8
  1
10
 41
0.66
 72
    1
  0
TEXT
  8
RAND_SYM
 10
30.0
 20
8.0
 30
0.0
 11
30.0
 21
8.0
 31
0.0
 40
1.8
  1
20
 41
0.66
 72
    1
  0
TEXT
  8
RAND_SYM
 10
40.0
 20
8.0
 30
0.0
 11
40.0
 21
8.0
 31
0.0
 40
1.8
  1
30
 41
0.66
 72
    1
  0
TEXT
  8
RAND_SYM
 10
50.0
 20
8.0
 30
0.0
 11
50.0
 21
8.0
 31
0.0
 40
1.8
  1
40
 41
0.66
 72
    1
  0
TEXT
  8
RAND_SYM
 10
60.0
 20
8.0
 30
0.0
 11
60.0
 21
8.0
 31
0.0
 40
1.8
  1
50
 41
0.66
 72
    1
  0
TEXT
  8
RAND_SYM
 10
70.0
 20
8.0
 30
0.0
 11
70.0
 21
8.0
 31
0.0
 40
1.8
  1
60
 41
0.66
 72
    1
  0
TEXT
  8
RAND_SYM
 10
80.0
 20
8.0
 30
0.0
 11
80.0
 21
8.0
 31
0.0
 40
1.8
  1
70
 41
0.66
 72
    1
  0
TEXT
  8
RAND_SYM
 10
90.0
 20
8.0
 30
0.0
 11
90.0
 21
8.0
 31
0.0
 40
1.8
  1
80
 41
0.66
 72
    1
  0
TEXT
  8
RAND_SYM
 10
100.0
 20
8.0
 30
0.0
 11
100.0
 21
8.0
 31
0.0
 40
1.8
  1
90
 41
0.66
 72
    1
  0
TEXT
  8
RAND_SYM
 10
102.5
 20
8.0
 30
0.0
 40
1.8
  1
Meter
 41
0.66
  0
ENDBLK
  0
BLOCK
  8
RAND_SYM
  2
SYM391
 70
    64
 10
0.0
 20
0.0
 30
0.0
  3
Hinweis auf übernommene Grenzen
  0
TEXT
  8
RAND_SYM
 10
0.0
 20
8.0
 30
0.0
 40
1.8
  1
Anmerkung: Lang gestrichelte Grenzen sind aus der
 41
0.66
  0
TEXT
  8
RAND_SYM
 10
0.0
 20
4.0
 30
0.0
 40
1.8
  1
           Flurkarte 1:5000 oder 1:2500 übertragen
 41
0.66
  0
TEXT
  8
RAND_SYM
 10
0.0
 20
0.0
 30
0.0
 40
1.8
  1
           und zur Maßentnahme nur beschränkt geeignet.
 41
0.66
  0
ENDBLK
  0
BLOCK
  8
RAND_SYM
  2
SYM392
 70
    64
 10
0.0
 20
0.0
 30
0.0
  3
Vermerk über Vervielfältigungsvorbehalt
  0
TEXT
  8
RAND_SYM
 10
0.0
 20
9.0
 30
0.0
 40
1.8
  1
Die Erstellung von Auszügen aus dem Katasterkartenwerk ist der das
 41
0.66
  0
TEXT
  8
RAND_SYM
 10
0.0
 20
6.0
 30
0.0
 40
1.8
  1
Kataster führenden Behörde vorbehalten (Art.11 Abs.4 VermKatG).
 41
0.66
  0
TEXT
  8
RAND_SYM
 10
0.0
 20
3.0
 30
0.0
 40
1.8
  1
Vervielfältigungen (kopiert bzw. digitalisiert und EDV-gespeichert)
 41
0.66
  0
TEXT
  8
RAND_SYM
 10
0.0
 20
0.0
 30
0.0
 40
1.8
  1
nur für den eigenen Bedarf. Weitergabe an Dritte nicht erlaubt.
 41
0.66
  0
ENDBLK
  0
BLOCK
  8
RAND_SYM
  2
SYM393
 70
    64
 10
0.0
 20
0.0
 30
0.0
  3
Vermerk über Grundbuch und Gebäudenachweis
  0
TEXT
  8
RAND_SYM
 10
0.0
 20
6.0
 30
0.0
 40
1.8
  1
In der Darstellung der Grenzen können Veränderungen berück-
 41
0.66
  0
TEXT
  8
RAND_SYM
 10
0.0
 20
3.0
 30
0.0
 40
1.8
  1
sichtigt sein, die noch nicht in das Grundbuch übernommen sind.
 41
0.66
  0
TEXT
  8
RAND_SYM
 10
0.0
 20
0.0
 30
0.0
 40
1.8
  1
Der Gebäudenachweis kann vom örtlichen Bestand abweichen.
 41
0.66
  0
ENDBLK
  0
BLOCK
  8
RAND_SYM
  2
SYM396
 70
    64
 10
0.0
 20
0.0
 30
0.0
  3
Schriftzug "DFK"
  0
TEXT
  8
RAND_SYM
 10
0.0
 20
0.0
 30
0.0
 40
10.0
  1
DFK
 41
0.66
  0
ENDBLK
  0
BLOCK
  8
RAND_SYM
  2
SYM400
 70
    64
 10
0.0
 20
0.0
 30
0.0
  3
Schnittpunkt der Gitterlinien
  0
LINE
  8
RAND_SYM
 10
-1.0
 20
0.0
 30
0.0
 11
1.0
 21
0.0
 31
0.0
  0
LINE
  8
RAND_SYM
 10
0.0
 20
-1.0
 30
0.0
 11
0.0
 21
1.0
 31
0.0
  0
ENDBLK
  0
BLOCK
  8
RAND_SYM
  2
SYM401
 70
    64
 10
0.0
 20
0.0
 30
0.0
  3
Schnittpunkt der Gitterlinien mit dem Bildrahmen
  0
LINE
  8
RAND_SYM
 10
0.0
 20
0.0
 30
0.0
 11
1.0
 21
0.0
 31
0.0
  0
ENDBLK
  0
BLOCK
  8
RAND_SYM
  2
SYM402
 70
    64
 10
0.0
 20
0.0
 30
0.0
  3
Schnittpunkt der Linien
  0
LINE
  8
RAND_SYM
 10
-1.5
 20
0.0
 30
0.0
 11
1.5
 21
0.0
 31
0.0
  0
LINE
  8
RAND_SYM
 10
0.0
 20
1.5
 30
0.0
 11
0.0
 21
-1.5
 31
0.0
  0
ENDBLK
  0
BLOCK
  8
RAND_SYM
  2
SYM403
 70
    64
 10
0.0
 20
0.0
 30
0.0
  3
Schnittpunkt der Linien mit dem Bildrahmen
  0
LINE
  8
RAND_SYM
 10
-1.0
 20
0.0
 30
0.0
 11
1.0
 21
0.0
 31
0.0
  0
ENDBLK
  0
BLOCK
  8
PKT_NUMMER
  2
PKT_NR_SYM
 70
    64
 10
0.0
 20
0.0
 30
0.0
  3
Hilfssymbol fuer Punktnummern
  0
CIRCLE
  8
PKT_NUMMER
 10
0.0
 20
0.0
 30
0.0
 40
0.11
  0
ENDBLK
  0
BLOCK
  8
PKT_NUMMER
  2
PKT_NR_SYM_0
 70
    64
 10
0.0
 20
0.0
 30
0.0
  0
INSERT
  8
PKT_NUMMER
  2
PKT_NR_SYM
 10
0.0
 20
0.0
 30
0.0
  0
TEXT
  8
PKT_NUMMER
 10
1.0
 20
1.0
 30
0.0
 40
1.8
  1
201240110605(8)
 41
0.66
  0
ENDBLK
  0
BLOCK
  8
PKT_NUMMER
  2
PKT_NR_SYM_1
 70
    64
 10
0.0
 20
0.0
 30
0.0
  0
INSERT
  8
PKT_NUMMER
  2
PKT_NR_SYM
 10
0.0
 20
0.0
 30
0.0
  0
TEXT
  8
PKT_NUMMER
 10
1.0
 20
1.0
 30
0.0
 40
1.8
  1
201240110608(8)
 41
0.66
  0
ENDBLK
  0
BLOCK
  8
PKT_NUMMER
  2
PKT_NR_SYM_2
 70
    64
 10
0.0
 20
0.0
 30
0.0
  0
INSERT
  8
PKT_NUMMER
  2
PKT_NR_SYM
 10
0.0
 20
0.0
 30
0.0
  0
TEXT
  8
PKT_NUMMER
 10
1.0
 20
1.0
 30
0.0
 40
1.8
  1
201240110607(8)
 41
0.66
  0
ENDBLK
  0
BLOCK
  8
PKT_NUMMER
  2
PKT_NR_SYM_3
 70
    64
 10
0.0
 20
0.0
 30
0.0
  0
INSERT
  8
PKT_NUMMER
  2
PKT_NR_SYM
 10
0.0
 20
0.0
 30
0.0
  0
TEXT
  8
PKT_NUMMER
 10
1.0
 20
1.0
 30
0.0
 40
1.8
  1
201240110604(8)
 41
0.66
  0
ENDBLK
  0
BLOCK
  8
PKT_NUMMER
  2
PKT_NR_SYM_4
 70
    64
 10
0.0
 20
0.0
 30
0.0
  0
INSERT
  8
PKT_NUMMER
  2
PKT_NR_SYM
 10
0.0
 20
0.0
 30
0.0
  0
TEXT
  8
PKT_NUMMER
 10
1.0
 20
1.0
 30
0.0
 40
1.8
  1
201240110606(8)
 41
0.66
  0
ENDBLK
  0
BLOCK
  8
PKT_NUMMER
  2
PKT_NR_SYM_5
 70
    64
 10
0.0
 20
0.0
 30
0.0
  0
INSERT
  8
PKT_NUMMER
  2
PKT_NR_SYM
 10
0.0
 20
0.0
 30
0.0
  0
TEXT
  8
PKT_NUMMER
 10
1.0
 20
1.0
 30
0.0
 40
1.8
  1
201240110502(8)
 41
0.66
  0
ENDBLK
  0
BLOCK
  8
PKT_NUMMER
  2
PKT_NR_SYM_6
 70
    64
 10
0.0
 20
0.0
 30
0.0
  0
INSERT
  8
PKT_NUMMER
  2
PKT_NR_SYM
 10
0.0
 20
0.0
 30
0.0
  0
TEXT
  8
PKT_NUMMER
 10
1.0
 20
1.0
 30
0.0
 40
1.8
  1
201240110600(8)
 41
0.66
  0
ENDBLK
  0
BLOCK
  8
PKT_NUMMER
  2
PKT_NR_SYM_7
 70
    64
 10
0.0
 20
0.0
 30
0.0
  0
INSERT
  8
PKT_NUMMER
  2
PKT_NR_SYM
 10
0.0
 20
0.0
 30
0.0
  0
TEXT
  8
PKT_NUMMER
 10
1.0
 20
1.0
 30
0.0
 40
1.8
  1
201240110601(8)
 41
0.66
  0
ENDBLK
  0
BLOCK
  8
PKT_NUMMER
  2
PKT_NR_SYM_8
 70
    64
 10
0.0
 20
0.0
 30
0.0
  0
INSERT
  8
PKT_NUMMER
  2
PKT_NR_SYM
 10
0.0
 20
0.0
 30
0.0
  0
TEXT
  8
PKT_NUMMER
 10
1.0
 20
1.0
 30
0.0
 40
1.8
  1
201240110705(8)
 41
0.66
  0
ENDBLK
  0
BLOCK
  8
PKT_NUMMER
  2
PKT_NR_SYM_9
 70
    64
 10
0.0
 20
0.0
 30
0.0
  0
INSERT
  8
PKT_NUMMER
  2
PKT_NR_SYM
 10
0.0
 20
0.0
 30
0.0
  0
TEXT
  8
PKT_NUMMER
 10
1.0
 20
1.0
 30
0.0
 40
1.8
  1
201240113555(5)
 41
0.66
  0
ENDBLK
  0
BLOCK
  8
PKT_NUMMER
  2
PKT_NR_SYM_10
 70
    64
 10
0.0
 20
0.0
 30
0.0
  0
INSERT
  8
PKT_NUMMER
  2
PKT_NR_SYM
 10
0.0
 20
0.0
 30
0.0
  0
TEXT
  8
PKT_NUMMER
 10
1.0
 20
1.0
 30
0.0
 40
1.8
  1
201240113554(5)
 41
0.66
  0
ENDBLK
  0
BLOCK
  8
PKT_NUMMER
  2
PKT_NR_SYM_11
 70
    64
 10
0.0
 20
0.0
 30
0.0
  0
INSERT
  8
PKT_NUMMER
  2
PKT_NR_SYM
 10
0.0
 20
0.0
 30
0.0
  0
TEXT
  8
PKT_NUMMER
 10
1.0
 20
1.0
 30
0.0
 40
1.8
  1
201240113564(5)
 41
0.66
  0
ENDBLK
  0
BLOCK
  8
PKT_NUMMER
  2
PKT_NR_SYM_12
 70
    64
 10
0.0
 20
0.0
 30
0.0
  0
INSERT
  8
PKT_NUMMER
  2
PKT_NR_SYM
 10
0.0
 20
0.0
 30
0.0
  0
TEXT
  8
PKT_NUMMER
 10
1.0
 20
1.0
 30
0.0
 40
1.8
  1
201240113552(5)
 41
0.66
  0
ENDBLK
  0
BLOCK
  8
PKT_NUMMER
  2
PKT_NR_SYM_13
 70
    64
 10
0.0
 20
0.0
 30
0.0
  0
INSERT
  8
PKT_NUMMER
  2
PKT_NR_SYM
 10
0.0
 20
0.0
 30
0.0
  0
TEXT
  8
PKT_NUMMER
 10
1.0
 20
1.0
 30
0.0
 40
1.8
  1
201240113556(5)
 41
0.66
  0
ENDBLK
  0
BLOCK
  8
PKT_NUMMER
  2
PKT_NR_SYM_14
 70
    64
 10
0.0
 20
0.0
 30
0.0
  0
INSERT
  8
PKT_NUMMER
  2
PKT_NR_SYM
 10
0.0
 20
0.0
 30
0.0
  0
TEXT
  8
PKT_NUMMER
 10
1.0
 20
1.0
 30
0.0
 40
1.8
  1
201240113557(5)
 41
0.66
  0
ENDBLK
  0
BLOCK
  8
PKT_NUMMER
  2
PKT_NR_SYM_15
 70
    64
 10
0.0
 20
0.0
 30
0.0
  0
INSERT
  8
PKT_NUMMER
  2
PKT_NR_SYM
 10
0.0
 20
0.0
 30
0.0
  0
TEXT
  8
PKT_NUMMER
 10
1.0
 20
1.0
 30
0.0
 40
1.8
  1
201240113560(5)
 41
0.66
  0
ENDBLK
  0
BLOCK
  8
PKT_NUMMER
  2
PKT_NR_SYM_16
 70
    64
 10
0.0
 20
0.0
 30
0.0
  0
INSERT
  8
PKT_NUMMER
  2
PKT_NR_SYM
 10
0.0
 20
0.0
 30
0.0
  0
TEXT
  8
PKT_NUMMER
 10
1.0
 20
1.0
 30
0.0
 40
1.8
  1
201240113559(5)
 41
0.66
  0
ENDBLK
  0
BLOCK
  8
PKT_NUMMER
  2
PKT_NR_SYM_17
 70
    64
 10
0.0
 20
0.0
 30
0.0
  0
INSERT
  8
PKT_NUMMER
  2
PKT_NR_SYM
 10
0.0
 20
0.0
 30
0.0
  0
TEXT
  8
PKT_NUMMER
 10
1.0
 20
1.0
 30
0.0
 40
1.8
  1
201240113562(5)
 41
0.66
  0
ENDBLK
  0
BLOCK
  8
PKT_NUMMER
  2
PKT_NR_SYM_18
 70
    64
 10
0.0
 20
0.0
 30
0.0
  0
INSERT
  8
PKT_NUMMER
  2
PKT_NR_SYM
 10
0.0
 20
0.0
 30
0.0
  0
TEXT
  8
PKT_NUMMER
 10
1.0
 20
1.0
 30
0.0
 40
1.8
  1
201240113558(5)
 41
0.66
  0
ENDBLK
  0
BLOCK
  8
PKT_NUMMER
  2
PKT_NR_SYM_19
 70
    64
 10
0.0
 20
0.0
 30
0.0
  0
INSERT
  8
PKT_NUMMER
  2
PKT_NR_SYM
 10
0.0
 20
0.0
 30
0.0
  0
TEXT
  8
PKT_NUMMER
 10
1.0
 20
1.0
 30
0.0
 40
1.8
  1
201240113563(5)
 41
0.66
  0
ENDBLK
  0
BLOCK
  8
PKT_NUMMER
  2
PKT_NR_SYM_20
 70
    64
 10
0.0
 20
0.0
 30
0.0
  0
INSERT
  8
PKT_NUMMER
  2
PKT_NR_SYM
 10
0.0
 20
0.0
 30
0.0
  0
TEXT
  8
PKT_NUMMER
 10
1.0
 20
1.0
 30
0.0
 40
1.8
  1
201240113561(5)
 41
0.66
  0
ENDBLK
  0
BLOCK
  8
PKT_NUMMER
  2
PKT_NR_SYM_21
 70
    64
 10
0.0
 20
0.0
 30
0.0
  0
INSERT
  8
PKT_NUMMER
  2
PKT_NR_SYM
 10
0.0
 20
0.0
 30
0.0
  0
TEXT
  8
PKT_NUMMER
 10
1.0
 20
1.0
 30
0.0
 40
1.8
  1
201240113565(5)
 41
0.66
  0
ENDBLK
  0
BLOCK
  8
PKT_NUMMER
  2
PKT_NR_SYM_22
 70
    64
 10
0.0
 20
0.0
 30
0.0
  0
INSERT
  8
PKT_NUMMER
  2
PKT_NR_SYM
 10
0.0
 20
0.0
 30
0.0
  0
TEXT
  8
PKT_NUMMER
 10
1.0
 20
1.0
 30
0.0
 40
1.8
  1
201240113696(8)
 41
0.66
  0
ENDBLK
  0
BLOCK
  8
PKT_NUMMER
  2
PKT_NR_SYM_23
 70
    64
 10
0.0
 20
0.0
 30
0.0
  0
INSERT
  8
PKT_NUMMER
  2
PKT_NR_SYM
 10
0.0
 20
0.0
 30
0.0
  0
TEXT
  8
PKT_NUMMER
 10
1.0
 20
1.0
 30
0.0
 40
1.8
  1
201240115091(8)
 41
0.66
  0
ENDBLK
  0
BLOCK
  8
PKT_NUMMER
  2
PKT_NR_SYM_24
 70
    64
 10
0.0
 20
0.0
 30
0.0
  0
INSERT
  8
PKT_NUMMER
  2
PKT_NR_SYM
 10
0.0
 20
0.0
 30
0.0
  0
TEXT
  8
PKT_NUMMER
 10
1.0
 20
1.0
 30
0.0
 40
1.8
  1
201240113695(8)
 41
0.66
  0
ENDBLK
  0
BLOCK
  8
PKT_NUMMER
  2
PKT_NR_SYM_25
 70
    64
 10
0.0
 20
0.0
 30
0.0
  0
INSERT
  8
PKT_NUMMER
  2
PKT_NR_SYM
 10
0.0
 20
0.0
 30
0.0
  0
TEXT
  8
PKT_NUMMER
 10
1.0
 20
1.0
 30
0.0
 40
1.8
  1
201240113685(8)
 41
0.66
  0
ENDBLK
  0
BLOCK
  8
PKT_NUMMER
  2
PKT_NR_SYM_26
 70
    64
 10
0.0
 20
0.0
 30
0.0
  0
INSERT
  8
PKT_NUMMER
  2
PKT_NR_SYM
 10
0.0
 20
0.0
 30
0.0
  0
TEXT
  8
PKT_NUMMER
 10
1.0
 20
1.0
 30
0.0
 40
1.8
  1
201240115093(8)
 41
0.66
  0
ENDBLK
  0
BLOCK
  8
PKT_NUMMER
  2
PKT_NR_SYM_27
 70
    64
 10
0.0
 20
0.0
 30
0.0
  0
INSERT
  8
PKT_NUMMER
  2
PKT_NR_SYM
 10
0.0
 20
0.0
 30
0.0
  0
TEXT
  8
PKT_NUMMER
 10
1.0
 20
1.0
 30
0.0
 40
1.8
  1
201240115100(8)
 41
0.66
  0
ENDBLK
  0
BLOCK
  8
PKT_NUMMER
  2
PKT_NR_SYM_28
 70
    64
 10
0.0
 20
0.0
 30
0.0
  0
INSERT
  8
PKT_NUMMER
  2
PKT_NR_SYM
 10
0.0
 20
0.0
 30
0.0
  0
TEXT
  8
PKT_NUMMER
 10
1.0
 20
1.0
 30
0.0
 40
1.8
  1
201240115647(8)
 41
0.66
  0
ENDBLK
  0
BLOCK
  8
PKT_NUMMER
  2
PKT_NR_SYM_29
 70
    64
 10
0.0
 20
0.0
 30
0.0
  0
INSERT
  8
PKT_NUMMER
  2
PKT_NR_SYM
 10
0.0
 20
0.0
 30
0.0
  0
TEXT
  8
PKT_NUMMER
 10
1.0
 20
1.0
 30
0.0
 40
1.8
  1
201240110127(5)
 41
0.66
  0
ENDBLK
  0
BLOCK
  8
PKT_NUMMER
  2
PKT_NR_SYM_30
 70
    64
 10
0.0
 20
0.0
 30
0.0
  0
INSERT
  8
PKT_NUMMER
  2
PKT_NR_SYM
 10
0.0
 20
0.0
 30
0.0
  0
TEXT
  8
PKT_NUMMER
 10
1.0
 20
1.0
 30
0.0
 40
1.8
  1
201240115944(8)
 41
0.66
  0
ENDBLK
  0
BLOCK
  8
PKT_NUMMER
  2
PKT_NR_SYM_31
 70
    64
 10
0.0
 20
0.0
 30
0.0
  0
INSERT
  8
PKT_NUMMER
  2
PKT_NR_SYM
 10
0.0
 20
0.0
 30
0.0
  0
TEXT
  8
PKT_NUMMER
 10
1.0
 20
1.0
 30
0.0
 40
1.8
  1
201240115949(8)
 41
0.66
  0
ENDBLK
  0
BLOCK
  8
PKT_NUMMER
  2
PKT_NR_SYM_32
 70
    64
 10
0.0
 20
0.0
 30
0.0
  0
INSERT
  8
PKT_NUMMER
  2
PKT_NR_SYM
 10
0.0
 20
0.0
 30
0.0
  0
TEXT
  8
PKT_NUMMER
 10
1.0
 20
1.0
 30
0.0
 40
1.8
  1
201240113680(8)
 41
0.66
  0
ENDBLK
  0
BLOCK
  8
PKT_NUMMER
  2
PKT_NR_SYM_33
 70
    64
 10
0.0
 20
0.0
 30
0.0
  0
INSERT
  8
PKT_NUMMER
  2
PKT_NR_SYM
 10
0.0
 20
0.0
 30
0.0
  0
TEXT
  8
PKT_NUMMER
 10
1.0
 20
1.0
 30
0.0
 40
1.8
  1
201240110319(8)
 41
0.66
  0
ENDBLK
  0
BLOCK
  8
PKT_NUMMER
  2
PKT_NR_SYM_34
 70
    64
 10
0.0
 20
0.0
 30
0.0
  0
INSERT
  8
PKT_NUMMER
  2
PKT_NR_SYM
 10
0.0
 20
0.0
 30
0.0
  0
TEXT
  8
PKT_NUMMER
 10
1.0
 20
1.0
 30
0.0
 40
1.8
  1
201240110318(8)
 41
0.66
  0
ENDBLK
  0
BLOCK
  8
PKT_NUMMER
  2
PKT_NR_SYM_35
 70
    64
 10
0.0
 20
0.0
 30
0.0
  0
INSERT
  8
PKT_NUMMER
  2
PKT_NR_SYM
 10
0.0
 20
0.0
 30
0.0
  0
TEXT
  8
PKT_NUMMER
 10
1.0
 20
1.0
 30
0.0
 40
1.8
  1
201240116117(8)
 41
0.66
  0
ENDBLK
  0
BLOCK
  8
PKT_NUMMER
  2
PKT_NR_SYM_36
 70
    64
 10
0.0
 20
0.0
 30
0.0
  0
INSERT
  8
PKT_NUMMER
  2
PKT_NR_SYM
 10
0.0
 20
0.0
 30
0.0
  0
TEXT
  8
PKT_NUMMER
 10
1.0
 20
1.0
 30
0.0
 40
1.8
  1
201240110316(8)
 41
0.66
  0
ENDBLK
  0
BLOCK
  8
PKT_NUMMER
  2
PKT_NR_SYM_37
 70
    64
 10
0.0
 20
0.0
 30
0.0
  0
INSERT
  8
PKT_NUMMER
  2
PKT_NR_SYM
 10
0.0
 20
0.0
 30
0.0
  0
TEXT
  8
PKT_NUMMER
 10
1.0
 20
1.0
 30
0.0
 40
1.8
  1
201240110315(8)
 41
0.66
  0
ENDBLK
  0
BLOCK
  8
PKT_NUMMER
  2
PKT_NR_SYM_38
 70
    64
 10
0.0
 20
0.0
 30
0.0
  0
INSERT
  8
PKT_NUMMER
  2
PKT_NR_SYM
 10
0.0
 20
0.0
 30
0.0
  0
TEXT
  8
PKT_NUMMER
 10
1.0
 20
1.0
 30
0.0
 40
1.8
  1
201240110602(8)
 41
0.66
  0
ENDBLK
  0
BLOCK
  8
PKT_NUMMER
  2
PKT_NR_SYM_39
 70
    64
 10
0.0
 20
0.0
 30
0.0
  0
INSERT
  8
PKT_NUMMER
  2
PKT_NR_SYM
 10
0.0
 20
0.0
 30
0.0
  0
TEXT
  8
PKT_NUMMER
 10
1.0
 20
1.0
 30
0.0
 40
1.8
  1
201240110317(8)
 41
0.66
  0
ENDBLK
  0
BLOCK
  8
PKT_NUMMER
  2
PKT_NR_SYM_40
 70
    64
 10
0.0
 20
0.0
 30
0.0
  0
INSERT
  8
PKT_NUMMER
  2
PKT_NR_SYM
 10
0.0
 20
0.0
 30
0.0
  0
TEXT
  8
PKT_NUMMER
 10
1.0
 20
1.0
 30
0.0
 40
1.8
  1
201240110306(8)
 41
0.66
  0
ENDBLK
  0
BLOCK
  8
PKT_NUMMER
  2
PKT_NR_SYM_41
 70
    64
 10
0.0
 20
0.0
 30
0.0
  0
INSERT
  8
PKT_NUMMER
  2
PKT_NR_SYM
 10
0.0
 20
0.0
 30
0.0
  0
TEXT
  8
PKT_NUMMER
 10
1.0
 20
1.0
 30
0.0
 40
1.8
  1
201240115653(8)
 41
0.66
  0
ENDBLK
  0
BLOCK
  8
PKT_NUMMER
  2
PKT_NR_SYM_42
 70
    64
 10
0.0
 20
0.0
 30
0.0
  0
INSERT
  8
PKT_NUMMER
  2
PKT_NR_SYM
 10
0.0
 20
0.0
 30
0.0
  0
TEXT
  8
PKT_NUMMER
 10
1.0
 20
1.0
 30
0.0
 40
1.8
  1
201240110460(8)
 41
0.66
  0
ENDBLK
  0
BLOCK
  8
PKT_NUMMER
  2
PKT_NR_SYM_43
 70
    64
 10
0.0
 20
0.0
 30
0.0
  0
INSERT
  8
PKT_NUMMER
  2
PKT_NR_SYM
 10
0.0
 20
0.0
 30
0.0
  0
TEXT
  8
PKT_NUMMER
 10
1.0
 20
1.0
 30
0.0
 40
1.8
  1
201240110459(8)
 41
0.66
  0
ENDBLK
  0
BLOCK
  8
PKT_NUMMER
  2
PKT_NR_SYM_44
 70
    64
 10
0.0
 20
0.0
 30
0.0
  0
INSERT
  8
PKT_NUMMER
  2
PKT_NR_SYM
 10
0.0
 20
0.0
 30
0.0
  0
TEXT
  8
PKT_NUMMER
 10
1.0
 20
1.0
 30
0.0
 40
1.8
  1
201240110458(8)
 41
0.66
  0
ENDBLK
  0
BLOCK
  8
PKT_NUMMER
  2
PKT_NR_SYM_45
 70
    64
 10
0.0
 20
0.0
 30
0.0
  0
INSERT
  8
PKT_NUMMER
  2
PKT_NR_SYM
 10
0.0
 20
0.0
 30
0.0
  0
TEXT
  8
PKT_NUMMER
 10
1.0
 20
1.0
 30
0.0
 40
1.8
  1
201240110989(5)
 41
0.66
  0
ENDBLK
  0
BLOCK
  8
PKT_NUMMER
  2
PKT_NR_SYM_46
 70
    64
 10
0.0
 20
0.0
 30
0.0
  0
INSERT
  8
PKT_NUMMER
  2
PKT_NR_SYM
 10
0.0
 20
0.0
 30
0.0
  0
TEXT
  8
PKT_NUMMER
 10
1.0
 20
1.0
 30
0.0
 40
1.8
  1
201240110330(8)
 41
0.66
  0
ENDBLK
  0
BLOCK
  8
PKT_NUMMER
  2
PKT_NR_SYM_47
 70
    64
 10
0.0
 20
0.0
 30
0.0
  0
INSERT
  8
PKT_NUMMER
  2
PKT_NR_SYM
 10
0.0
 20
0.0
 30
0.0
  0
TEXT
  8
PKT_NUMMER
 10
1.0
 20
1.0
 30
0.0
 40
1.8
  1
201240110331(8)
 41
0.66
  0
ENDBLK
  0
BLOCK
  8
PKT_NUMMER
  2
PKT_NR_SYM_48
 70
    64
 10
0.0
 20
0.0
 30
0.0
  0
INSERT
  8
PKT_NUMMER
  2
PKT_NR_SYM
 10
0.0
 20
0.0
 30
0.0
  0
TEXT
  8
PKT_NUMMER
 10
1.0
 20
1.0
 30
0.0
 40
1.8
  1
201240110344(8)
 41
0.66
  0
ENDBLK
  0
BLOCK
  8
PKT_NUMMER
  2
PKT_NR_SYM_49
 70
    64
 10
0.0
 20
0.0
 30
0.0
  0
INSERT
  8
PKT_NUMMER
  2
PKT_NR_SYM
 10
0.0
 20
0.0
 30
0.0
  0
TEXT
  8
PKT_NUMMER
 10
1.0
 20
1.0
 30
0.0
 40
1.8
  1
201240110343(8)
 41
0.66
  0
ENDBLK
  0
BLOCK
  8
PKT_NUMMER
  2
PKT_NR_SYM_50
 70
    64
 10
0.0
 20
0.0
 30
0.0
  0
INSERT
  8
PKT_NUMMER
  2
PKT_NR_SYM
 10
0.0
 20
0.0
 30
0.0
  0
TEXT
  8
PKT_NUMMER
 10
1.0
 20
1.0
 30
0.0
 40
1.8
  1
201240110342(8)
 41
0.66
  0
ENDBLK
  0
BLOCK
  8
PKT_NUMMER
  2
PKT_NR_SYM_51
 70
    64
 10
0.0
 20
0.0
 30
0.0
  0
INSERT
  8
PKT_NUMMER
  2
PKT_NR_SYM
 10
0.0
 20
0.0
 30
0.0
  0
TEXT
  8
PKT_NUMMER
 10
1.0
 20
1.0
 30
0.0
 40
1.8
  1
201240110883(5)
 41
0.66
  0
ENDBLK
  0
BLOCK
  8
PKT_NUMMER
  2
PKT_NR_SYM_52
 70
    64
 10
0.0
 20
0.0
 30
0.0
  0
INSERT
  8
PKT_NUMMER
  2
PKT_NR_SYM
 10
0.0
 20
0.0
 30
0.0
  0
TEXT
  8
PKT_NUMMER
 10
1.0
 20
1.0
 30
0.0
 40
1.8
  1
201240116193(8)
 41
0.66
  0
ENDBLK
  0
BLOCK
  8
PKT_NUMMER
  2
PKT_NR_SYM_53
 70
    64
 10
0.0
 20
0.0
 30
0.0
  0
INSERT
  8
PKT_NUMMER
  2
PKT_NR_SYM
 10
0.0
 20
0.0
 30
0.0
  0
TEXT
  8
PKT_NUMMER
 10
1.0
 20
1.0
 30
0.0
 40
1.8
  1
201240110301(8)
 41
0.66
  0
ENDBLK
  0
BLOCK
  8
PKT_NUMMER
  2
PKT_NR_SYM_54
 70
    64
 10
0.0
 20
0.0
 30
0.0
  0
INSERT
  8
PKT_NUMMER
  2
PKT_NR_SYM
 10
0.0
 20
0.0
 30
0.0
  0
TEXT
  8
PKT_NUMMER
 10
1.0
 20
1.0
 30
0.0
 40
1.8
  1
201240110383(8)
 41
0.66
  0
ENDBLK
  0
BLOCK
  8
PKT_NUMMER
  2
PKT_NR_SYM_55
 70
    64
 10
0.0
 20
0.0
 30
0.0
  0
INSERT
  8
PKT_NUMMER
  2
PKT_NR_SYM
 10
0.0
 20
0.0
 30
0.0
  0
TEXT
  8
PKT_NUMMER
 10
1.0
 20
1.0
 30
0.0
 40
1.8
  1
201240110008(5)
 41
0.66
  0
ENDBLK
  0
BLOCK
  8
PKT_NUMMER
  2
PKT_NR_SYM_56
 70
    64
 10
0.0
 20
0.0
 30
0.0
  0
INSERT
  8
PKT_NUMMER
  2
PKT_NR_SYM
 10
0.0
 20
0.0
 30
0.0
  0
TEXT
  8
PKT_NUMMER
 10
1.0
 20
1.0
 30
0.0
 40
1.8
  1
201240110009(5)
 41
0.66
  0
ENDBLK
  0
BLOCK
  8
PKT_NUMMER
  2
PKT_NR_SYM_57
 70
    64
 10
0.0
 20
0.0
 30
0.0
  0
INSERT
  8
PKT_NUMMER
  2
PKT_NR_SYM
 10
0.0
 20
0.0
 30
0.0
  0
TEXT
  8
PKT_NUMMER
 10
1.0
 20
1.0
 30
0.0
 40
1.8
  1
201240110010(5)
 41
0.66
  0
ENDBLK
  0
BLOCK
  8
PKT_NUMMER
  2
PKT_NR_SYM_58
 70
    64
 10
0.0
 20
0.0
 30
0.0
  0
INSERT
  8
PKT_NUMMER
  2
PKT_NR_SYM
 10
0.0
 20
0.0
 30
0.0
  0
TEXT
  8
PKT_NUMMER
 10
1.0
 20
1.0
 30
0.0
 40
1.8
  1
201240110384(8)
 41
0.66
  0
ENDBLK
  0
BLOCK
  8
PKT_NUMMER
  2
PKT_NR_SYM_59
 70
    64
 10
0.0
 20
0.0
 30
0.0
  0
INSERT
  8
PKT_NUMMER
  2
PKT_NR_SYM
 10
0.0
 20
0.0
 30
0.0
  0
TEXT
  8
PKT_NUMMER
 10
1.0
 20
1.0
 30
0.0
 40
1.8
  1
201240110385(8)
 41
0.66
  0
ENDBLK
  0
BLOCK
  8
PKT_NUMMER
  2
PKT_NR_SYM_60
 70
    64
 10
0.0
 20
0.0
 30
0.0
  0
INSERT
  8
PKT_NUMMER
  2
PKT_NR_SYM
 10
0.0
 20
0.0
 30
0.0
  0
TEXT
  8
PKT_NUMMER
 10
1.0
 20
1.0
 30
0.0
 40
1.8
  1
201240110011(5)
 41
0.66
  0
ENDBLK
  0
BLOCK
  8
PKT_NUMMER
  2
PKT_NR_SYM_61
 70
    64
 10
0.0
 20
0.0
 30
0.0
  0
INSERT
  8
PKT_NUMMER
  2
PKT_NR_SYM
 10
0.0
 20
0.0
 30
0.0
  0
TEXT
  8
PKT_NUMMER
 10
1.0
 20
1.0
 30
0.0
 40
1.8
  1
201240110012(5)
 41
0.66
  0
ENDBLK
  0
BLOCK
  8
PKT_NUMMER
  2
PKT_NR_SYM_62
 70
    64
 10
0.0
 20
0.0
 30
0.0
  0
INSERT
  8
PKT_NUMMER
  2
PKT_NR_SYM
 10
0.0
 20
0.0
 30
0.0
  0
TEXT
  8
PKT_NUMMER
 10
1.0
 20
1.0
 30
0.0
 40
1.8
  1
201240110386(8)
 41
0.66
  0
ENDBLK
  0
BLOCK
  8
PKT_NUMMER
  2
PKT_NR_SYM_63
 70
    64
 10
0.0
 20
0.0
 30
0.0
  0
INSERT
  8
PKT_NUMMER
  2
PKT_NR_SYM
 10
0.0
 20
0.0
 30
0.0
  0
TEXT
  8
PKT_NUMMER
 10
1.0
 20
1.0
 30
0.0
 40
1.8
  1
201240110013(5)
 41
0.66
  0
ENDBLK
  0
BLOCK
  8
PKT_NUMMER
  2
PKT_NR_SYM_64
 70
    64
 10
0.0
 20
0.0
 30
0.0
  0
INSERT
  8
PKT_NUMMER
  2
PKT_NR_SYM
 10
0.0
 20
0.0
 30
0.0
  0
TEXT
  8
PKT_NUMMER
 10
1.0
 20
1.0
 30
0.0
 40
1.8
  1
201240110014(5)
 41
0.66
  0
ENDBLK
  0
BLOCK
  8
PKT_NUMMER
  2
PKT_NR_SYM_65
 70
    64
 10
0.0
 20
0.0
 30
0.0
  0
INSERT
  8
PKT_NUMMER
  2
PKT_NR_SYM
 10
0.0
 20
0.0
 30
0.0
  0
TEXT
  8
PKT_NUMMER
 10
1.0
 20
1.0
 30
0.0
 40
1.8
  1
201240110015(5)
 41
0.66
  0
ENDBLK
  0
BLOCK
  8
PKT_NUMMER
  2
PKT_NR_SYM_66
 70
    64
 10
0.0
 20
0.0
 30
0.0
  0
INSERT
  8
PKT_NUMMER
  2
PKT_NR_SYM
 10
0.0
 20
0.0
 30
0.0
  0
TEXT
  8
PKT_NUMMER
 10
1.0
 20
1.0
 30
0.0
 40
1.8
  1
201240110387(8)
 41
0.66
  0
ENDBLK
  0
BLOCK
  8
PKT_NUMMER
  2
PKT_NR_SYM_67
 70
    64
 10
0.0
 20
0.0
 30
0.0
  0
INSERT
  8
PKT_NUMMER
  2
PKT_NR_SYM
 10
0.0
 20
0.0
 30
0.0
  0
TEXT
  8
PKT_NUMMER
 10
1.0
 20
1.0
 30
0.0
 40
1.8
  1
201240110388(8)
 41
0.66
  0
ENDBLK
  0
BLOCK
  8
PKT_NUMMER
  2
PKT_NR_SYM_68
 70
    64
 10
0.0
 20
0.0
 30
0.0
  0
INSERT
  8
PKT_NUMMER
  2
PKT_NR_SYM
 10
0.0
 20
0.0
 30
0.0
  0
TEXT
  8
PKT_NUMMER
 10
1.0
 20
1.0
 30
0.0
 40
1.8
  1
201240110017(5)
 41
0.66
  0
ENDBLK
  0
BLOCK
  8
PKT_NUMMER
  2
PKT_NR_SYM_69
 70
    64
 10
0.0
 20
0.0
 30
0.0
  0
INSERT
  8
PKT_NUMMER
  2
PKT_NR_SYM
 10
0.0
 20
0.0
 30
0.0
  0
TEXT
  8
PKT_NUMMER
 10
1.0
 20
1.0
 30
0.0
 40
1.8
  1
201240110399(8)
 41
0.66
  0
ENDBLK
  0
BLOCK
  8
PKT_NUMMER
  2
PKT_NR_SYM_70
 70
    64
 10
0.0
 20
0.0
 30
0.0
  0
INSERT
  8
PKT_NUMMER
  2
PKT_NR_SYM
 10
0.0
 20
0.0
 30
0.0
  0
TEXT
  8
PKT_NUMMER
 10
1.0
 20
1.0
 30
0.0
 40
1.8
  1
201240110018(5)
 41
0.66
  0
ENDBLK
  0
BLOCK
  8
PKT_NUMMER
  2
PKT_NR_SYM_71
 70
    64
 10
0.0
 20
0.0
 30
0.0
  0
INSERT
  8
PKT_NUMMER
  2
PKT_NR_SYM
 10
0.0
 20
0.0
 30
0.0
  0
TEXT
  8
PKT_NUMMER
 10
1.0
 20
1.0
 30
0.0
 40
1.8
  1
201240110400(8)
 41
0.66
  0
ENDBLK
  0
BLOCK
  8
PKT_NUMMER
  2
PKT_NR_SYM_72
 70
    64
 10
0.0
 20
0.0
 30
0.0
  0
INSERT
  8
PKT_NUMMER
  2
PKT_NR_SYM
 10
0.0
 20
0.0
 30
0.0
  0
TEXT
  8
PKT_NUMMER
 10
1.0
 20
1.0
 30
0.0
 40
1.8
  1
201240110401(8)
 41
0.66
  0
ENDBLK
  0
BLOCK
  8
PKT_NUMMER
  2
PKT_NR_SYM_73
 70
    64
 10
0.0
 20
0.0
 30
0.0
  0
INSERT
  8
PKT_NUMMER
  2
PKT_NR_SYM
 10
0.0
 20
0.0
 30
0.0
  0
TEXT
  8
PKT_NUMMER
 10
1.0
 20
1.0
 30
0.0
 40
1.8
  1
201240110402(8)
 41
0.66
  0
ENDBLK
  0
BLOCK
  8
PKT_NUMMER
  2
PKT_NR_SYM_74
 70
    64
 10
0.0
 20
0.0
 30
0.0
  0
INSERT
  8
PKT_NUMMER
  2
PKT_NR_SYM
 10
0.0
 20
0.0
 30
0.0
  0
TEXT
  8
PKT_NUMMER
 10
1.0
 20
1.0
 30
0.0
 40
1.8
  1
201240110019(5)
 41
0.66
  0
ENDBLK
  0
BLOCK
  8
PKT_NUMMER
  2
PKT_NR_SYM_75
 70
    64
 10
0.0
 20
0.0
 30
0.0
  0
INSERT
  8
PKT_NUMMER
  2
PKT_NR_SYM
 10
0.0
 20
0.0
 30
0.0
  0
TEXT
  8
PKT_NUMMER
 10
1.0
 20
1.0
 30
0.0
 40
1.8
  1
201240110020(5)
 41
0.66
  0
ENDBLK
  0
BLOCK
  8
PKT_NUMMER
  2
PKT_NR_SYM_76
 70
    64
 10
0.0
 20
0.0
 30
0.0
  0
INSERT
  8
PKT_NUMMER
  2
PKT_NR_SYM
 10
0.0
 20
0.0
 30
0.0
  0
TEXT
  8
PKT_NUMMER
 10
1.0
 20
1.0
 30
0.0
 40
1.8
  1
201240110021(5)
 41
0.66
  0
ENDBLK
  0
BLOCK
  8
PKT_NUMMER
  2
PKT_NR_SYM_77
 70
    64
 10
0.0
 20
0.0
 30
0.0
  0
INSERT
  8
PKT_NUMMER
  2
PKT_NR_SYM
 10
0.0
 20
0.0
 30
0.0
  0
TEXT
  8
PKT_NUMMER
 10
1.0
 20
1.0
 30
0.0
 40
1.8
  1
201240125099(8)
 41
0.66
  0
ENDBLK
  0
BLOCK
  8
PKT_NUMMER
  2
PKT_NR_SYM_78
 70
    64
 10
0.0
 20
0.0
 30
0.0
  0
INSERT
  8
PKT_NUMMER
  2
PKT_NR_SYM
 10
0.0
 20
0.0
 30
0.0
  0
TEXT
  8
PKT_NUMMER
 10
1.0
 20
1.0
 30
0.0
 40
1.8
  1
201240120200(8)
 41
0.66
  0
ENDBLK
  0
BLOCK
  8
PKT_NUMMER
  2
PKT_NR_SYM_79
 70
    64
 10
0.0
 20
0.0
 30
0.0
  0
INSERT
  8
PKT_NUMMER
  2
PKT_NR_SYM
 10
0.0
 20
0.0
 30
0.0
  0
TEXT
  8
PKT_NUMMER
 10
1.0
 20
1.0
 30
0.0
 40
1.8
  1
201240063195(5)
 41
0.66
  0
ENDBLK
  0
BLOCK
  8
PKT_NUMMER
  2
PKT_NR_SYM_80
 70
    64
 10
0.0
 20
0.0
 30
0.0
  0
INSERT
  8
PKT_NUMMER
  2
PKT_NR_SYM
 10
0.0
 20
0.0
 30
0.0
  0
TEXT
  8
PKT_NUMMER
 10
1.0
 20
1.0
 30
0.0
 40
1.8
  1
201240063194(5)
 41
0.66
  0
ENDBLK
  0
BLOCK
  8
PKT_NUMMER
  2
PKT_NR_SYM_81
 70
    64
 10
0.0
 20
0.0
 30
0.0
  0
INSERT
  8
PKT_NUMMER
  2
PKT_NR_SYM
 10
0.0
 20
0.0
 30
0.0
  0
TEXT
  8
PKT_NUMMER
 10
1.0
 20
1.0
 30
0.0
 40
1.8
  1
201240066111(8)
 41
0.66
  0
ENDBLK
  0
BLOCK
  8
PKT_NUMMER
  2
PKT_NR_SYM_82
 70
    64
 10
0.0
 20
0.0
 30
0.0
  0
INSERT
  8
PKT_NUMMER
  2
PKT_NR_SYM
 10
0.0
 20
0.0
 30
0.0
  0
TEXT
  8
PKT_NUMMER
 10
1.0
 20
1.0
 30
0.0
 40
1.8
  1
201240066110(8)
 41
0.66
  0
ENDBLK
  0
BLOCK
  8
PKT_NUMMER
  2
PKT_NR_SYM_83
 70
    64
 10
0.0
 20
0.0
 30
0.0
  0
INSERT
  8
PKT_NUMMER
  2
PKT_NR_SYM
 10
0.0
 20
0.0
 30
0.0
  0
TEXT
  8
PKT_NUMMER
 10
1.0
 20
1.0
 30
0.0
 40
1.8
  1
201240062705(8)
 41
0.66
  0
ENDBLK
  0
BLOCK
  8
PKT_NUMMER
  2
PKT_NR_SYM_84
 70
    64
 10
0.0
 20
0.0
 30
0.0
  0
INSERT
  8
PKT_NUMMER
  2
PKT_NR_SYM
 10
0.0
 20
0.0
 30
0.0
  0
TEXT
  8
PKT_NUMMER
 10
1.0
 20
1.0
 30
0.0
 40
1.8
  1
201240062704(8)
 41
0.66
  0
ENDBLK
  0
BLOCK
  8
PKT_NUMMER
  2
PKT_NR_SYM_85
 70
    64
 10
0.0
 20
0.0
 30
0.0
  0
INSERT
  8
PKT_NUMMER
  2
PKT_NR_SYM
 10
0.0
 20
0.0
 30
0.0
  0
TEXT
  8
PKT_NUMMER
 10
1.0
 20
1.0
 30
0.0
 40
1.8
  1
201240062703(8)
 41
0.66
  0
ENDBLK
  0
BLOCK
  8
PKT_NUMMER
  2
PKT_NR_SYM_86
 70
    64
 10
0.0
 20
0.0
 30
0.0
  0
INSERT
  8
PKT_NUMMER
  2
PKT_NR_SYM
 10
0.0
 20
0.0
 30
0.0
  0
TEXT
  8
PKT_NUMMER
 10
1.0
 20
1.0
 30
0.0
 40
1.8
  1
201240062702(8)
 41
0.66
  0
ENDBLK
  0
BLOCK
  8
PKT_NUMMER
  2
PKT_NR_SYM_87
 70
    64
 10
0.0
 20
0.0
 30
0.0
  0
INSERT
  8
PKT_NUMMER
  2
PKT_NR_SYM
 10
0.0
 20
0.0
 30
0.0
  0
TEXT
  8
PKT_NUMMER
 10
1.0
 20
1.0
 30
0.0
 40
1.8
  1
201240062701(8)
 41
0.66
  0
ENDBLK
  0
BLOCK
  8
PKT_NUMMER
  2
PKT_NR_SYM_88
 70
    64
 10
0.0
 20
0.0
 30
0.0
  0
INSERT
  8
PKT_NUMMER
  2
PKT_NR_SYM
 10
0.0
 20
0.0
 30
0.0
  0
TEXT
  8
PKT_NUMMER
 10
1.0
 20
1.0
 30
0.0
 40
1.8
  1
201240062700(8)
 41
0.66
  0
ENDBLK
  0
BLOCK
  8
PKT_NUMMER
  2
PKT_NR_SYM_89
 70
    64
 10
0.0
 20
0.0
 30
0.0
  0
INSERT
  8
PKT_NUMMER
  2
PKT_NR_SYM
 10
0.0
 20
0.0
 30
0.0
  0
TEXT
  8
PKT_NUMMER
 10
1.0
 20
1.0
 30
0.0
 40
1.8
  1
201240066108(8)
 41
0.66
  0
ENDBLK
  0
BLOCK
  8
PKT_NUMMER
  2
PKT_NR_SYM_90
 70
    64
 10
0.0
 20
0.0
 30
0.0
  0
INSERT
  8
PKT_NUMMER
  2
PKT_NR_SYM
 10
0.0
 20
0.0
 30
0.0
  0
TEXT
  8
PKT_NUMMER
 10
1.0
 20
1.0
 30
0.0
 40
1.8
  1
201240060014(5)
 41
0.66
  0
ENDBLK
  0
BLOCK
  8
PKT_NUMMER
  2
PKT_NR_SYM_91
 70
    64
 10
0.0
 20
0.0
 30
0.0
  0
INSERT
  8
PKT_NUMMER
  2
PKT_NR_SYM
 10
0.0
 20
0.0
 30
0.0
  0
TEXT
  8
PKT_NUMMER
 10
1.0
 20
1.0
 30
0.0
 40
1.8
  1
201240060011(5)
 41
0.66
  0
ENDBLK
  0
BLOCK
  8
PKT_NUMMER
  2
PKT_NR_SYM_92
 70
    64
 10
0.0
 20
0.0
 30
0.0
  0
INSERT
  8
PKT_NUMMER
  2
PKT_NR_SYM
 10
0.0
 20
0.0
 30
0.0
  0
TEXT
  8
PKT_NUMMER
 10
1.0
 20
1.0
 30
0.0
 40
1.8
  1
201240060009(5)
 41
0.66
  0
ENDBLK
  0
BLOCK
  8
PKT_NUMMER
  2
PKT_NR_SYM_93
 70
    64
 10
0.0
 20
0.0
 30
0.0
  0
INSERT
  8
PKT_NUMMER
  2
PKT_NR_SYM
 10
0.0
 20
0.0
 30
0.0
  0
TEXT
  8
PKT_NUMMER
 10
1.0
 20
1.0
 30
0.0
 40
1.8
  1
201240065945(8)
 41
0.66
  0
ENDBLK
  0
BLOCK
  8
PKT_NUMMER
  2
PKT_NR_SYM_94
 70
    64
 10
0.0
 20
0.0
 30
0.0
  0
INSERT
  8
PKT_NUMMER
  2
PKT_NR_SYM
 10
0.0
 20
0.0
 30
0.0
  0
TEXT
  8
PKT_NUMMER
 10
1.0
 20
1.0
 30
0.0
 40
1.8
  1
201240060135(5)
 41
0.66
  0
ENDBLK
  0
BLOCK
  8
PKT_NUMMER
  2
PKT_NR_SYM_95
 70
    64
 10
0.0
 20
0.0
 30
0.0
  0
INSERT
  8
PKT_NUMMER
  2
PKT_NR_SYM
 10
0.0
 20
0.0
 30
0.0
  0
TEXT
  8
PKT_NUMMER
 10
1.0
 20
1.0
 30
0.0
 40
1.8
  1
201240066109(8)
 41
0.66
  0
ENDBLK
  0
BLOCK
  8
PKT_NUMMER
  2
PKT_NR_SYM_96
 70
    64
 10
0.0
 20
0.0
 30
0.0
  0
INSERT
  8
PKT_NUMMER
  2
PKT_NR_SYM
 10
0.0
 20
0.0
 30
0.0
  0
TEXT
  8
PKT_NUMMER
 10
1.0
 20
1.0
 30
0.0
 40
1.8
  1
201240065649(8)
 41
0.66
  0
ENDBLK
  0
BLOCK
  8
PKT_NUMMER
  2
PKT_NR_SYM_97
 70
    64
 10
0.0
 20
0.0
 30
0.0
  0
INSERT
  8
PKT_NUMMER
  2
PKT_NR_SYM
 10
0.0
 20
0.0
 30
0.0
  0
TEXT
  8
PKT_NUMMER
 10
1.0
 20
1.0
 30
0.0
 40
1.8
  1
201240060164(8)
 41
0.66
  0
ENDBLK
  0
BLOCK
  8
PKT_NUMMER
  2
PKT_NR_SYM_98
 70
    64
 10
0.0
 20
0.0
 30
0.0
  0
INSERT
  8
PKT_NUMMER
  2
PKT_NR_SYM
 10
0.0
 20
0.0
 30
0.0
  0
TEXT
  8
PKT_NUMMER
 10
1.0
 20
1.0
 30
0.0
 40
1.8
  1
201240060163(8)
 41
0.66
  0
ENDBLK
  0
BLOCK
  8
PKT_NUMMER
  2
PKT_NR_SYM_99
 70
    64
 10
0.0
 20
0.0
 30
0.0
  0
INSERT
  8
PKT_NUMMER
  2
PKT_NR_SYM
 10
0.0
 20
0.0
 30
0.0
  0
TEXT
  8
PKT_NUMMER
 10
1.0
 20
1.0
 30
0.0
 40
1.8
  1
201240060162(8)
 41
0.66
  0
ENDBLK
  0
BLOCK
  8
PKT_NUMMER
  2
PKT_NR_SYM_100
 70
    64
 10
0.0
 20
0.0
 30
0.0
  0
INSERT
  8
PKT_NUMMER
  2
PKT_NR_SYM
 10
0.0
 20
0.0
 30
0.0
  0
TEXT
  8
PKT_NUMMER
 10
1.0
 20
1.0
 30
0.0
 40
1.8
  1
201240060216(5)
 41
0.66
  0
ENDBLK
  0
BLOCK
  8
PKT_NUMMER
  2
PKT_NR_SYM_101
 70
    64
 10
0.0
 20
0.0
 30
0.0
  0
INSERT
  8
PKT_NUMMER
  2
PKT_NR_SYM
 10
0.0
 20
0.0
 30
0.0
  0
TEXT
  8
PKT_NUMMER
 10
1.0
 20
1.0
 30
0.0
 40
1.8
  1
201240060215(5)
 41
0.66
  0
ENDBLK
  0
BLOCK
  8
PKT_NUMMER
  2
PKT_NR_SYM_102
 70
    64
 10
0.0
 20
0.0
 30
0.0
  0
INSERT
  8
PKT_NUMMER
  2
PKT_NR_SYM
 10
0.0
 20
0.0
 30
0.0
  0
TEXT
  8
PKT_NUMMER
 10
1.0
 20
1.0
 30
0.0
 40
1.8
  1
201240060204(5)
 41
0.66
  0
ENDBLK
  0
BLOCK
  8
PKT_NUMMER
  2
PKT_NR_SYM_103
 70
    64
 10
0.0
 20
0.0
 30
0.0
  0
INSERT
  8
PKT_NUMMER
  2
PKT_NR_SYM
 10
0.0
 20
0.0
 30
0.0
  0
TEXT
  8
PKT_NUMMER
 10
1.0
 20
1.0
 30
0.0
 40
1.8
  1
201240063191(5)
 41
0.66
  0
ENDBLK
  0
BLOCK
  8
PKT_NUMMER
  2
PKT_NR_SYM_104
 70
    64
 10
0.0
 20
0.0
 30
0.0
  0
INSERT
  8
PKT_NUMMER
  2
PKT_NR_SYM
 10
0.0
 20
0.0
 30
0.0
  0
TEXT
  8
PKT_NUMMER
 10
1.0
 20
1.0
 30
0.0
 40
1.8
  1
201240060008(5)
 41
0.66
  0
ENDBLK
  0
BLOCK
  8
PKT_NUMMER
  2
PKT_NR_SYM_105
 70
    64
 10
0.0
 20
0.0
 30
0.0
  0
INSERT
  8
PKT_NUMMER
  2
PKT_NR_SYM
 10
0.0
 20
0.0
 30
0.0
  0
TEXT
  8
PKT_NUMMER
 10
1.0
 20
1.0
 30
0.0
 40
1.8
  1
201240060179(8)
 41
0.66
  0
ENDBLK
  0
BLOCK
  8
PKT_NUMMER
  2
PKT_NR_SYM_106
 70
    64
 10
0.0
 20
0.0
 30
0.0
  0
INSERT
  8
PKT_NUMMER
  2
PKT_NR_SYM
 10
0.0
 20
0.0
 30
0.0
  0
TEXT
  8
PKT_NUMMER
 10
1.0
 20
1.0
 30
0.0
 40
1.8
  1
201240060181(8)
 41
0.66
  0
ENDBLK
  0
BLOCK
  8
PKT_NUMMER
  2
PKT_NR_SYM_107
 70
    64
 10
0.0
 20
0.0
 30
0.0
  0
INSERT
  8
PKT_NUMMER
  2
PKT_NR_SYM
 10
0.0
 20
0.0
 30
0.0
  0
TEXT
  8
PKT_NUMMER
 10
1.0
 20
1.0
 30
0.0
 40
1.8
  1
201240060180(8)
 41
0.66
  0
ENDBLK
  0
BLOCK
  8
PKT_NUMMER
  2
PKT_NR_SYM_108
 70
    64
 10
0.0
 20
0.0
 30
0.0
  0
INSERT
  8
PKT_NUMMER
  2
PKT_NR_SYM
 10
0.0
 20
0.0
 30
0.0
  0
TEXT
  8
PKT_NUMMER
 10
1.0
 20
1.0
 30
0.0
 40
1.8
  1
201240060177(8)
 41
0.66
  0
ENDBLK
  0
BLOCK
  8
PKT_NUMMER
  2
PKT_NR_SYM_109
 70
    64
 10
0.0
 20
0.0
 30
0.0
  0
INSERT
  8
PKT_NUMMER
  2
PKT_NR_SYM
 10
0.0
 20
0.0
 30
0.0
  0
TEXT
  8
PKT_NUMMER
 10
1.0
 20
1.0
 30
0.0
 40
1.8
  1
201240060174(8)
 41
0.66
  0
ENDBLK
  0
BLOCK
  8
PKT_NUMMER
  2
PKT_NR_SYM_110
 70
    64
 10
0.0
 20
0.0
 30
0.0
  0
INSERT
  8
PKT_NUMMER
  2
PKT_NR_SYM
 10
0.0
 20
0.0
 30
0.0
  0
TEXT
  8
PKT_NUMMER
 10
1.0
 20
1.0
 30
0.0
 40
1.8
  1
201240076130(8)
 41
0.66
  0
ENDBLK
  0
BLOCK
  8
PKT_NUMMER
  2
PKT_NR_SYM_111
 70
    64
 10
0.0
 20
0.0
 30
0.0
  0
INSERT
  8
PKT_NUMMER
  2
PKT_NR_SYM
 10
0.0
 20
0.0
 30
0.0
  0
TEXT
  8
PKT_NUMMER
 10
1.0
 20
1.0
 30
0.0
 40
1.8
  1
201240075951(8)
 41
0.66
  0
ENDBLK
  0
BLOCK
  8
PKT_NUMMER
  2
PKT_NR_SYM_112
 70
    64
 10
0.0
 20
0.0
 30
0.0
  0
INSERT
  8
PKT_NUMMER
  2
PKT_NR_SYM
 10
0.0
 20
0.0
 30
0.0
  0
TEXT
  8
PKT_NUMMER
 10
1.0
 20
1.0
 30
0.0
 40
1.8
  1
201240070028(8)
 41
0.66
  0
ENDBLK
  0
BLOCK
  8
PKT_NUMMER
  2
PKT_NR_SYM_113
 70
    64
 10
0.0
 20
0.0
 30
0.0
  0
INSERT
  8
PKT_NUMMER
  2
PKT_NR_SYM
 10
0.0
 20
0.0
 30
0.0
  0
TEXT
  8
PKT_NUMMER
 10
1.0
 20
1.0
 30
0.0
 40
1.8
  1
201240070025(8)
 41
0.66
  0
ENDBLK
  0
BLOCK
  8
PKT_NUMMER
  2
PKT_NR_SYM_114
 70
    64
 10
0.0
 20
0.0
 30
0.0
  0
INSERT
  8
PKT_NUMMER
  2
PKT_NR_SYM
 10
0.0
 20
0.0
 30
0.0
  0
TEXT
  8
PKT_NUMMER
 10
1.0
 20
1.0
 30
0.0
 40
1.8
  1
201240075098(8)
 41
0.66
  0
ENDBLK
  0
BLOCK
  8
PKT_NUMMER
  2
PKT_NR_SYM_115
 70
    64
 10
0.0
 20
0.0
 30
0.0
  0
INSERT
  8
PKT_NUMMER
  2
PKT_NR_SYM
 10
0.0
 20
0.0
 30
0.0
  0
TEXT
  8
PKT_NUMMER
 10
1.0
 20
1.0
 30
0.0
 40
1.8
  1
201240075096(8)
 41
0.66
  0
ENDBLK
  0
BLOCK
  8
PKT_NUMMER
  2
PKT_NR_SYM_116
 70
    64
 10
0.0
 20
0.0
 30
0.0
  0
INSERT
  8
PKT_NUMMER
  2
PKT_NR_SYM
 10
0.0
 20
0.0
 30
0.0
  0
TEXT
  8
PKT_NUMMER
 10
1.0
 20
1.0
 30
0.0
 40
1.8
  1
201240075105(8)
 41
0.66
  0
ENDBLK
  0
BLOCK
  8
PKT_NUMMER
  2
PKT_NR_SYM_117
 70
    64
 10
0.0
 20
0.0
 30
0.0
  0
INSERT
  8
PKT_NUMMER
  2
PKT_NR_SYM
 10
0.0
 20
0.0
 30
0.0
  0
TEXT
  8
PKT_NUMMER
 10
1.0
 20
1.0
 30
0.0
 40
1.8
  1
201240070026(8)
 41
0.66
  0
ENDBLK
  0
BLOCK
  8
PKT_NUMMER
  2
PKT_NR_SYM_118
 70
    64
 10
0.0
 20
0.0
 30
0.0
  0
INSERT
  8
PKT_NUMMER
  2
PKT_NR_SYM
 10
0.0
 20
0.0
 30
0.0
  0
TEXT
  8
PKT_NUMMER
 10
1.0
 20
1.0
 30
0.0
 40
1.8
  1
201240070015(8)
 41
0.66
  0
ENDBLK
  0
BLOCK
  8
PKT_NUMMER
  2
PKT_NR_SYM_119
 70
    64
 10
0.0
 20
0.0
 30
0.0
  0
INSERT
  8
PKT_NUMMER
  2
PKT_NR_SYM
 10
0.0
 20
0.0
 30
0.0
  0
TEXT
  8
PKT_NUMMER
 10
1.0
 20
1.0
 30
0.0
 40
1.8
  1
201240070014(8)
 41
0.66
  0
ENDBLK
  0
BLOCK
  8
PKT_NUMMER
  2
PKT_NR_SYM_120
 70
    64
 10
0.0
 20
0.0
 30
0.0
  0
INSERT
  8
PKT_NUMMER
  2
PKT_NR_SYM
 10
0.0
 20
0.0
 30
0.0
  0
TEXT
  8
PKT_NUMMER
 10
1.0
 20
1.0
 30
0.0
 40
1.8
  1
201240070044(8)
 41
0.66
  0
ENDBLK
  0
BLOCK
  8
PKT_NUMMER
  2
PKT_NR_SYM_121
 70
    64
 10
0.0
 20
0.0
 30
0.0
  0
INSERT
  8
PKT_NUMMER
  2
PKT_NR_SYM
 10
0.0
 20
0.0
 30
0.0
  0
TEXT
  8
PKT_NUMMER
 10
1.0
 20
1.0
 30
0.0
 40
1.8
  1
201240074999(8)
 41
0.66
  0
ENDBLK
  0
ENDSEC
  0
SECTION
  2
ENTITIES
  0
INSERT
  8
PKT_G
  2
SYM019
 10
4375373.05
 20
5361079.06
 30
0.00
  0
INSERT
  8
PKT_G
  2
SYM019
 10
4375373.31
 20
5361064.25
 30
0.00
  0
INSERT
  8
PKT_G
  2
SYM019
 10
4375374.97
 20
5361064.62
 30
0.00
  0
INSERT
  8
PKT_G
  2
SYM019
 10
4375375.11
 20
5361082.43
 30
0.00
  0
INSERT
  8
PKT_G
  2
SYM019
 10
4375375.85
 20
5361066.00
 30
0.00
  0
INSERT
  8
PKT_G
  2
SYM019
 10
4375384.20
 20
5361080.44
 30
0.00
  0
INSERT
  8
PKT_G
  2
SYM010
 10
4375411.89
 20
5361082.35
 30
0.00
  0
INSERT
  8
PKT_G
  2
SYM010
 10
4375455.64
 20
5360877.46
 30
0.00
  0
INSERT
  8
PKT_G
  2
SYM010
 10
4375468.51
 20
5360991.98
 30
0.00
  0
INSERT
  8
PKT_D
  2
D_SYM019
 10
4375363.01
 20
5361076.88
 30
0.00
  0
INSERT
  8
PKT_D
  2
D_SYM019
 10
4375364.87
 20
5361067.05
 30
0.00
  0
INSERT
  8
PKT_D
  2
D_SYM019
 10
4375365.11
 20
5361067.10
 30
0.00
  0
INSERT
  8
PKT_D
  2
D_SYM019
 10
4375365.55
 20
5361063.84
 30
0.00
  0
INSERT
  8
PKT_D
  2
D_SYM019
 10
4375366.57
 20
5361077.64
 30
0.00
  0
INSERT
  8
PKT_D
  2
D_SYM019
 10
4375366.65
 20
5361079.32
 30
0.00
  0
INSERT
  8
PKT_D
  2
D_SYM019
 10
4375367.24
 20
5361088.98
 30
0.00
  0
INSERT
  8
PKT_D
  2
D_SYM019
 10
4375369.27
 20
5361080.96
 30
0.00
  0
INSERT
  8
PKT_D
  2
D_SYM019
 10
4375369.51
 20
5361081.02
 30
0.00
  0
INSERT
  8
PKT_D
  2
D_SYM019
 10
4375369.71
 20
5361079.99
 30
0.00
  0
INSERT
  8
PKT_D
  2
D_SYM019
 10
4375371.92
 20
5361065.14
 30
0.00
  0
INSERT
  8
PKT_D
  2
D_SYM019
 10
4375371.96
 20
5361081.64
 30
0.00
  0
INSERT
  8
PKT_D
  2
D_SYM019
 10
4375372.50
 20
5361078.95
 30
0.00
  0
INSERT
  8
PKT_G
  2
SYM010
 10
4375377.12
 20
5361074.48
 30
0.00
  0
INSERT
  8
PKT_G
  2
SYM010
 10
4375380.38
 20
5361075.51
 30
0.00
  0
INSERT
  8
PKT_G
  2
SYM010
 10
4375385.24
 20
5361036.47
 30
0.00
  0
INSERT
  8
PKT_G_OD
  2
SYM_OD013
 10
4375375.64
 20
5361081.40
 30
0.00
  0
INSERT
  8
PKT_G_OD
  2
SYM_OD012
 10
4375376.69
 20
5361076.53
 30
0.00
  0
INSERT
  8
PKT_G
  2
SYM010
 10
4375506.30
 20
5361003.54
 30
0.00
  0
INSERT
  8
PKT_G
  2
SYM010
 10
4375390.16
 20
5361084.80
 30
0.00
  0
INSERT
  8
PKT_D
  2
D_SYM019
 10
4375418.51
 20
5361100.24
 30
0.00
  0
INSERT
  8
PKT_G
  2
SYM010
 10
4375378.74
 20
5361083.20
 30
0.00
  0
INSERT
  8
PKT_G
  2
SYM010
 10
4375379.94
 20
5361082.58
 30
0.00
  0
INSERT
  8
PKT_G
  2
SYM003
 10
4375379.54
 20
5361079.42
 30
0.00
  0
INSERT
  8
PKT_G
  2
SYM019
 10
4375409.02
 20
5361092.07
 30
0.00
  0
INSERT
  8
PKT_G
  2
SYM019
 10
4375394.31
 20
5361088.97
 30
0.00
  0
INSERT
  8
PKT_G
  2
SYM019
 10
4375407.78
 20
5361097.95
 30
0.00
  0
INSERT
  8
PKT_G
  2
SYM010
 10
4375460.82
 20
5361028.02
 30
0.00
  0
INSERT
  8
PKT_G
  2
SYM010
 10
4375391.63
 20
5361077.95
 30
0.00
  0
INSERT
  8
PKT_G
  2
SYM003
 10
4375375.07
 20
5361082.56
 30
0.00
  0
INSERT
  8
PKT_G
  2
SYM000
 10
4375499.29
 20
5361036.37
 30
0.00
  0
INSERT
  8
PKT_G
  2
SYM000
 10
4375390.79
 20
5361081.87
 30
0.00
  0
INSERT
  8
PKT_G
  2
SYM010
 10
4375442.02
 20
5361096.06
 30
0.00
  0
INSERT
  8
PKT_G
  2
SYM019
 10
4375480.36
 20
5361058.82
 30
0.00
  0
INSERT
  8
PKT_G
  2
SYM019
 10
4375471.90
 20
5361098.39
 30
0.00
  0
INSERT
  8
PKT_G
  2
SYM019
 10
4375451.86
 20
5361094.10
 30
0.00
  0
INSERT
  8
PKT_D
  2
D_SYM019
 10
4375460.33
 20
5361054.53
 30
0.00
  0
INSERT
  8
PKT_G
  2
SYM010
 10
4375425.14
 20
5361020.28
 30
0.00
  0
INSERT
  8
PKT_G
  2
SYM003
 10
4375423.89
 20
5361014.34
 30
0.00
  0
INSERT
  8
PKT_G
  2
SYM019
 10
4375447.04
 20
5361087.97
 30
0.00
  0
INSERT
  8
PKT_G
  2
SYM019
 10
4375427.01
 20
5361083.67
 30
0.00
  0
INSERT
  8
PKT_G
  2
SYM019
 10
4375435.47
 20
5361044.09
 30
0.00
  0
INSERT
  8
PKT_D
  2
D_SYM019
 10
4375455.49
 20
5361048.36
 30
0.00
  0
INSERT
  8
PKT_G
  2
SYM010
 10
4375373.09
 20
5361090.49
 30
0.00
  0
INSERT
  8
PKT_G_OD
  2
SYM_OD012
 10
4375413.15
 20
5361099.09
 30
0.00
  0
INSERT
  8
PKT_G
  2
SYM019
 10
4375468.93
 20
5361035.90
 30
0.00
  0
INSERT
  8
PKT_D
  2
D_SYM019
 10
4375464.69
 20
5361055.45
 30
0.00
  0
INSERT
  8
PKT_D
  2
D_SYM019
 10
4375528.49
 20
5361063.79
 30
0.00
  0
INSERT
  8
PKT_D
  2
D_SYM019
 10
4375472.28
 20
5361057.09
 30
0.00
  0
INSERT
  8
PKT_G
  2
SYM019
 10
4375531.36
 20
5361049.18
 30
0.00
  0
INSERT
  8
PKT_G
  2
SYM019
 10
4375531.70
 20
5361049.29
 30
0.00
  0
INSERT
  8
PKT_D
  2
D_SYM019
 10
4375470.34
 20
5361056.67
 30
0.00
  0
INSERT
  8
PKT_D
  2
D_SYM019
 10
4375473.32
 20
5361052.25
 30
0.00
  0
INSERT
  8
PKT_G
  2
SYM019
 10
4375528.61
 20
5361063.81
 30
0.00
  0
INSERT
  8
PKT_D
  2
D_SYM019
 10
4375465.97
 20
5361049.88
 30
0.00
  0
INSERT
  8
PKT_D
  2
D_SYM019
 10
4375531.33
 20
5361049.27
 30
0.00
  0
INSERT
  8
PKT_D
  2
D_SYM019
 10
4375486.35
 20
5361055.04
 30
0.00
  0
INSERT
  8
PKT_G
  2
SYM019
 10
4375477.51
 20
5361096.12
 30
0.00
  0
INSERT
  8
PKT_G
  2
SYM019
 10
4375465.87
 20
5361049.87
 30
0.00
  0
INSERT
  8
PKT_D
  2
D_SYM019
 10
4375416.41
 20
5361081.39
 30
0.00
  0
INSERT
  8
PKT_G
  2
SYM019
 10
4375419.34
 20
5361082.01
 30
0.00
  0
INSERT
  8
PKT_D
  2
D_SYM019
 10
4375417.66
 20
5361075.57
 30
0.00
  0
INSERT
  8
PKT_G
  2
SYM019
 10
4375420.57
 20
5361076.20
 30
0.00
  0
INSERT
  8
PKT_G
  2
SYM019
 10
4375414.75
 20
5361074.94
 30
0.00
  0
INSERT
  8
PKT_G
  2
SYM019
 10
4375413.49
 20
5361080.77
 30
0.00
  0
INSERT
  8
PKT_D
  2
D_SYM019
 10
4375437.02
 20
5361085.82
 30
0.00
  0
INSERT
  8
PKT_D
  2
D_SYM019
 10
4375445.48
 20
5361046.22
 30
0.00
  0
INSERT
  8
PKT_D
  2
D_SYM019
 10
4375461.88
 20
5361096.24
 30
0.00
  0
INSERT
  8
PKT_G
  2
SYM010
 10
4375572.42
 20
5361023.76
 30
0.00
  0
INSERT
  8
PKT_G
  2
SYM010
 10
4375566.61
 20
5361050.97
 30
0.00
  0
INSERT
  8
PKT_D
  2
D_SYM019
 10
4375505.30
 20
5361150.10
 30
0.00
  0
INSERT
  8
PKT_D
  2
D_SYM019
 10
4375509.18
 20
5361150.94
 30
0.00
  0
INSERT
  8
PKT_G
  2
SYM010
 10
4375517.79
 20
5361171.49
 30
0.00
  0
INSERT
  8
PKT_G
  2
SYM010
 10
4375530.00
 20
5361115.15
 30
0.00
  0
INSERT
  8
PKT_G
  2
SYM019
 10
4375413.23
 20
5361125.08
 30
0.00
  0
INSERT
  8
PKT_G
  2
SYM019
 10
4375427.91
 20
5361128.20
 30
0.00
  0
INSERT
  8
PKT_G
  2
SYM019
 10
4375433.16
 20
5361103.36
 30
0.00
  0
INSERT
  8
PKT_G
  2
SYM019
 10
4375440.00
 20
5361104.81
 30
0.00
  0
INSERT
  8
PKT_G
  2
SYM019
 10
4375431.68
 20
5361143.94
 30
0.00
  0
INSERT
  8
PKT_G
  2
SYM019
 10
4375446.37
 20
5361147.06
 30
0.00
  0
INSERT
  8
PKT_G
  2
SYM010
 10
4375475.60
 20
5361162.35
 30
0.00
  0
INSERT
  8
PKT_D
  2
D_SYM019
 10
4375386.80
 20
5361124.44
 30
0.00
  0
INSERT
  8
PKT_D
  2
D_SYM019
 10
4375401.47
 20
5361127.56
 30
0.00
  0
INSERT
  8
PKT_D
  2
D_SYM019
 10
4375454.68
 20
5361107.93
 30
0.00
  0
INSERT
  8
PKT_G_OD
  2
SYM_OD014
 10
4375367.06
 20
5361137.81
 30
0.00
  0
INSERT
  8
PKT_D
  2
D_SYM019
 10
4375413.19
 20
5361125.24
 30
0.00
  0
INSERT
  8
PKT_G
  2
SYM010
 10
4375487.81
 20
5361106.00
 30
0.00
  0
INSERT
  8
PKT_G
  2
SYM010
 10
4375379.97
 20
5361132.42
 30
0.00
  0
INSERT
  8
PKT_G
  2
SYM019
 10
4375497.41
 20
5361109.40
 30
0.00
  0
INSERT
  8
PKT_G
  2
SYM019
 10
4375496.18
 20
5361115.25
 30
0.00
  0
INSERT
  8
PKT_G
  2
SYM019
 10
4375495.91
 20
5361115.41
 30
0.00
  0
INSERT
  8
PKT_D
  2
D_SYM019
 10
4375503.26
 20
5361110.62
 30
0.00
  0
INSERT
  8
PKT_D
  2
D_SYM019
 10
4375502.03
 20
5361116.48
 30
0.00
  0
INSERT
  8
PKT_D
  2
D_SYM019
 10
4375516.00
 20
5361119.70
 30
0.00
  0
INSERT
  8
PKT_D
  2
D_SYM019
 10
4375486.72
 20
5361158.29
 30
0.00
  0
INSERT
  8
PKT_D
  2
D_SYM019
 10
4375502.86
 20
5361161.77
 30
0.00
  0
INSERT
  8
PKT_G
  2
SYM010
 10
4375430.35
 20
5361146.74
 30
0.00
  0
INSERT
  8
PKT_G
  2
SYM019
 10
4375402.45
 20
5361122.96
 30
0.00
  0
INSERT
  8
PKT_G_OD
  2
SYM_OD014
 10
4375439.31
 20
5361104.67
 30
0.00
  0
INSERT
  8
PKT_G_OD
  2
SYM_OD012
 10
4375407.82
 20
5361124.11
 30
0.00
  0
INSERT
  8
PKT_G
  2
SYM019
 10
4375519.66
 20
5361105.16
 30
0.00
  0
INSERT
  8
PKT_G
  2
SYM010
 10
4375543.93
 20
5361171.96
 30
0.00
  0
INSERT
  8
PKT_G
  2
SYM010
 10
4375554.61
 20
5361120.49
 30
0.00
  0
INSERT
  8
PKT_G
  2
SYM010
 10
4375733.80
 20
5361202.21
 30
0.00
  0
INSERT
  8
PKT_G
  2
SYM019
 10
4375731.79
 20
5361197.98
 30
0.00
  0
INSERT
  8
PKT_G
  2
SYM010
 10
4375553.37
 20
5361113.05
 30
0.00
  0
INSERT
  8
PKT_G
  2
SYM010
 10
4375560.40
 20
5361114.58
 30
0.00
  0
INSERT
  8
PKT_G
  2
SYM010
 10
4375590.76
 20
5361128.58
 30
0.00
  0
INSERT
  8
PKT_G
  2
SYM010
 10
4375561.86
 20
5361119.66
 30
0.00
  0
INSERT
  8
PKT_G
  2
SYM010
 10
4375547.05
 20
5361176.69
 30
0.00
  0
INSERT
  8
PKT_G
  2
SYM010
 10
4375558.50
 20
5361121.42
 30
0.00
  0
INSERT
  8
PKT_G
  2
SYM010
 10
4375552.29
 20
5361116.91
 30
0.00
  0
INSERT
  8
PKT_G
  2
SYM003
 10
4375559.13
 20
5361118.40
 30
0.00
  0
LINE
  8
GRE_FLST
 10
4375385.24
 20
5361036.47
 30
0.00
 11
4375377.12
 21
5361074.48
 31
0.00
  0
LINE
  8
GRE_FLST
 10
4375377.12
 20
5361074.48
 30
0.00
 11
4375376.69
 21
5361076.53
 31
0.00
  0
LINE
  8
GRE_FLST
 10
4375380.38
 20
5361075.51
 30
0.00
 11
4375376.69
 21
5361076.53
 31
0.00
  0
LINE
  8
GRE_FLST
 10
4375375.64
 20
5361081.40
 30
0.00
 11
4375376.69
 21
5361076.53
 31
0.00
  0
LINE
  8
GRE_FLST
 10
4375375.64
 20
5361081.40
 30
0.00
 11
4375373.09
 21
5361090.49
 31
0.00
  0
LINE
  8
GRE_FLST
 10
4375390.16
 20
5361084.80
 30
0.00
 11
4375442.02
 21
5361096.06
 31
0.00
  0
LINE
  8
GRE_FLST
 10
4375390.16
 20
5361084.80
 30
0.00
 11
4375379.97
 21
5361132.42
 31
0.00
  0
LINE
  8
GRE_FLST
 10
4375375.64
 20
5361081.40
 30
0.00
 11
4375379.54
 21
5361079.42
 31
0.00
  0
LINE
  8
GRE_FLST
 10
4375379.54
 20
5361079.42
 30
0.00
 11
4375384.20
 21
5361080.44
 31
0.00
  0
LINE
  8
GRE_FLST
 10
4375384.20
 20
5361080.44
 30
0.00
 11
4375379.94
 21
5361082.58
 31
0.00
  0
LINE
  8
GRE_FLST
 10
4375379.94
 20
5361082.58
 30
0.00
 11
4375390.16
 21
5361084.80
 31
0.00
  0
LINE
  8
GRE_FLST
 10
4375379.94
 20
5361082.58
 30
0.00
 11
4375378.74
 21
5361083.20
 31
0.00
  0
LINE
  8
GRE_FLST
 10
4375380.38
 20
5361075.51
 30
0.00
 11
4375391.63
 21
5361077.95
 31
0.00
  0
LINE
  8
GRE_FLST
 10
4375391.63
 20
5361077.95
 30
0.00
 11
4375411.89
 21
5361082.35
 31
0.00
  0
LINE
  8
GRE_FLST
 10
4375390.79
 20
5361081.87
 30
0.00
 11
4375384.20
 21
5361080.44
 31
0.00
  0
LINE
  8
GRE_FLST
 10
4375468.51
 20
5360991.98
 30
0.00
 11
4375460.82
 21
5361028.02
 31
0.00
  0
LINE
  8
GRE_FLST
 10
4375499.29
 20
5361036.37
 30
0.00
 11
4375506.30
 21
5361003.54
 31
0.00
  0
LINE
  8
GRE_FLST
 10
4375460.82
 20
5361028.02
 30
0.00
 11
4375499.29
 21
5361036.37
 31
0.00
  0
LINE
  8
GRE_FLST
 10
4375499.29
 20
5361036.37
 30
0.00
 11
4375566.61
 21
5361050.97
 31
0.00
  0
LINE
  8
GRE_FLST
 10
4375391.63
 20
5361077.95
 30
0.00
 11
4375390.79
 21
5361081.87
 31
0.00
  0
LINE
  8
GRE_FLST
 10
4375390.16
 20
5361084.80
 30
0.00
 11
4375390.79
 21
5361081.87
 31
0.00
  0
LINE
  8
GRE_FLST
 10
4375442.02
 20
5361096.06
 30
0.00
 11
4375487.81
 21
5361106.00
 31
0.00
  0
LINE
  8
GRE_FLST
 10
4375411.89
 20
5361082.35
 30
0.00
 11
4375425.14
 21
5361020.28
 31
0.00
  0
LINE
  8
GRE_FLST
 10
4375425.14
 20
5361020.28
 30
0.00
 11
4375455.64
 21
5360877.46
 31
0.00
  0
LINE
  8
GRE_FLST
 10
4375460.82
 20
5361028.02
 30
0.00
 11
4375425.14
 21
5361020.28
 31
0.00
  0
LINE
  8
GRE_FLST
 10
4375413.15
 20
5361099.09
 30
0.00
 11
4375439.31
 21
5361104.67
 31
0.00
  0
LINE
  8
GRE_FLST
 10
4375566.61
 20
5361050.97
 30
0.00
 11
4375572.42
 21
5361023.76
 31
0.00
  0
LINE
  8
GRE_FLST
 10
4375530.00
 20
5361115.15
 30
0.00
 11
4375517.79
 21
5361171.49
 31
0.00
  0
LINE
  8
GRE_FLST
 10
4375487.81
 20
5361106.00
 30
0.00
 11
4375530.00
 21
5361115.15
 31
0.00
  0
LINE
  8
GRE_FLST
 10
4375475.60
 20
5361162.35
 30
0.00
 11
4375487.81
 21
5361106.00
 31
0.00
  0
LINE
  8
GRE_FLST
 10
4375367.06
 20
5361137.81
 30
0.00
 11
4375378.74
 21
5361083.20
 31
0.00
  0
LINE
  8
GRE_FLST
 10
4375407.82
 20
5361124.11
 30
0.00
 11
4375413.15
 21
5361099.09
 31
0.00
  0
LINE
  8
GRE_FLST
 10
4375430.35
 20
5361146.74
 30
0.00
 11
4375439.31
 21
5361104.67
 31
0.00
  0
LINE
  8
GRE_FLST
 10
4375554.61
 20
5361120.49
 30
0.00
 11
4375543.93
 21
5361171.96
 31
0.00
  0
LINE
  8
GRE_FLST
 10
4375554.61
 20
5361120.49
 30
0.00
 11
4375530.00
 21
5361115.15
 31
0.00
  0
LINE
  8
GRE_FLST
 10
4375560.40
 20
5361114.58
 30
0.00
 11
4375553.37
 21
5361113.05
 31
0.00
  0
LINE
  8
GRE_FLST
 10
4375560.40
 20
5361114.58
 30
0.00
 11
4375590.76
 21
5361128.58
 31
0.00
  0
LINE
  8
GRE_FLST
 10
4375561.86
 20
5361119.66
 30
0.00
 11
4375558.50
 21
5361121.42
 31
0.00
  0
LINE
  8
GRE_FLST
 10
4375559.13
 20
5361118.40
 30
0.00
 11
4375561.86
 21
5361119.66
 31
0.00
  0
LINE
  8
GRE_FLST
 10
4375558.50
 20
5361121.42
 30
0.00
 11
4375547.05
 21
5361176.69
 31
0.00
  0
LINE
  8
GRE_FLST
 10
4375554.61
 20
5361120.49
 30
0.00
 11
4375552.29
 21
5361116.91
 31
0.00
  0
LINE
  8
GRE_FLST
 10
4375552.29
 20
5361116.91
 30
0.00
 11
4375559.13
 21
5361118.40
 31
0.00
  0
LINE
  8
GRE_FLST
 10
4375733.80
 20
5361202.21
 30
0.00
 11
4375558.50
 21
5361121.42
 31
0.00
  0
LINE
  8
GRE_FLST
 10
4375731.79
 20
5361197.98
 30
0.00
 11
4375561.86
 21
5361119.66
 31
0.00
  0
LINE
  8
GRE_FLST
 10
4375553.37
 20
5361113.05
 30
0.00
 11
4375566.61
 21
5361050.97
 31
0.00
  0
LINE
  8
GRE_FLST
 10
4375553.37
 20
5361113.05
 30
0.00
 11
4375552.29
 21
5361116.91
 31
0.00
  0
LINE
  8
GEB_HAUPT
 10
4375373.05
 20
5361079.06
 30
0.00
 11
4375375.85
 21
5361066.00
 31
0.00
  0
LINE
  8
GEB_HAUPT
 10
4375375.85
 20
5361066.00
 30
0.00
 11
4375374.97
 21
5361064.62
 31
0.00
  0
LINE
  8
GEB_HAUPT
 10
4375374.97
 20
5361064.62
 30
0.00
 11
4375373.31
 21
5361064.25
 31
0.00
  0
LINE
  8
GEB_HAUPT
 10
4375373.31
 20
5361064.25
 30
0.00
 11
4375371.92
 21
5361065.14
 31
0.00
  0
LINE
  8
GEB_HAUPT
 10
4375371.92
 20
5361065.14
 30
0.00
 11
4375365.55
 21
5361063.84
 31
0.00
  0
LINE
  8
GEB_HAUPT
 10
4375365.55
 20
5361063.84
 30
0.00
 11
4375364.87
 21
5361067.05
 31
0.00
  0
LINE
  8
GEB_HAUPT
 10
4375364.87
 20
5361067.05
 30
0.00
 11
4375365.11
 21
5361067.10
 31
0.00
  0
LINE
  8
GEB_HAUPT
 10
4375365.11
 20
5361067.10
 30
0.00
 11
4375363.01
 21
5361076.88
 31
0.00
  0
LINE
  8
GEB_HAUPT
 10
4375363.01
 20
5361076.88
 30
0.00
 11
4375366.57
 21
5361077.64
 31
0.00
  0
LINE
  8
GEB_HAUPT
 10
4375366.57
 20
5361077.64
 30
0.00
 11
4375366.65
 21
5361079.32
 31
0.00
  0
LINE
  8
GEB_HAUPT
 10
4375366.65
 20
5361079.32
 30
0.00
 11
4375369.71
 21
5361079.99
 31
0.00
  0
LINE
  8
GEB_HAUPT
 10
4375369.71
 20
5361079.99
 30
0.00
 11
4375369.51
 21
5361081.02
 31
0.00
  0
LINE
  8
GEB_HAUPT
 10
4375369.51
 20
5361081.02
 30
0.00
 11
4375371.96
 21
5361081.64
 31
0.00
  0
LINE
  8
GEB_HAUPT
 10
4375371.96
 20
5361081.64
 30
0.00
 11
4375372.50
 21
5361078.95
 31
0.00
  0
LINE
  8
GEB_HAUPT
 10
4375372.50
 20
5361078.95
 30
0.00
 11
4375373.05
 21
5361079.06
 31
0.00
  0
LINE
  8
GEB_HAUPT
 10
4375367.24
 20
5361088.98
 30
0.00
 11
4375373.09
 21
5361090.49
 31
0.00
  0
LINE
  8
GEB_HAUPT
 10
4375373.09
 20
5361090.49
 30
0.00
 11
4375375.11
 21
5361082.43
 31
0.00
  0
LINE
  8
GEB_HAUPT
 10
4375375.11
 20
5361082.43
 30
0.00
 11
4375371.96
 21
5361081.64
 31
0.00
  0
LINE
  8
GEB_HAUPT
 10
4375371.96
 20
5361081.64
 30
0.00
 11
4375369.51
 21
5361081.02
 31
0.00
  0
LINE
  8
GEB_HAUPT
 10
4375369.51
 20
5361081.02
 30
0.00
 11
4375369.27
 21
5361080.96
 31
0.00
  0
LINE
  8
GEB_HAUPT
 10
4375369.27
 20
5361080.96
 30
0.00
 11
4375367.24
 21
5361088.98
 31
0.00
  0
LINE
  8
GEB_HAUPT
 10
4375470.34
 20
5361056.67
 30
0.00
 11
4375464.69
 21
5361055.45
 31
0.00
  0
LINE
  8
GEB_HAUPT
 10
4375464.69
 20
5361055.45
 30
0.00
 11
4375460.33
 21
5361054.53
 31
0.00
  0
LINE
  8
GEB_HAUPT
 10
4375460.33
 20
5361054.53
 30
0.00
 11
4375451.86
 21
5361094.10
 31
0.00
  0
LINE
  8
GEB_HAUPT
 10
4375451.86
 20
5361094.10
 30
0.00
 11
4375461.88
 21
5361096.24
 31
0.00
  0
LINE
  8
GEB_HAUPT
 10
4375461.88
 20
5361096.24
 30
0.00
 11
4375471.90
 21
5361098.39
 31
0.00
  0
LINE
  8
GEB_HAUPT
 10
4375471.90
 20
5361098.39
 30
0.00
 11
4375480.36
 21
5361058.82
 31
0.00
  0
LINE
  8
GEB_HAUPT
 10
4375480.36
 20
5361058.82
 30
0.00
 11
4375472.28
 21
5361057.09
 31
0.00
  0
LINE
  8
GEB_HAUPT
 10
4375472.28
 20
5361057.09
 30
0.00
 11
4375470.34
 21
5361056.67
 31
0.00
  0
LINE
  8
GEB_HAUPT
 10
4375416.41
 20
5361081.39
 30
0.00
 11
4375419.34
 21
5361082.01
 31
0.00
  0
LINE
  8
GEB_HAUPT
 10
4375419.34
 20
5361082.01
 30
0.00
 11
4375420.57
 21
5361076.20
 31
0.00
  0
LINE
  8
GEB_HAUPT
 10
4375420.57
 20
5361076.20
 30
0.00
 11
4375417.66
 21
5361075.57
 31
0.00
  0
LINE
  8
GEB_HAUPT
 10
4375417.66
 20
5361075.57
 30
0.00
 11
4375416.41
 21
5361081.39
 31
0.00
  0
LINE
  8
GEB_HAUPT
 10
4375416.41
 20
5361081.39
 30
0.00
 11
4375417.66
 21
5361075.57
 31
0.00
  0
LINE
  8
GEB_HAUPT
 10
4375417.66
 20
5361075.57
 30
0.00
 11
4375414.75
 21
5361074.94
 31
0.00
  0
LINE
  8
GEB_HAUPT
 10
4375414.75
 20
5361074.94
 30
0.00
 11
4375413.49
 21
5361080.77
 31
0.00
  0
LINE
  8
GEB_HAUPT
 10
4375413.49
 20
5361080.77
 30
0.00
 11
4375416.41
 21
5361081.39
 31
0.00
  0
LINE
  8
GEB_HAUPT
 10
4375427.01
 20
5361083.67
 30
0.00
 11
4375437.02
 21
5361085.82
 31
0.00
  0
LINE
  8
GEB_HAUPT
 10
4375437.02
 20
5361085.82
 30
0.00
 11
4375447.04
 21
5361087.97
 31
0.00
  0
LINE
  8
GEB_HAUPT
 10
4375447.04
 20
5361087.97
 30
0.00
 11
4375455.49
 21
5361048.36
 31
0.00
  0
LINE
  8
GEB_HAUPT
 10
4375455.49
 20
5361048.36
 30
0.00
 11
4375445.48
 21
5361046.22
 31
0.00
  0
LINE
  8
GEB_HAUPT
 10
4375445.48
 20
5361046.22
 30
0.00
 11
4375435.47
 21
5361044.09
 31
0.00
  0
LINE
  8
GEB_HAUPT
 10
4375435.47
 20
5361044.09
 30
0.00
 11
4375427.01
 21
5361083.67
 31
0.00
  0
LINE
  8
GEB_HAUPT
 10
4375486.72
 20
5361158.29
 30
0.00
 11
4375502.86
 21
5361161.77
 31
0.00
  0
LINE
  8
GEB_HAUPT
 10
4375502.86
 20
5361161.77
 30
0.00
 11
4375505.30
 21
5361150.10
 31
0.00
  0
LINE
  8
GEB_HAUPT
 10
4375505.30
 20
5361150.10
 30
0.00
 11
4375509.18
 21
5361150.94
 31
0.00
  0
LINE
  8
GEB_HAUPT
 10
4375509.18
 20
5361150.94
 30
0.00
 11
4375516.00
 21
5361119.70
 31
0.00
  0
LINE
  8
GEB_HAUPT
 10
4375516.00
 20
5361119.70
 30
0.00
 11
4375495.91
 21
5361115.41
 31
0.00
  0
LINE
  8
GEB_HAUPT
 10
4375495.91
 20
5361115.41
 30
0.00
 11
4375486.72
 21
5361158.29
 31
0.00
  0
LINE
  8
GEB_HAUPT
 10
4375418.51
 20
5361100.24
 30
0.00
 11
4375413.23
 21
5361125.08
 31
0.00
  0
LINE
  8
GEB_HAUPT
 10
4375413.23
 20
5361125.08
 30
0.00
 11
4375427.91
 21
5361128.20
 31
0.00
  0
LINE
  8
GEB_HAUPT
 10
4375427.91
 20
5361128.20
 30
0.00
 11
4375433.16
 21
5361103.36
 31
0.00
  0
LINE
  8
GEB_HAUPT
 10
4375433.16
 20
5361103.36
 30
0.00
 11
4375418.51
 21
5361100.24
 31
0.00
  0
LINE
  8
GEB_HAUPT
 10
4375496.18
 20
5361115.25
 30
0.00
 11
4375502.03
 21
5361116.48
 31
0.00
  0
LINE
  8
GEB_HAUPT
 10
4375502.03
 20
5361116.48
 30
0.00
 11
4375503.26
 21
5361110.62
 31
0.00
  0
LINE
  8
GEB_HAUPT
 10
4375503.26
 20
5361110.62
 30
0.00
 11
4375497.41
 21
5361109.40
 31
0.00
  0
LINE
  8
GEB_HAUPT
 10
4375497.41
 20
5361109.40
 30
0.00
 11
4375496.18
 21
5361115.25
 31
0.00
  0
LINE
  8
GEB_HAUPT
 10
4375431.68
 20
5361143.94
 30
0.00
 11
4375446.37
 21
5361147.06
 31
0.00
  0
LINE
  8
GEB_HAUPT
 10
4375446.37
 20
5361147.06
 30
0.00
 11
4375454.68
 21
5361107.93
 31
0.00
  0
LINE
  8
GEB_HAUPT
 10
4375454.68
 20
5361107.93
 30
0.00
 11
4375440.00
 21
5361104.81
 31
0.00
  0
LINE
  8
GEB_HAUPT
 10
4375440.00
 20
5361104.81
 30
0.00
 11
4375431.68
 21
5361143.94
 31
0.00
  0
LINE
  8
GEB_HAUPT
 10
4375386.80
 20
5361124.44
 30
0.00
 11
4375401.47
 21
5361127.56
 31
0.00
  0
LINE
  8
GEB_HAUPT
 10
4375401.47
 20
5361127.56
 30
0.00
 11
4375402.45
 21
5361122.96
 31
0.00
  0
LINE
  8
GEB_HAUPT
 10
4375402.45
 20
5361122.96
 30
0.00
 11
4375407.78
 21
5361097.95
 31
0.00
  0
LINE
  8
GEB_HAUPT
 10
4375407.78
 20
5361097.95
 30
0.00
 11
4375409.02
 21
5361092.07
 31
0.00
  0
LINE
  8
GEB_HAUPT
 10
4375409.02
 20
5361092.07
 30
0.00
 11
4375394.31
 21
5361088.97
 31
0.00
  0
LINE
  8
GEB_HAUPT
 10
4375394.31
 20
5361088.97
 30
0.00
 11
4375386.80
 21
5361124.44
 31
0.00
  0
LINE
  8
GEB_HAUPT
 10
4375407.78
 20
5361097.95
 30
0.00
 11
4375402.45
 21
5361122.96
 31
0.00
  0
LINE
  8
GEB_HAUPT
 10
4375402.45
 20
5361122.96
 30
0.00
 11
4375407.82
 21
5361124.11
 31
0.00
  0
LINE
  8
GEB_HAUPT
 10
4375407.82
 20
5361124.11
 30
0.00
 11
4375413.19
 21
5361125.24
 31
0.00
  0
LINE
  8
GEB_HAUPT
 10
4375413.19
 20
5361125.24
 30
0.00
 11
4375413.23
 21
5361125.08
 31
0.00
  0
LINE
  8
GEB_HAUPT
 10
4375413.23
 20
5361125.08
 30
0.00
 11
4375418.51
 21
5361100.24
 31
0.00
  0
LINE
  8
GEB_HAUPT
 10
4375418.51
 20
5361100.24
 30
0.00
 11
4375413.15
 21
5361099.09
 31
0.00
  0
LINE
  8
GEB_HAUPT
 10
4375413.15
 20
5361099.09
 30
0.00
 11
4375407.78
 21
5361097.95
 31
0.00
  0
LINE
  8
GEB_HAUPT
 10
4375464.69
 20
5361055.45
 30
0.00
 11
4375470.34
 21
5361056.67
 31
0.00
  0
LINE
  8
GEB_HAUPT
 10
4375470.34
 20
5361056.67
 30
0.00
 11
4375472.28
 21
5361057.09
 31
0.00
  0
LINE
  8
GEB_HAUPT
 10
4375472.28
 20
5361057.09
 30
0.00
 11
4375473.32
 21
5361052.25
 31
0.00
  0
LINE
  8
GEB_HAUPT
 10
4375473.32
 20
5361052.25
 30
0.00
 11
4375486.35
 21
5361055.04
 31
0.00
  0
LINE
  8
GEB_HAUPT
 10
4375486.35
 20
5361055.04
 30
0.00
 11
4375477.51
 21
5361096.12
 31
0.00
  0
LINE
  8
GEB_HAUPT
 10
4375477.51
 20
5361096.12
 30
0.00
 11
4375519.66
 21
5361105.16
 31
0.00
  0
LINE
  8
GEB_HAUPT
 10
4375519.66
 20
5361105.16
 30
0.00
 11
4375528.49
 21
5361063.79
 31
0.00
  0
LINE
  8
GEB_HAUPT
 10
4375528.49
 20
5361063.79
 30
0.00
 11
4375528.61
 21
5361063.81
 31
0.00
  0
LINE
  8
GEB_HAUPT
 10
4375528.61
 20
5361063.81
 30
0.00
 11
4375531.70
 21
5361049.29
 31
0.00
  0
LINE
  8
GEB_HAUPT
 10
4375531.70
 20
5361049.29
 30
0.00
 11
4375531.36
 21
5361049.18
 31
0.00
  0
LINE
  8
GEB_HAUPT
 10
4375531.36
 20
5361049.18
 30
0.00
 11
4375531.33
 21
5361049.27
 31
0.00
  0
LINE
  8
GEB_HAUPT
 10
4375531.33
 20
5361049.27
 30
0.00
 11
4375468.93
 21
5361035.90
 31
0.00
  0
LINE
  8
GEB_HAUPT
 10
4375468.93
 20
5361035.90
 30
0.00
 11
4375465.97
 21
5361049.88
 31
0.00
  0
LINE
  8
GEB_HAUPT
 10
4375465.97
 20
5361049.88
 30
0.00
 11
4375465.87
 21
5361049.87
 31
0.00
  0
LINE
  8
GEB_HAUPT
 10
4375465.87
 20
5361049.87
 30
0.00
 11
4375464.69
 21
5361055.45
 31
0.00
  0
TEXT
  8
FLST_1K_NR
 10
4375443.64
 20
5361009.53
 30
0.00
 40
1.80
  1
717/1
 41
0.66
 50
0.000000
 51
15.00
  0
TEXT
  8
FLST_1K_NR
 10
4375540.10
 20
5361097.65
 30
0.00
 40
1.80
  1
718/4
 41
0.66
 50
0.000000
 51
15.00
  0
TEXT
  8
GEB_HNUM
 10
4375371.24
 20
5361079.12
 30
0.00
 40
1.80
  1
12a
 41
0.66
 50
192.119400
  0
TEXT
  8
FLST_1K_NR
 10
4375382.64
 20
5361077.02
 30
0.00
 40
1.80
  1
721/1
 41
0.66
 50
10.647000
 51
15.00
  0
TEXT
  8
FLST_1K_NR
 10
4375383.87
 20
5361080.76
 30
0.00
 40
1.80
  1
707/1
 41
0.66
 50
13.178700
 51
15.00
  0
INSERT
  8
PKT_NUMMER
  2
PKT_NR_SYM_0
 10
4375373.05
 20
5361079.06
 30
0.0
  0
INSERT
  8
PKT_NUMMER
  2
PKT_NR_SYM_1
 10
4375373.31
 20
5361064.25
 30
0.0
  0
INSERT
  8
PKT_NUMMER
  2
PKT_NR_SYM_2
 10
4375374.97
 20
5361064.62
 30
0.0
  0
INSERT
  8
PKT_NUMMER
  2
PKT_NR_SYM_3
 10
4375375.11
 20
5361082.43
 30
0.0
  0
INSERT
  8
PKT_NUMMER
  2
PKT_NR_SYM_4
 10
4375375.85
 20
5361066.00
 30
0.0
  0
INSERT
  8
PKT_NUMMER
  2
PKT_NR_SYM_5
 10
4375384.20
 20
5361080.44
 30
0.0
  0
INSERT
  8
PKT_NUMMER
  2
PKT_NR_SYM_6
 10
4375411.89
 20
5361082.35
 30
0.0
  0
INSERT
  8
PKT_NUMMER
  2
PKT_NR_SYM_7
 10
4375455.64
 20
5360877.46
 30
0.0
  0
INSERT
  8
PKT_NUMMER
  2
PKT_NR_SYM_8
 10
4375468.51
 20
5360991.98
 30
0.0
  0
INSERT
  8
PKT_NUMMER
  2
PKT_NR_SYM_9
 10
4375363.01
 20
5361076.88
 30
0.0
  0
INSERT
  8
PKT_NUMMER
  2
PKT_NR_SYM_10
 10
4375364.87
 20
5361067.05
 30
0.0
  0
INSERT
  8
PKT_NUMMER
  2
PKT_NR_SYM_11
 10
4375365.11
 20
5361067.10
 30
0.0
  0
INSERT
  8
PKT_NUMMER
  2
PKT_NR_SYM_12
 10
4375365.55
 20
5361063.84
 30
0.0
  0
INSERT
  8
PKT_NUMMER
  2
PKT_NR_SYM_13
 10
4375366.57
 20
5361077.64
 30
0.0
  0
INSERT
  8
PKT_NUMMER
  2
PKT_NR_SYM_14
 10
4375366.65
 20
5361079.32
 30
0.0
  0
INSERT
  8
PKT_NUMMER
  2
PKT_NR_SYM_15
 10
4375367.24
 20
5361088.98
 30
0.0
  0
INSERT
  8
PKT_NUMMER
  2
PKT_NR_SYM_16
 10
4375369.27
 20
5361080.96
 30
0.0
  0
INSERT
  8
PKT_NUMMER
  2
PKT_NR_SYM_17
 10
4375369.51
 20
5361081.02
 30
0.0
  0
INSERT
  8
PKT_NUMMER
  2
PKT_NR_SYM_18
 10
4375369.71
 20
5361079.99
 30
0.0
  0
INSERT
  8
PKT_NUMMER
  2
PKT_NR_SYM_19
 10
4375371.92
 20
5361065.14
 30
0.0
  0
INSERT
  8
PKT_NUMMER
  2
PKT_NR_SYM_20
 10
4375371.96
 20
5361081.64
 30
0.0
  0
INSERT
  8
PKT_NUMMER
  2
PKT_NR_SYM_21
 10
4375372.50
 20
5361078.95
 30
0.0
  0
INSERT
  8
PKT_NUMMER
  2
PKT_NR_SYM_22
 10
4375377.12
 20
5361074.48
 30
0.0
  0
INSERT
  8
PKT_NUMMER
  2
PKT_NR_SYM_23
 10
4375380.38
 20
5361075.51
 30
0.0
  0
INSERT
  8
PKT_NUMMER
  2
PKT_NR_SYM_24
 10
4375385.24
 20
5361036.47
 30
0.0
  0
INSERT
  8
PKT_NUMMER
  2
PKT_NR_SYM_25
 10
4375375.64
 20
5361081.40
 30
0.0
  0
INSERT
  8
PKT_NUMMER
  2
PKT_NR_SYM_26
 10
4375376.69
 20
5361076.53
 30
0.0
  0
INSERT
  8
PKT_NUMMER
  2
PKT_NR_SYM_27
 10
4375506.30
 20
5361003.54
 30
0.0
  0
INSERT
  8
PKT_NUMMER
  2
PKT_NR_SYM_28
 10
4375390.16
 20
5361084.80
 30
0.0
  0
INSERT
  8
PKT_NUMMER
  2
PKT_NR_SYM_29
 10
4375418.51
 20
5361100.24
 30
0.0
  0
INSERT
  8
PKT_NUMMER
  2
PKT_NR_SYM_30
 10
4375378.74
 20
5361083.20
 30
0.0
  0
INSERT
  8
PKT_NUMMER
  2
PKT_NR_SYM_31
 10
4375379.94
 20
5361082.58
 30
0.0
  0
INSERT
  8
PKT_NUMMER
  2
PKT_NR_SYM_32
 10
4375379.54
 20
5361079.42
 30
0.0
  0
INSERT
  8
PKT_NUMMER
  2
PKT_NR_SYM_33
 10
4375409.02
 20
5361092.07
 30
0.0
  0
INSERT
  8
PKT_NUMMER
  2
PKT_NR_SYM_34
 10
4375394.31
 20
5361088.97
 30
0.0
  0
INSERT
  8
PKT_NUMMER
  2
PKT_NR_SYM_35
 10
4375407.78
 20
5361097.95
 30
0.0
  0
INSERT
  8
PKT_NUMMER
  2
PKT_NR_SYM_36
 10
4375460.82
 20
5361028.02
 30
0.0
  0
INSERT
  8
PKT_NUMMER
  2
PKT_NR_SYM_37
 10
4375391.63
 20
5361077.95
 30
0.0
  0
INSERT
  8
PKT_NUMMER
  2
PKT_NR_SYM_38
 10
4375375.07
 20
5361082.56
 30
0.0
  0
INSERT
  8
PKT_NUMMER
  2
PKT_NR_SYM_39
 10
4375499.29
 20
5361036.37
 30
0.0
  0
INSERT
  8
PKT_NUMMER
  2
PKT_NR_SYM_40
 10
4375390.79
 20
5361081.87
 30
0.0
  0
INSERT
  8
PKT_NUMMER
  2
PKT_NR_SYM_41
 10
4375442.02
 20
5361096.06
 30
0.0
  0
INSERT
  8
PKT_NUMMER
  2
PKT_NR_SYM_42
 10
4375480.36
 20
5361058.82
 30
0.0
  0
INSERT
  8
PKT_NUMMER
  2
PKT_NR_SYM_43
 10
4375471.90
 20
5361098.39
 30
0.0
  0
INSERT
  8
PKT_NUMMER
  2
PKT_NR_SYM_44
 10
4375451.86
 20
5361094.10
 30
0.0
  0
INSERT
  8
PKT_NUMMER
  2
PKT_NR_SYM_45
 10
4375460.33
 20
5361054.53
 30
0.0
  0
INSERT
  8
PKT_NUMMER
  2
PKT_NR_SYM_46
 10
4375425.14
 20
5361020.28
 30
0.0
  0
INSERT
  8
PKT_NUMMER
  2
PKT_NR_SYM_47
 10
4375423.89
 20
5361014.34
 30
0.0
  0
INSERT
  8
PKT_NUMMER
  2
PKT_NR_SYM_48
 10
4375447.04
 20
5361087.97
 30
0.0
  0
INSERT
  8
PKT_NUMMER
  2
PKT_NR_SYM_49
 10
4375427.01
 20
5361083.67
 30
0.0
  0
INSERT
  8
PKT_NUMMER
  2
PKT_NR_SYM_50
 10
4375435.47
 20
5361044.09
 30
0.0
  0
INSERT
  8
PKT_NUMMER
  2
PKT_NR_SYM_51
 10
4375455.49
 20
5361048.36
 30
0.0
  0
INSERT
  8
PKT_NUMMER
  2
PKT_NR_SYM_52
 10
4375373.09
 20
5361090.49
 30
0.0
  0
INSERT
  8
PKT_NUMMER
  2
PKT_NR_SYM_53
 10
4375413.15
 20
5361099.09
 30
0.0
  0
INSERT
  8
PKT_NUMMER
  2
PKT_NR_SYM_54
 10
4375468.93
 20
5361035.90
 30
0.0
  0
INSERT
  8
PKT_NUMMER
  2
PKT_NR_SYM_55
 10
4375464.69
 20
5361055.45
 30
0.0
  0
INSERT
  8
PKT_NUMMER
  2
PKT_NR_SYM_56
 10
4375528.49
 20
5361063.79
 30
0.0
  0
INSERT
  8
PKT_NUMMER
  2
PKT_NR_SYM_57
 10
4375472.28
 20
5361057.09
 30
0.0
  0
INSERT
  8
PKT_NUMMER
  2
PKT_NR_SYM_58
 10
4375531.36
 20
5361049.18
 30
0.0
  0
INSERT
  8
PKT_NUMMER
  2
PKT_NR_SYM_59
 10
4375531.70
 20
5361049.29
 30
0.0
  0
INSERT
  8
PKT_NUMMER
  2
PKT_NR_SYM_60
 10
4375470.34
 20
5361056.67
 30
0.0
  0
INSERT
  8
PKT_NUMMER
  2
PKT_NR_SYM_61
 10
4375473.32
 20
5361052.25
 30
0.0
  0
INSERT
  8
PKT_NUMMER
  2
PKT_NR_SYM_62
 10
4375528.61
 20
5361063.81
 30
0.0
  0
INSERT
  8
PKT_NUMMER
  2
PKT_NR_SYM_63
 10
4375465.97
 20
5361049.88
 30
0.0
  0
INSERT
  8
PKT_NUMMER
  2
PKT_NR_SYM_64
 10
4375531.33
 20
5361049.27
 30
0.0
  0
INSERT
  8
PKT_NUMMER
  2
PKT_NR_SYM_65
 10
4375486.35
 20
5361055.04
 30
0.0
  0
INSERT
  8
PKT_NUMMER
  2
PKT_NR_SYM_66
 10
4375477.51
 20
5361096.12
 30
0.0
  0
INSERT
  8
PKT_NUMMER
  2
PKT_NR_SYM_67
 10
4375465.87
 20
5361049.87
 30
0.0
  0
INSERT
  8
PKT_NUMMER
  2
PKT_NR_SYM_68
 10
4375416.41
 20
5361081.39
 30
0.0
  0
INSERT
  8
PKT_NUMMER
  2
PKT_NR_SYM_69
 10
4375419.34
 20
5361082.01
 30
0.0
  0
INSERT
  8
PKT_NUMMER
  2
PKT_NR_SYM_70
 10
4375417.66
 20
5361075.57
 30
0.0
  0
INSERT
  8
PKT_NUMMER
  2
PKT_NR_SYM_71
 10
4375420.57
 20
5361076.20
 30
0.0
  0
INSERT
  8
PKT_NUMMER
  2
PKT_NR_SYM_72
 10
4375414.75
 20
5361074.94
 30
0.0
  0
INSERT
  8
PKT_NUMMER
  2
PKT_NR_SYM_73
 10
4375413.49
 20
5361080.77
 30
0.0
  0
INSERT
  8
PKT_NUMMER
  2
PKT_NR_SYM_74
 10
4375437.02
 20
5361085.82
 30
0.0
  0
INSERT
  8
PKT_NUMMER
  2
PKT_NR_SYM_75
 10
4375445.48
 20
5361046.22
 30
0.0
  0
INSERT
  8
PKT_NUMMER
  2
PKT_NR_SYM_76
 10
4375461.88
 20
5361096.24
 30
0.0
  0
INSERT
  8
PKT_NUMMER
  2
PKT_NR_SYM_77
 10
4375572.42
 20
5361023.76
 30
0.0
  0
INSERT
  8
PKT_NUMMER
  2
PKT_NR_SYM_78
 10
4375566.61
 20
5361050.97
 30
0.0
  0
INSERT
  8
PKT_NUMMER
  2
PKT_NR_SYM_79
 10
4375505.30
 20
5361150.10
 30
0.0
  0
INSERT
  8
PKT_NUMMER
  2
PKT_NR_SYM_80
 10
4375509.18
 20
5361150.94
 30
0.0
  0
INSERT
  8
PKT_NUMMER
  2
PKT_NR_SYM_81
 10
4375517.79
 20
5361171.49
 30
0.0
  0
INSERT
  8
PKT_NUMMER
  2
PKT_NR_SYM_82
 10
4375530.00
 20
5361115.15
 30
0.0
  0
INSERT
  8
PKT_NUMMER
  2
PKT_NR_SYM_83
 10
4375413.23
 20
5361125.08
 30
0.0
  0
INSERT
  8
PKT_NUMMER
  2
PKT_NR_SYM_84
 10
4375427.91
 20
5361128.20
 30
0.0
  0
INSERT
  8
PKT_NUMMER
  2
PKT_NR_SYM_85
 10
4375433.16
 20
5361103.36
 30
0.0
  0
INSERT
  8
PKT_NUMMER
  2
PKT_NR_SYM_86
 10
4375440.00
 20
5361104.81
 30
0.0
  0
INSERT
  8
PKT_NUMMER
  2
PKT_NR_SYM_87
 10
4375431.68
 20
5361143.94
 30
0.0
  0
INSERT
  8
PKT_NUMMER
  2
PKT_NR_SYM_88
 10
4375446.37
 20
5361147.06
 30
0.0
  0
INSERT
  8
PKT_NUMMER
  2
PKT_NR_SYM_89
 10
4375475.60
 20
5361162.35
 30
0.0
  0
INSERT
  8
PKT_NUMMER
  2
PKT_NR_SYM_90
 10
4375386.80
 20
5361124.44
 30
0.0
  0
INSERT
  8
PKT_NUMMER
  2
PKT_NR_SYM_91
 10
4375401.47
 20
5361127.56
 30
0.0
  0
INSERT
  8
PKT_NUMMER
  2
PKT_NR_SYM_92
 10
4375454.68
 20
5361107.93
 30
0.0
  0
INSERT
  8
PKT_NUMMER
  2
PKT_NR_SYM_93
 10
4375367.06
 20
5361137.81
 30
0.0
  0
INSERT
  8
PKT_NUMMER
  2
PKT_NR_SYM_94
 10
4375413.19
 20
5361125.24
 30
0.0
  0
INSERT
  8
PKT_NUMMER
  2
PKT_NR_SYM_95
 10
4375487.81
 20
5361106.00
 30
0.0
  0
INSERT
  8
PKT_NUMMER
  2
PKT_NR_SYM_96
 10
4375379.97
 20
5361132.42
 30
0.0
  0
INSERT
  8
PKT_NUMMER
  2
PKT_NR_SYM_97
 10
4375497.41
 20
5361109.40
 30
0.0
  0
INSERT
  8
PKT_NUMMER
  2
PKT_NR_SYM_98
 10
4375496.18
 20
5361115.25
 30
0.0
  0
INSERT
  8
PKT_NUMMER
  2
PKT_NR_SYM_99
 10
4375495.91
 20
5361115.41
 30
0.0
  0
INSERT
  8
PKT_NUMMER
  2
PKT_NR_SYM_100
 10
4375503.26
 20
5361110.62
 30
0.0
  0
INSERT
  8
PKT_NUMMER
  2
PKT_NR_SYM_101
 10
4375502.03
 20
5361116.48
 30
0.0
  0
INSERT
  8
PKT_NUMMER
  2
PKT_NR_SYM_102
 10
4375516.00
 20
5361119.70
 30
0.0
  0
INSERT
  8
PKT_NUMMER
  2
PKT_NR_SYM_103
 10
4375486.72
 20
5361158.29
 30
0.0
  0
INSERT
  8
PKT_NUMMER
  2
PKT_NR_SYM_104
 10
4375502.86
 20
5361161.77
 30
0.0
  0
INSERT
  8
PKT_NUMMER
  2
PKT_NR_SYM_105
 10
4375430.35
 20
5361146.74
 30
0.0
  0
INSERT
  8
PKT_NUMMER
  2
PKT_NR_SYM_106
 10
4375402.45
 20
5361122.96
 30
0.0
  0
INSERT
  8
PKT_NUMMER
  2
PKT_NR_SYM_107
 10
4375439.31
 20
5361104.67
 30
0.0
  0
INSERT
  8
PKT_NUMMER
  2
PKT_NR_SYM_108
 10
4375407.82
 20
5361124.11
 30
0.0
  0
INSERT
  8
PKT_NUMMER
  2
PKT_NR_SYM_109
 10
4375519.66
 20
5361105.16
 30
0.0
  0
INSERT
  8
PKT_NUMMER
  2
PKT_NR_SYM_110
 10
4375543.93
 20
5361171.96
 30
0.0
  0
INSERT
  8
PKT_NUMMER
  2
PKT_NR_SYM_111
 10
4375554.61
 20
5361120.49
 30
0.0
  0
INSERT
  8
PKT_NUMMER
  2
PKT_NR_SYM_112
 10
4375733.80
 20
5361202.21
 30
0.0
  0
INSERT
  8
PKT_NUMMER
  2
PKT_NR_SYM_113
 10
4375731.79
 20
5361197.98
 30
0.0
  0
INSERT
  8
PKT_NUMMER
  2
PKT_NR_SYM_114
 10
4375553.37
 20
5361113.05
 30
0.0
  0
INSERT
  8
PKT_NUMMER
  2
PKT_NR_SYM_115
 10
4375560.40
 20
5361114.58
 30
0.0
  0
INSERT
  8
PKT_NUMMER
  2
PKT_NR_SYM_116
 10
4375590.76
 20
5361128.58
 30
0.0
  0
INSERT
  8
PKT_NUMMER
  2
PKT_NR_SYM_117
 10
4375561.86
 20
5361119.66
 30
0.0
  0
INSERT
  8
PKT_NUMMER
  2
PKT_NR_SYM_118
 10
4375547.05
 20
5361176.69
 30
0.0
  0
INSERT
  8
PKT_NUMMER
  2
PKT_NR_SYM_119
 10
4375558.50
 20
5361121.42
 30
0.0
  0
INSERT
  8
PKT_NUMMER
  2
PKT_NR_SYM_120
 10
4375552.29
 20
5361116.91
 30
0.0
  0
INSERT
  8
PKT_NUMMER
  2
PKT_NR_SYM_121
 10
4375559.13
 20
5361118.40
 30
0.0
  0
ENDSEC
  0
EOF
